<svg width="1079" height="543" viewBox="0 0 1079 543" fill="none" xmlns="http://www.w3.org/2000/svg">
<path d="M540.58 541.952L998.247 502.957L1078.91 494.85L998.065 500.877L540.58 541.952Z" stroke="white" stroke-opacity="0.6" stroke-width="1.82793" stroke-miterlimit="22.9256"/>
<path d="M540.571 541.898L993.146 463.159L1072.8 448.055L992.785 461.105L540.571 541.898Z" stroke="white" stroke-opacity="0.6" stroke-width="1.82793" stroke-miterlimit="22.9256"/>
<path d="M540.562 541.851L984.618 423.944L1062.66 401.952L984.077 421.928L540.562 541.851Z" stroke="white" stroke-opacity="0.6" stroke-width="1.82793" stroke-miterlimit="22.9256"/>
<path d="M540.547 541.797L972.645 385.637L1048.48 356.926L971.933 383.675L540.547 541.797Z" stroke="white" stroke-opacity="0.6" stroke-width="1.82793" stroke-miterlimit="22.9256"/>
<path d="M540.529 541.753L957.336 348.542L1030.38 313.335L956.457 346.652L540.529 541.753Z" stroke="white" stroke-opacity="0.6" stroke-width="1.82793" stroke-miterlimit="22.9256"/>
<path d="M540.506 541.709L938.855 312.924L1008.54 271.489L937.812 311.118L540.506 541.709Z" stroke="white" stroke-opacity="0.6" stroke-width="1.82793" stroke-miterlimit="22.9256"/>
<path d="M540.482 541.665L917.349 279.051L983.151 231.702L916.152 277.339L540.482 541.665Z" stroke="white" stroke-opacity="0.6" stroke-width="1.82793" stroke-miterlimit="22.9256"/>
<path d="M540.44 541.623L892.98 247.17L954.405 194.265L891.639 245.571L540.44 541.623Z" stroke="white" stroke-opacity="0.6" stroke-width="1.82793" stroke-miterlimit="22.9256"/>
<path d="M540.417 541.587L865.962 217.514L922.544 159.456L864.486 216.038L540.417 541.587Z" stroke="white" stroke-opacity="0.6" stroke-width="1.82793" stroke-miterlimit="22.9256"/>
<path d="M540.375 541.552L836.431 190.352L887.733 127.586L834.828 189.011L540.375 541.552Z" stroke="white" stroke-opacity="0.6" stroke-width="1.82793" stroke-miterlimit="22.9256"/>
<path d="M540.334 541.52L804.656 165.845L850.296 98.8456L802.947 164.648L540.334 541.52Z" stroke="white" stroke-opacity="0.6" stroke-width="1.82793" stroke-miterlimit="22.9256"/>
<path d="M540.295 541.493L770.883 144.189L810.513 73.4599L769.077 143.143L540.295 541.493Z" stroke="white" stroke-opacity="0.6" stroke-width="1.82793" stroke-miterlimit="22.9256"/>
<path d="M540.245 541.469L735.346 125.537L768.663 51.6218L733.456 124.658L540.245 541.469Z" stroke="white" stroke-opacity="0.6" stroke-width="1.82793" stroke-miterlimit="22.9256"/>
<path d="M540.198 541.448L698.321 110.061L725.07 33.5132L696.359 109.349L540.198 541.448Z" stroke="white" stroke-opacity="0.6" stroke-width="1.82793" stroke-miterlimit="22.9256"/>
<path d="M540.147 541.434L660.067 97.9177L680.045 19.3313L658.05 97.377L540.147 541.434Z" stroke="white" stroke-opacity="0.6" stroke-width="1.82793" stroke-miterlimit="22.9256"/>
<path d="M540.1 541.422L620.897 89.2062L633.946 9.19164L618.842 88.8451L540.1 541.422Z" stroke="white" stroke-opacity="0.6" stroke-width="1.82793" stroke-miterlimit="22.9256"/>
<path d="M540.05 541.416L581.12 83.9294L587.148 3.08827L579.041 83.7477L540.05 541.416Z" stroke="white" stroke-opacity="0.6" stroke-width="1.82793" stroke-miterlimit="22.9256"/>
<path d="M539.997 541.413L541.04 82.0606L539.997 1.00002L538.955 82.0606L539.997 541.413Z" stroke="white" stroke-opacity="0.6" stroke-width="1.82793" stroke-miterlimit="22.9256"/>
<path d="M539.946 541.416L500.952 83.7477L492.848 3.08827L498.872 83.9294L539.946 541.416Z" stroke="white" stroke-opacity="0.6" stroke-width="1.82793" stroke-miterlimit="22.9256"/>
<path d="M539.895 541.422L461.153 88.8451L446.049 9.19164L459.099 89.2062L539.895 541.422Z" stroke="white" stroke-opacity="0.6" stroke-width="1.82793" stroke-miterlimit="22.9256"/>
<path d="M539.847 541.434L421.944 97.377L399.949 19.3313L419.927 97.9177L539.847 541.434Z" stroke="white" stroke-opacity="0.6" stroke-width="1.82793" stroke-miterlimit="22.9256"/>
<path d="M539.795 541.448L383.634 109.349L354.923 33.5132L381.675 110.061L539.795 541.448Z" stroke="white" stroke-opacity="0.6" stroke-width="1.82793" stroke-miterlimit="22.9256"/>
<path d="M539.746 541.469L346.539 124.658L311.329 51.6218L344.645 125.537L539.746 541.469Z" stroke="white" stroke-opacity="0.6" stroke-width="1.82793" stroke-miterlimit="22.9256"/>
<path d="M539.701 541.493L310.921 143.143L269.482 73.4599L309.111 144.189L539.701 541.493Z" stroke="white" stroke-opacity="0.6" stroke-width="1.82793" stroke-miterlimit="22.9256"/>
<path d="M539.656 541.52L277.043 164.648L229.695 98.8456L275.335 165.845L539.656 541.52Z" stroke="white" stroke-opacity="0.6" stroke-width="1.82793" stroke-miterlimit="22.9256"/>
<path d="M539.618 541.552L245.166 189.011L192.264 127.586L243.567 190.352L539.618 541.552Z" stroke="white" stroke-opacity="0.6" stroke-width="1.82793" stroke-miterlimit="22.9256"/>
<path d="M539.583 541.587L215.51 216.038L157.456 159.456L214.038 217.514L539.583 541.587Z" stroke="white" stroke-opacity="0.6" stroke-width="1.82793" stroke-miterlimit="22.9256"/>
<path d="M539.551 541.623L188.352 245.571L125.589 194.265L187.011 247.17L539.551 541.623Z" stroke="white" stroke-opacity="0.6" stroke-width="1.82793" stroke-miterlimit="22.9256"/>
<path d="M539.518 541.665L163.848 277.339L96.8486 231.702L162.648 279.051L539.518 541.665Z" stroke="white" stroke-opacity="0.6" stroke-width="1.82793" stroke-miterlimit="22.9256"/>
<path d="M539.494 541.709L142.187 311.118L71.4585 271.489L141.145 312.924L539.494 541.709Z" stroke="white" stroke-opacity="0.6" stroke-width="1.82793" stroke-miterlimit="22.9256"/>
<path d="M539.466 541.753L123.539 346.652L49.6201 313.335L122.656 348.542L539.466 541.753Z" stroke="white" stroke-opacity="0.6" stroke-width="1.82793" stroke-miterlimit="22.9256"/>
<path d="M539.446 541.797L108.056 383.675L31.5117 356.926L107.344 385.637L539.446 541.797Z" stroke="white" stroke-opacity="0.6" stroke-width="1.82793" stroke-miterlimit="22.9256"/>
<path d="M539.432 541.851L95.9138 421.928L17.3276 401.952L95.3732 423.944L539.432 541.851Z" stroke="white" stroke-opacity="0.6" stroke-width="1.82793" stroke-miterlimit="22.9256"/>
<path d="M539.419 541.898L87.2073 461.105L7.19287 448.055L86.8428 463.159L539.419 541.898Z" stroke="white" stroke-opacity="0.6" stroke-width="1.82793" stroke-miterlimit="22.9256"/>
<path d="M539.41 541.952L81.9248 500.877L1.08398 494.85L81.7432 502.957L539.41 541.952Z" stroke="white" stroke-opacity="0.6" stroke-width="1.82793" stroke-miterlimit="22.9256"/>
</svg>
