<svg xmlns="http://www.w3.org/2000/svg" viewBox="0 0 77.61 75.67"><defs><style>.cls-1{fill:#b5be83;fill-rule:evenodd;}</style></defs><g id="Layer_2" data-name="Layer 2"><g id="Слой_1" data-name="Слой 1"><path class="cls-1" d="M38.18,24l0,0c-.35.38-2,3.09-2.23,3.47s-.34.58-.54.92l0,.06,0,0a.75.75,0,0,1-.07.12l-.14.23c-.08.13-.15.24-.23.4-.35.59-.68,1.15-1,1.8a61.66,61.66,0,0,0-3.76,7.68c-1.28,3.38-1.26,6.12.67,8.9a9.05,9.05,0,0,0,15-.05c2.89-4.3,1.08-8.48-1.18-12.89-.55-1.09-5.43-10-6.31-10.74m.63-24L54.36,7.49,69.93,15l3.84,16.83,3.84,16.84L66.84,62.16,56.08,75.67H21.53L10.77,62.16,0,48.66,3.84,31.82,7.69,15l15.56-7.5Z"/></g></g></svg>