<svg xmlns="http://www.w3.org/2000/svg" viewBox="0 0 73.26 73.26"><defs><style>.cls-1{fill:#b5be83;fill-rule:evenodd;}</style></defs><g id="Layer_2" data-name="Layer 2"><g id="Слой_1" data-name="Слой 1"><path class="cls-1" d="M31.67,39.56c-.31-.61-.6-1.43-.88-2.09a6.25,6.25,0,0,1-.74-2.22c0-.74-.08-5.69,0-5.94.08-.1,0-.06.39,0l1.41.18c.62.05,1.23.16,1.85.22,1.2.13,2.49.29,3.7.46,1,.13,7.07.8,7.42,1-.24.27-6.76,5.4-7.51,6a4.08,4.08,0,0,1-1.64,1c-.68.23-1.32.48-2,.71a18.72,18.72,0,0,1-2,.68M9.08,33.13c.25.07,3.49,2.22,4,2.55l6.06,3.88c2.38,1.48,1.42.91,3.15,3.48.23.35.41.65.63,1a10.53,10.53,0,0,1,.64,1.05c0,.12-1.83,3.5-2.05,3.91-.43.82-.5.83-1.47,1.51-1.61,1.13-3.46,2.63-5.11,3.82-.58.41-1.13.84-1.71,1.27a12,12,0,0,1-1.75,1.23l-.31-2.93c-.11-1-.21-2-.3-3L9.65,39.11C9.57,38.29,9,33.5,9.08,33.13ZM28.2,22.91c.07.66,0,8.63,0,9.53V34.8a2.82,2.82,0,0,1-.5,1.92c-.25.55-.52,1.08-.78,1.63s-.52,1.13-.79,1.63l-3.73-.78a1.85,1.85,0,0,1-.84-.27C19.06,37.34,16.45,35.57,14,34c.07-.21.21-.25.4-.39l.44-.35,11.59-9c.29-.23.57-.46.88-.69S28,22.91,28.2,22.91Zm7.11,24.63c-.8.07-3.68-.06-4.14.21-.69.4-.7,2.63-1.08,3.28-.26-.1-1.89-2.48-2.28-2.87-.69-.69-2.66.44-4,.62A30.9,30.9,0,0,1,25.22,46c.69-1.28.38-1.09-.68-2.9a17,17,0,0,1-1.07-1.77c1.5,0,3.24,1.16,4,.24.2-.27,1-2,1.22-2.49a2.52,2.52,0,0,1,.43-.8A12.45,12.45,0,0,1,29.86,40c.23.59.44,1.41,1,1.6s1.52-.32,2-.48a19.1,19.1,0,0,1,1.88-.64c0,.3-1.89,3.37-2,3.81-.14.68.59,1.19,1.14,1.74A13.07,13.07,0,0,1,35.31,47.54Zm-.48-3.18c0-.22,1.82-3.43,2.16-4s.37-.83.9-1.24L42,35.8l.29-.22c.13-.11.16-.18.34-.2l.45,14.3c-.24,0-4.32-1.73-4.81-2a35.61,35.61,0,0,1-2.57-2.48C35.37,44.89,35.14,44.73,34.83,44.36Zm-2.44,5.12a24.1,24.1,0,0,1,2.42-.07c.79,0,1.69,0,2.47,0,.41,0,6.17,2.54,7.07,2.91.62.25,1.13.48,1.74.73a15.25,15.25,0,0,1,1.75.77c-.11.23-7,5.22-7.16,5.37-.38.29-7,5.23-7.22,5.34a33.79,33.79,0,0,1-.68-3.74c-.15-1.06-1.32-7.16-1.24-7.65Zm33.1,9.71A36.65,36.65,0,0,0,66.87,16L50,29.44c-.6.49-1.25,1-1.85,1.47l-3.66,2.95.11,4.32c0,1.38.05,2.89.14,4.28.15,2.15.09,4.35.2,6.49.09,1.68-.13,1.55.48,1.75L58,56c2.13.86,4.2,1.77,6.32,2.66Zm-30.6,14c.57,0,1.16,0,1.74,0A36.52,36.52,0,0,0,64.26,60.68c-5.57-2.36-14.23-6-14.39-6a9.58,9.58,0,0,0-1,.72c-.33.23-.63.47-1,.72L46,57.55,40.2,61.84l-1.9,1.41L35.4,65.4c-.56.42-1.06.84-1.61,1.26l.33,2,.58,3.49ZM9.21,60.92A36.52,36.52,0,0,0,33,73.08l-.77-4.46h0c-.21-1.17-.41-2.31-.6-3.48h0c-.13-.84-.32-1.87-.43-2.48l-.18-1c0-.09,0-.06-.06-.11-.2-.18-3.27-1.17-3.82-1.35l-11.68-4ZM1.07,27.84A36.65,36.65,0,0,0,8,59.5L8.73,59a12.22,12.22,0,0,0,1-.79L7,31.78C6.69,31.56,3.47,29.45,1.07,27.84ZM28.22,1a36.72,36.72,0,0,0-26.63,25l9.35,6.16c1.57,1,1.14.94,1.88.4,1.23-.91,2.58-2.05,3.85-3s2.84-2.28,4.1-3.2l.13-.1c.13-.11.08-.07.14-.17a15,15,0,0,0,1.81-1.36c.35-.27,5.31-4.09,5.36-4.23V19h0Zm8.41-1A36.71,36.71,0,0,0,30,.59l0,18.6h0c0,1.6-.09,7.69.08,8.16l.17.06.25,0,.5,0,3.05.39c1.35.19,2.7.33,4.06.5,2.72.33,5.44.65,8.14,1,.75.1.61.16,1.5-.59C50.09,26.83,62.62,17,65,15l.75-.58A36.56,36.56,0,0,0,36.63,0ZM17.37,54.87l4.1-3.11A4.69,4.69,0,0,1,24,50.67a23.3,23.3,0,0,1,2.85-.75c.28.33,2.79,3.6,2.86,3.77a13.84,13.84,0,0,1,.24,1.39l.71,4.34c-.46-.06-11-3.76-12.89-4.36C17.32,54.92,17.45,55,17.37,54.87Z"/></g></g></svg>