<svg xmlns="http://www.w3.org/2000/svg" viewBox="0 0 77.61 77.61"><defs><style>.cls-1{fill:#516828;fill-rule:evenodd;}</style></defs><g id="Layer_2" data-name="Layer 2"><g id="Слой_1" data-name="Слой 1"><path class="cls-1" d="M4.73,63.52l1.39-1.39,5.31,5.32,8.32-8.32,1.39,1.39-8.32,8.31-1.39,1.39-1.38-1.39Zm0-51.74,1.39-1.39,5.31,5.32,8.32-8.32,1.39,1.39-8.32,8.31-1.39,1.39-1.38-1.39Zm0,25.87,1.39-1.39,5.31,5.32,8.32-8.32,1.39,1.39L12.82,43l-1.39,1.39L10.05,43ZM30.6,63.52,32,62.13l5.31,5.32,8.32-8.32L47,60.52l-8.32,8.31L37.3,70.22l-1.38-1.39Zm25.87,0,1.39-1.39,5.31,5.32,8.32-8.32,1.39,1.39-8.32,8.31-1.39,1.39-1.38-1.39ZM30.6,11.78,32,10.39l5.31,5.32,8.32-8.32L47,8.78l-8.32,8.31L37.3,18.48l-1.38-1.39Zm0,25.87L32,36.26l5.31,5.32,8.32-8.32L47,34.65,38.69,43,37.3,44.35,35.92,43Zm25.87,0,1.39-1.39,5.31,5.32,8.32-8.32,1.39,1.39L64.56,43l-1.39,1.39L61.79,43Zm0-25.87,1.39-1.39,5.31,5.32,8.32-8.32,1.39,1.39-8.32,8.31-1.39,1.39-1.38-1.39Zm8.2,40A12.94,12.94,0,1,1,51.74,64.68,12.94,12.94,0,0,1,64.67,51.74Zm-25.87,0A12.94,12.94,0,1,1,25.87,64.68,12.94,12.94,0,0,1,38.8,51.74Zm-25.87,0A12.94,12.94,0,1,1,0,64.68,12.94,12.94,0,0,1,12.93,51.74ZM64.67,25.87A12.94,12.94,0,1,1,51.74,38.81,12.94,12.94,0,0,1,64.67,25.87Zm-25.87,0A12.94,12.94,0,1,1,25.87,38.81,12.94,12.94,0,0,1,38.8,25.87Zm-25.87,0A12.94,12.94,0,1,1,0,38.81,12.94,12.94,0,0,1,12.93,25.87ZM38.8,0A12.94,12.94,0,1,1,25.87,12.94,12.94,12.94,0,0,1,38.8,0ZM12.93,0A12.94,12.94,0,1,1,0,12.94,12.94,12.94,0,0,1,12.93,0ZM64.67,0A12.94,12.94,0,1,1,51.74,12.94,12.94,12.94,0,0,1,64.67,0Z"/></g></g></svg>