<?xml version="1.0" encoding="UTF-8"?> <svg xmlns="http://www.w3.org/2000/svg" viewBox="0 0 307.62 334.93"> <defs> <style>.cls-1{fill:#fff;}.cls-2,.cls-3{fill:#b6be84;}.cls-3{fill-rule:evenodd;}</style> </defs> <g id="Capa_2" data-name="Capa 2"> <g id="Capa_1-2" data-name="Capa 1"> <polygon class="cls-1" points="1.1 0 307.62 0 307.62 334.93 0 334.93 0 0 1.1 0"></polygon> <path class="cls-2" d="M180.79,281.31V266.89h10.87v2.82h-7.72v2.93h6.79v2.82h-6.79v3h7.82v2.82Zm-8-6.41H169.3v3.54h3.5c1.47,0,2.21-.61,2.21-1.83S174.26,274.9,172.78,274.9Zm-3.48-5.15v2.52h3.81a5.39,5.39,0,0,1,3.74,1.2,4.7,4.7,0,0,1-.09,6.64,6,6,0,0,1-4,1.2h-6.67V266.89h11.06v2.86Zm-17,11.56V266.89h10.87v2.82h-7.72v2.93h6.79v2.82h-6.79v3h7.82v2.82Zm-8.44.24a7.08,7.08,0,0,1-5.28-2.15,7.47,7.47,0,0,1,5.4-12.76,7.37,7.37,0,0,1,3.15.61A9.27,9.27,0,0,1,149.6,269l-1.89,2.19A7,7,0,0,0,146,270a4.68,4.68,0,0,0-2-.38,3.83,3.83,0,0,0-3,1.31,4.94,4.94,0,0,0,0,6.43,3.84,3.84,0,0,0,3,1.32,4.57,4.57,0,0,0,2-.41,7.93,7.93,0,0,0,1.79-1.28l2,2.16a7.72,7.72,0,0,1-2.54,1.86A8.62,8.62,0,0,1,143.9,281.55Zm-24.7-3H123c1.5,0,2.25-.54,2.25-1.61s-.79-1.56-2.35-1.56H119.2Zm0-5.81h2.92c1.52,0,2.28-.52,2.28-1.57a1.26,1.26,0,0,0-.53-1.1,2.67,2.67,0,0,0-1.54-.38H119.2Zm-3.09,8.59V266.89h6.69a5.14,5.14,0,0,1,3.77,1.28,3.56,3.56,0,0,1-.91,5.6,4.72,4.72,0,0,1,2,1.35,3.43,3.43,0,0,1,.68,2.23,3.39,3.39,0,0,1-1.44,2.95,6.85,6.85,0,0,1-4,1ZM244.64,251.2h-2.8v3.93h2.82c1.58,0,2.37-.67,2.37-2S246.23,251.2,244.64,251.2Zm-6,6.8V243.58h3.17v4.9h3.07a5.56,5.56,0,0,1,3.87,1.27,4.37,4.37,0,0,1,1.4,3.41,4.49,4.49,0,0,1-1.47,3.53,5.85,5.85,0,0,1-4,1.31Zm-8.44.24a7.08,7.08,0,0,1-5.28-2.15,7.47,7.47,0,0,1,5.4-12.76,7.37,7.37,0,0,1,3.15.61,9.27,9.27,0,0,1,2.43,1.74L234,247.86a7.23,7.23,0,0,0-1.74-1.22,4.53,4.53,0,0,0-2-.38,3.84,3.84,0,0,0-3,1.31,4.94,4.94,0,0,0,0,6.43,3.85,3.85,0,0,0,3,1.32,4.57,4.57,0,0,0,2-.41,7.93,7.93,0,0,0,1.79-1.28l2,2.16a7.72,7.72,0,0,1-2.54,1.86A8.62,8.62,0,0,1,230.23,258.24ZM209.68,258V243.58h10.87v2.82h-7.72v2.93h6.8v2.82h-6.8v3h7.83V258Zm-10,0V246.5h-4.39v-2.92h11.94v2.92h-4.38V258Zm-17.15,0V243.58h10.87v2.82H185.7v2.93h6.79v2.82H185.7v3h7.82V258Zm-10,0V246.5h-4.39v-2.92h11.94v2.92h-4.38V258Zm-15.18-6h3.83l-1.91-4.67Zm-5.68,6,6.18-14.52h2.92L167,258h-3.32l-1.31-3.24h-6.1L154.94,258Zm-10.54-2.78h3.77c1.5,0,2.24-.54,2.24-1.61s-.78-1.57-2.34-1.57h-3.67Zm0-5.81h2.93c1.52,0,2.28-.52,2.28-1.57a1.29,1.29,0,0,0-.53-1.1,2.71,2.71,0,0,0-1.55-.38h-3.13ZM138.08,258V243.58h6.69a5.1,5.1,0,0,1,3.77,1.28,3.55,3.55,0,0,1-.9,5.6,4.62,4.62,0,0,1,2,1.35,3.84,3.84,0,0,1-.76,5.18,6.81,6.81,0,0,1-3.95,1Zm-13.79,0V243.58h10.87v2.82h-7.72v2.93h6.79v2.82h-6.79v3h7.82V258Zm-15.65,0V243.58h3.18v5.7h5.84v-5.7h3.17V258h-3.17v-5.79h-5.84V258Zm-17.86,0V243.58h3.41l3.79,6.1,3.79-6.1h3.42V258H102v-9.41L98,254.74H97.9l-4-6.09V258Zm-13.59-4a4.36,4.36,0,0,0,6.24,0,4.85,4.85,0,0,0,0-6.43,4.12,4.12,0,0,0-3.13-1.32,4,4,0,0,0-3.11,1.31,4.82,4.82,0,0,0,0,6.43Zm8.56,2.08a8,8,0,0,1-10.94,0,7.5,7.5,0,0,1,0-10.57,7.48,7.48,0,0,1,5.49-2.18,7.39,7.39,0,0,1,5.46,2.17,7.47,7.47,0,0,1,0,10.58Zm-20.91,2.16a7,7,0,0,1-5.28-2.15A7.47,7.47,0,0,1,65,243.33a7.37,7.37,0,0,1,3.15.61,9.27,9.27,0,0,1,2.43,1.74l-1.89,2.18a7.23,7.23,0,0,0-1.74-1.22,4.56,4.56,0,0,0-2-.38,3.85,3.85,0,0,0-3,1.31,5,5,0,0,0,0,6.43,3.86,3.86,0,0,0,3,1.32,4.61,4.61,0,0,0,2-.41,7.93,7.93,0,0,0,1.79-1.28l2,2.16a7.76,7.76,0,0,1-2.55,1.86A8.53,8.53,0,0,1,64.84,258.24ZM213.1,230.69a4.36,4.36,0,0,0,6.24,0,4.86,4.86,0,0,0,0-6.44,4.14,4.14,0,0,0-3.13-1.31,4.06,4.06,0,0,0-3.11,1.3,4.86,4.86,0,0,0,0,6.44Zm8.57,2.08a8,8,0,0,1-10.95,0,7.21,7.21,0,0,1-2.17-5.29,7.13,7.13,0,0,1,2.19-5.28,7.49,7.49,0,0,1,5.49-2.18,7.41,7.41,0,0,1,5.47,2.17,7.5,7.5,0,0,1,0,10.58Zm-28.13,1.91V220.27h3.17V226h5.85v-5.7h3.17v14.41h-3.17V228.9h-5.85v5.78Zm-15.64,0V220.27h3.17V226h5.84v-5.7h3.18v14.41h-3.18V228.9h-5.84v5.78ZM168,227.27h3.21v-4.14H168.1a2.81,2.81,0,0,0-1.83.54,1.89,1.89,0,0,0-.66,1.56,1.82,1.82,0,0,0,.65,1.48A2.59,2.59,0,0,0,168,227.27Zm6.38-7v14.41h-3.17v-4.61h-2.49l-3.09,4.61H162l3.52-5.14A4.42,4.42,0,0,1,162.4,225a4.36,4.36,0,0,1,1.45-3.49,5.82,5.82,0,0,1,4-1.27Zm-25,10.42a4.36,4.36,0,0,0,6.24,0,4.6,4.6,0,0,0,1.21-3.22,4.51,4.51,0,0,0-1.24-3.22,4.11,4.11,0,0,0-3.12-1.31,4,4,0,0,0-3.11,1.3,4.59,4.59,0,0,0-1.22,3.23A4.5,4.5,0,0,0,149.43,230.69Zm8.56,2.08a8,8,0,0,1-10.94,0,7.5,7.5,0,0,1,0-10.57,7.48,7.48,0,0,1,5.49-2.18,7.4,7.4,0,0,1,5.46,2.17,7.5,7.5,0,0,1,0,10.58Zm-22.46,1.91V223.19h-4.38v-2.92h11.94v2.92H138.7v11.49Zm-11.79.25a7.12,7.12,0,0,1-5.29-2.15,7.69,7.69,0,0,1,0-10.59,8,8,0,0,1,8.55-1.56,9.27,9.27,0,0,1,2.43,1.74l-1.9,2.18a6.86,6.86,0,0,0-1.74-1.22,4.48,4.48,0,0,0-2-.38,3.87,3.87,0,0,0-3,1.3,5,5,0,0,0,0,6.44,3.86,3.86,0,0,0,3,1.32,4.53,4.53,0,0,0,2-.41,8,8,0,0,0,1.8-1.28l2,2.16a7.55,7.55,0,0,1-2.54,1.85A8.35,8.35,0,0,1,123.74,234.93Zm-20.34-4.24a4.35,4.35,0,0,0,6.23,0,4.56,4.56,0,0,0,1.22-3.22,4.51,4.51,0,0,0-1.24-3.22,4.11,4.11,0,0,0-3.13-1.31,4.06,4.06,0,0,0-3.11,1.3,4.58,4.58,0,0,0-1.21,3.23A4.5,4.5,0,0,0,103.4,230.69Zm8.56,2.08a8,8,0,0,1-10.94,0,7.5,7.5,0,0,1,0-10.57,8,8,0,0,1,10.95,0,7.5,7.5,0,0,1,0,10.58Zm-28,1.91V220.27H96v14.41H92.85V223.13H87.17v11.55Z"></path> <polygon class="cls-3" points="213.13 132.14 193.7 112.7 213.13 93.27 173.25 53.38 153.81 72.82 134.37 53.38 94.49 93.27 113.93 112.7 94.49 132.14 134.37 172.03 153.81 152.59 173.25 172.03 213.13 132.14"></polygon> </g> </g> </svg> 