<?xml version="1.0" encoding="UTF-8"?> <svg xmlns="http://www.w3.org/2000/svg" viewBox="0 0 335.36 335.46"> <defs> <style>.cls-1,.cls-2{fill:#536929;}.cls-2{fill-rule:evenodd;}</style> </defs> <g id="Capa_2" data-name="Capa 2"> <g id="Capa_1-2" data-name="Capa 1"> <path class="cls-1" d="M201.58,277h-2.8V281h2.82c1.58,0,2.36-.67,2.36-2s-.79-1.91-2.38-1.91m-6,6.8V269.42h3.17v4.9h3.06a5.52,5.52,0,0,1,3.87,1.27,4.34,4.34,0,0,1,1.4,3.41,4.49,4.49,0,0,1-1.47,3.53,5.81,5.81,0,0,1-4,1.31Zm-15.65,0V269.42h3.17v5.71H189v-5.71h3.17v14.42H189v-5.79h-5.85v5.79Zm-13.79,0V269.42H177v2.82h-7.72v2.93h6.79V278h-6.79v3h7.82v2.83Zm-7.12-11.56h-4.27v1.47a18.94,18.94,0,0,1-1.29,7.22h5.56Zm-10.26,14.56V281h1.36a18.19,18.19,0,0,0,1.22-4.14,36.28,36.28,0,0,0,.37-5.72v-1.69h10.48V281h1.72l-.41,5.87h-2.65v-3h-9l-.21,3Zm-16.43-5.78h3.77c1.5,0,2.25-.54,2.25-1.61s-.79-1.57-2.35-1.57h-3.67Zm0-5.81h2.93c1.52,0,2.28-.52,2.28-1.57a1.29,1.29,0,0,0-.53-1.1,2.69,2.69,0,0,0-1.55-.38h-3.13Zm-3.08,8.59V269.42H136a5.09,5.09,0,0,1,3.76,1.28,3.55,3.55,0,0,1-.9,5.6,4.72,4.72,0,0,1,2,1.35,3.43,3.43,0,0,1,.68,2.23,3.4,3.4,0,0,1-1.45,2.95,6.79,6.79,0,0,1-4,1Zm80-30.73h3.21V249h-3.15a2.77,2.77,0,0,0-1.83.54,1.89,1.89,0,0,0-.66,1.56,1.84,1.84,0,0,0,.65,1.49A2.63,2.63,0,0,0,209.25,253.11Zm6.38-7v14.41h-3.17v-4.61H210l-3.09,4.61h-3.71l3.52-5.14a4.42,4.42,0,0,1-3.09-4.51,4.37,4.37,0,0,1,1.46-3.49,5.8,5.8,0,0,1,4-1.27Zm-27,14.41V246.11h3.17v5.7h5.84v-5.7h3.17v14.41h-3.17v-5.78h-5.84v5.78ZM181.45,249h-4.26v1.46a19,19,0,0,1-1.29,7.23h5.55ZM171.2,263.53v-5.87h1.36a17.68,17.68,0,0,0,1.21-4.14,34.94,34.94,0,0,0,.38-5.72v-1.69h10.47v11.55h1.73l-.41,5.87h-2.65v-3h-9l-.21,3Zm-18.24-7a4.12,4.12,0,0,0,3.13,1.32,4.07,4.07,0,0,0,3.11-1.31,4.86,4.86,0,0,0,0-6.44,4.13,4.13,0,0,0-3.13-1.31,4.06,4.06,0,0,0-3.11,1.3,4.86,4.86,0,0,0,0,6.44Zm8.57,2.08a8,8,0,0,1-10.95,0,7.21,7.21,0,0,1-2.17-5.29A7.13,7.13,0,0,1,150.6,248a8,8,0,0,1,11,0,7.51,7.51,0,0,1,0,10.59Zm-20.82-12.75a6.14,6.14,0,0,1,3.76,1.09,3.34,3.34,0,0,1,1.45,2.78,3.43,3.43,0,0,1-2.33,3.32,3.38,3.38,0,0,1,2.7,3.4,3.85,3.85,0,0,1-1.49,3.11,6.12,6.12,0,0,1-4,1.21,10,10,0,0,1-3.7-.6,8,8,0,0,1-2.71-1.81l1.69-2.2a6.32,6.32,0,0,0,4.59,1.83,3,3,0,0,0,1.74-.46,1.45,1.45,0,0,0,.69-1.27,1.34,1.34,0,0,0-.77-1.27,4.4,4.4,0,0,0-2.09-.42h-1.67v-2.63h1.63c1.71,0,2.57-.56,2.57-1.67a1.33,1.33,0,0,0-.64-1.17,2.91,2.91,0,0,0-1.68-.44,5.21,5.21,0,0,0-3.9,1.59l-1.66-2A7.67,7.67,0,0,1,140.71,245.86Zm-8.58.25v14.41H129v-9.45l-6.3,9.45h-3V246.11h3.13v9.45l6.34-9.45Zm113.52-15.69h-2.8v3.93h2.82c1.58,0,2.37-.67,2.37-2S247.24,230.42,245.65,230.42Zm-6,6.79V222.8h3.17v4.9h3.07a5.52,5.52,0,0,1,3.87,1.27,4.37,4.37,0,0,1,1.4,3.4,4.51,4.51,0,0,1-1.47,3.54,5.83,5.83,0,0,1-4,1.3Zm-8.44.25a7.12,7.12,0,0,1-5.28-2.15,7.6,7.6,0,0,1,8.56-12.15A8.83,8.83,0,0,1,237,224.9l-1.9,2.18a7.23,7.23,0,0,0-1.74-1.22,4.53,4.53,0,0,0-2-.38,3.87,3.87,0,0,0-3,1.3,5,5,0,0,0,0,6.44,3.85,3.85,0,0,0,3,1.32,4.44,4.44,0,0,0,2-.42,7.85,7.85,0,0,0,1.79-1.27l2,2.16a7.55,7.55,0,0,1-2.54,1.85A8.4,8.4,0,0,1,231.24,237.46Zm-20.54-.25V222.8h10.87v2.82h-7.72v2.92h6.79v2.83h-6.79v3h7.82v2.82Zm-10,0V225.72h-4.38V222.8h11.94v2.92h-4.39v11.49ZM193.9,222.8v14.41h-3.13v-9.45l-6.3,9.45h-3V222.8h3.13v9.45L191,222.8Zm-24.09,14.41h-3.15v-3.83l-1.91-2.06-4.06,5.89H156.9l5.71-8.17-5.5-6.24h3.77l5.78,6.73V222.8h3.15v6.73l5.79-6.73h3.76L173.87,229l5.7,8.17h-3.79l-4.07-5.89-1.9,2.06Zm-24.95-4a4.36,4.36,0,0,0,6.24,0,4.86,4.86,0,0,0,0-6.44,4.11,4.11,0,0,0-3.13-1.31,4.06,4.06,0,0,0-3.11,1.3,4.83,4.83,0,0,0,0,6.44Zm8.56,2.08a8,8,0,0,1-10.94,0,7.51,7.51,0,0,1,0-10.58,8,8,0,0,1,11,0,7.5,7.5,0,0,1,0,10.59Zm-24.25-.87h3.77c1.5,0,2.24-.53,2.24-1.6s-.78-1.57-2.34-1.57h-3.67Zm0-5.8h2.93c1.52,0,2.28-.52,2.28-1.57a1.27,1.27,0,0,0-.53-1.1,2.71,2.71,0,0,0-1.55-.38h-3.13Zm-3.08,8.58V222.8h6.69a5.05,5.05,0,0,1,3.76,1.28,3.36,3.36,0,0,1,1,2.49,3.4,3.4,0,0,1-1.89,3.11,4.62,4.62,0,0,1,2,1.35,3.83,3.83,0,0,1-.76,5.17,6.74,6.74,0,0,1-3.95,1Zm-13.8,0V222.8h10.87v2.82h-7.72v2.92h6.8v2.83h-6.8v3h7.82v2.82Zm-10.58-7.14h2.51a2.61,2.61,0,0,0,1.84-.62,2.08,2.08,0,0,0,.67-1.61,1.94,1.94,0,0,0-.68-1.61,2.84,2.84,0,0,0-1.89-.57h-2.45Zm-3.17,7.14V222.8h5.89a5.66,5.66,0,0,1,4,1.38,4.73,4.73,0,0,1,1.49,3.64,4.52,4.52,0,0,1-1.65,3.74,6.42,6.42,0,0,1-4.18,1.33h-2.41v4.32Zm-10,0V225.72H84.17V222.8H96.11v2.92H91.73v11.49Z"></path> <polygon class="cls-2" points="162.77 49.01 140.36 98.53 162.37 98.53 148.62 129.19 166.31 129.58 147.83 184.61 189.89 113.47 176.52 114.25 189.1 89.1 171.81 89.1 195 48.61 162.77 49.01"></polygon> <path class="cls-1" d="M333.16,2.21H2.21v331h331ZM1.1,0H335.36V335.46H0V0Z"></path> </g> </g> </svg> 