<svg xmlns="http://www.w3.org/2000/svg" viewBox="0 0 106.94 97.66"><defs><style>.cls-1{fill:#fc9;fill-rule:evenodd;}</style></defs><g id="Layer_2" data-name="Layer 2"><g id="Слой_1" data-name="Слой 1"><path class="cls-1" d="M43.54,31.59,53.47,0,63.4,31.59,96.17,19.06,76,46.4l30.94,16.47L71.47,65,77,97.66,53.47,73.14,29.9,97.66,35.47,65,0,62.87,30.93,46.4,10.76,19.06Zm9.93-8.5-5.53,17.6L30.37,34,41.25,48.73,24.88,57.45,43.6,58.59l-3.08,18L53.47,63.16l13,13.47-3.08-18,18.72-1.14L65.68,48.73,76.57,34,59,40.69Zm0,0-5.53,17.6L30.37,34,41.25,48.73,24.88,57.45,43.6,58.59l-3.08,18L53.47,63.16l13,13.47-3.08-18,18.72-1.14L65.68,48.73,76.57,34,59,40.69Z"/></g></g></svg>