<?xml version="1.0" encoding="UTF-8"?> <svg xmlns="http://www.w3.org/2000/svg" viewBox="0 0 362.53 97.66"> <defs> <style>.cls-1{fill:#fbcc9b;}.cls-1,.cls-2{fill-rule:evenodd;}.cls-2{fill:#c9cfa9;}.cls-3{fill:#cdcc34;}</style> </defs> <g id="Capa_2" data-name="Capa 2"> <g id="Capa_1-2" data-name="Capa 1"> <path class="cls-1" d="M43.54,31.59,53.47,0,63.4,31.59,96.17,19.06,76,46.4l30.94,16.47L71.47,65,77,97.66,53.47,73.14,29.9,97.66,35.47,65,0,62.87,30.93,46.4,10.76,19.06Zm9.93-8.5-5.53,17.6L30.37,34,41.25,48.73,24.88,57.45,43.6,58.59l-3.08,18L53.47,63.16l13,13.47-3.08-18,18.72-1.14L65.68,48.73,76.57,34,59,40.69Zm0,0-5.53,17.6L30.37,34,41.25,48.73,24.88,57.45,43.6,58.59l-3.08,18L53.47,63.16l13,13.47-3.08-18,18.72-1.14L65.68,48.73,76.57,34,59,40.69Z"></path> <path class="cls-2" d="M165.71,7.15A48.83,48.83,0,0,0,234.77,76.2Z"></path> <path class="cls-3" d="M303.54,11.85a19.54,19.54,0,0,1-19.66,19.41V71.1a19.54,19.54,0,0,1,19.66,19.41h39.33A19.53,19.53,0,0,1,362.53,71.1V31.26a19.53,19.53,0,0,1-19.66-19.41H303.54"></path> </g> </g> </svg> 