<svg xmlns="http://www.w3.org/2000/svg" viewBox="0 0 61.29 61.31"><defs><style>.cls-1{fill:#5d6541;fill-rule:evenodd;}</style></defs><g id="Layer_2" data-name="Layer 2"><g id="Слой_1" data-name="Слой 1"><path class="cls-1" d="M.07,32.46A30.88,30.88,0,0,0,3.32,44.52,30.45,30.45,0,0,0,10,53.25a31.66,31.66,0,0,0,4.33,3.32,30.68,30.68,0,0,0,40.78-7.33,30.33,30.33,0,0,0,4.13-7.31A30.88,30.88,0,0,0,55,12.06a22.85,22.85,0,0,0-1.77-2.12c-.73-.76-1.21-1.2-1.89-1.89l-.52-.48-.56-.46a30.79,30.79,0,0,0-21.43-7,32,32,0,0,0-6.52,1.1A30.65,30.65,0,0,0,.07,32.46M11.59,16.11a21,21,0,0,1,2.35-4.46,26.5,26.5,0,0,1,3-3.78,23.64,23.64,0,0,1,3.74-3,16,16,0,0,1,4.58-2.13c-.08.22-.78,1.13-1,1.53C22,7.69,20.12,14.08,19.72,18.06,18.73,18.28,12.47,16.61,11.59,16.11Zm29.08,2.16c-.24-.45-.74-3.53-.93-4.36-.34-1.44-.73-2.79-1.18-4.12a23.53,23.53,0,0,0-3-6.2,2.3,2.3,0,0,1-.52-.87c4.25.85,9.14,5.57,11.47,9.28a23,23,0,0,1,2.32,4.46A36.37,36.37,0,0,1,40.67,18.27ZM42.79,4.61c.63,0,5.61,3.38,6.29,4,1.45,1.24,4.3,4,5,5.53a15.23,15.23,0,0,1-3.37,1.64C50.17,15.06,49,11.17,45,7c-.37-.39-.75-.78-1.2-1.2-.21-.19-.41-.42-.63-.62l-.67-.42ZM7.28,14.1c.34-1,3.1-3.83,4-4.63a28.3,28.3,0,0,1,4.88-3.56l-.62.76a23.6,23.6,0,0,0-3,3.6c-1.37,2.07-2.16,4-2.84,5.07A6.52,6.52,0,0,1,7.28,14.1ZM2,29.67A28.78,28.78,0,0,1,3.26,22a31.52,31.52,0,0,1,2.82-6.24L9,17.24c-1.25,4.27-2.36,7.52-2.32,12.41A38.6,38.6,0,0,1,2,29.67Zm53.31-13.9a28.78,28.78,0,0,1,4.13,13.94H53.62a41.85,41.85,0,0,0-.69-6.48c-.47-2.56-1.22-4.26-1.49-5.6Zm-33.62,2.6c0-2.29,1.83-8.06,2.61-10,1-2.43,3.1-6.61,6.11-6.43,5.17.3,8.47,14.89,8.26,16.63C35.67,18.82,33,19,30,19,28.41,19,22.76,18.84,21.64,18.37ZM8.57,29.71a31.77,31.77,0,0,1,.66-6.31c.49-2.48,1.2-4.13,1.48-5.45a13.28,13.28,0,0,1,2.2.64,63.51,63.51,0,0,0,6.46,1.46c0,2.38-.75,5.61-.63,9.66Zm32.34-9.45c.48-.22,3.68-.71,4.53-.9l4.16-1.07a33.84,33.84,0,0,1,2.1,11.42H41.53c-.05-1.63-.1-3.19-.2-4.78S40.92,21.67,40.91,20.26ZM20.66,29.71a83.81,83.81,0,0,1,.61-9.38c3,.27,5.74.56,8.83.57,1.53,0,3,0,4.53-.1,1.19-.05,3.31-.38,4.37-.29.24,3.11.59,5.91.62,9.2ZM3.25,39.31c-.49-1.55-1.48-6-1.26-7.69H6.58c.17,1,.16,2.38.28,3.49A54.09,54.09,0,0,0,9,44.16L6,45.57A42.74,42.74,0,0,1,3.25,39.31ZM41,41.14c-.11-.94.32-3.59.39-4.79s0-3.59.24-4.73l10.09,0C52,34.08,50.51,41.13,49.6,43l-6.42-1.51C42.55,41.39,41.52,41.3,41,41.14Zm10.53,2.64a20.72,20.72,0,0,1,.8-2.85,55.64,55.64,0,0,0,1.38-9.31l5.69,0c.44,2.87-1.48,8.85-2.91,11.8a.36.36,0,0,1,0,.09l-1.14,2ZM9.21,37.87c-.23-1.25-.84-5-.59-6.25l10.09,0c.17,1.58.08,3.42.23,5,.09,1,.48,4,.4,4.64a43.7,43.7,0,0,0-4.5.91c-1.1.28-3.23,1.07-4.11,1.17C10.27,41.6,9.61,40,9.21,37.87ZM21.29,41c-.25-1.87-.9-7.7-.59-9.39l18.88,0a52,52,0,0,1-.6,9.19c-.93.08-3.14-.24-4.23-.3A82.7,82.7,0,0,0,21.29,41Zm17.38,1.77c-.28,3.87-3,12.92-5.93,15.46-6.1,5.23-9.81-8.52-10.67-12.61-.64-3-.7-2.74.36-2.83A84.73,84.73,0,0,1,38.67,42.78ZM35,58.64c.3-.55.67-1,1.06-1.61,2.47-3.78,3.74-9.6,4.54-14a39.8,39.8,0,0,1,8.23,1.86,27.2,27.2,0,0,1-2.53,4.86,1.88,1.88,0,0,1-.18.24,26.12,26.12,0,0,1-4.51,5A18.85,18.85,0,0,1,35,58.64ZM11.55,45.22c1.3-.52,6.69-2.08,8.11-1.95a20,20,0,0,1,.44,2.23,41.1,41.1,0,0,0,3.16,9.89l2,3.25c-3.14-.76-6.65-3.45-8.35-5.27S12.13,47.43,11.55,45.22ZM7.25,47.3A5.56,5.56,0,0,1,9.73,46c.48.74.93,1.84,1.33,2.6a31.42,31.42,0,0,0,4.58,6.24l.42.51C13.55,54.29,8.84,49.86,7.25,47.3ZM45,54.47a20.21,20.21,0,0,0,2.21-2.69c.67-1,1.3-1.88,1.92-3l1.65-3.18a16.56,16.56,0,0,1,3.37,1.57c-.35,1.25-4,4.68-5.05,5.6-1.44,1.23-5.11,3.72-6.61,4.07Z"/></g></g></svg>