<svg xmlns="http://www.w3.org/2000/svg" viewBox="0 0 341.4 341.49"><defs><style>.cls-1{fill:#d2d79d;fill-rule:evenodd;}.cls-2{fill:none;stroke:#9aa56d;stroke-miterlimit:22.93;}</style></defs><g id="Layer_2" data-name="Layer 2"><g id="Слой_1" data-name="Слой 1"><polygon class="cls-1" points="170.51 170.76 26.11 183.07 0.67 185.63 26.17 183.73 170.51 170.76"/><polygon class="cls-2" points="170.51 170.76 26.11 183.07 0.67 185.63 26.17 183.73 170.51 170.76"/><polygon class="cls-1" points="170.52 170.78 27.72 195.63 2.59 200.4 27.84 196.28 170.52 170.78"/><polygon class="cls-2" points="170.52 170.78 27.72 195.63 2.59 200.4 27.84 196.28 170.52 170.78"/><polygon class="cls-1" points="170.52 170.79 30.41 208.01 5.79 214.95 30.59 208.64 170.52 170.79"/><polygon class="cls-2" points="170.52 170.79 30.41 208.01 5.79 214.95 30.59 208.64 170.52 170.79"/><polygon class="cls-1" points="170.53 170.81 34.19 220.09 10.27 229.16 34.42 220.71 170.53 170.81"/><polygon class="cls-2" points="170.53 170.81 34.19 220.09 10.27 229.16 34.42 220.71 170.53 170.81"/><polygon class="cls-1" points="170.53 170.83 39.02 231.8 15.98 242.91 39.3 232.4 170.53 170.83"/><polygon class="cls-2" points="170.53 170.83 39.02 231.8 15.98 242.91 39.3 232.4 170.53 170.83"/><polygon class="cls-1" points="170.54 170.84 44.85 243.04 22.87 256.12 45.18 243.62 170.54 170.84"/><polygon class="cls-2" points="170.54 170.84 44.85 243.04 22.87 256.12 45.18 243.62 170.54 170.84"/><polygon class="cls-1" points="170.55 170.85 51.64 253.74 30.88 268.68 52.02 254.28 170.55 170.85"/><polygon class="cls-2" points="170.55 170.85 51.64 253.74 30.88 268.68 52.02 254.28 170.55 170.85"/><polygon class="cls-1" points="170.56 170.87 59.33 263.8 39.95 280.49 59.75 264.3 170.56 170.87"/><polygon class="cls-2" points="170.56 170.87 59.33 263.8 39.95 280.49 59.75 264.3 170.56 170.87"/><polygon class="cls-1" points="170.57 170.88 67.86 273.16 50 291.48 68.32 273.62 170.57 170.88"/><polygon class="cls-2" points="170.57 170.88 67.86 273.16 50 291.48 68.32 273.62 170.57 170.88"/><polygon class="cls-1" points="170.58 170.89 77.17 281.73 60.99 301.54 77.68 282.15 170.58 170.89"/><polygon class="cls-2" points="170.58 170.89 77.17 281.73 60.99 301.54 77.68 282.15 170.58 170.89"/><polygon class="cls-1" points="170.59 170.9 87.2 289.46 72.8 310.61 87.73 289.84 170.59 170.9"/><polygon class="cls-2" points="170.59 170.9 87.2 289.46 72.8 310.61 87.73 289.84 170.59 170.9"/><polygon class="cls-1" points="170.61 170.91 97.85 296.3 85.35 318.62 98.42 296.63 170.61 170.91"/><polygon class="cls-2" points="170.61 170.91 97.85 296.3 85.35 318.62 98.42 296.63 170.61 170.91"/><polygon class="cls-1" points="170.62 170.91 109.06 302.18 98.55 325.51 109.66 302.46 170.62 170.91"/><polygon class="cls-2" points="170.62 170.91 109.06 302.18 98.55 325.51 109.66 302.46 170.62 170.91"/><polygon class="cls-1" points="170.64 170.92 120.75 307.07 112.31 331.23 121.36 307.29 170.64 170.92"/><polygon class="cls-2" points="170.64 170.92 120.75 307.07 112.31 331.23 121.36 307.29 170.64 170.92"/><polygon class="cls-1" points="170.65 170.93 132.82 310.9 126.51 335.7 133.45 311.07 170.65 170.93"/><polygon class="cls-2" points="170.65 170.93 132.82 310.9 126.51 335.7 133.45 311.07 170.65 170.93"/><polygon class="cls-1" points="170.67 170.93 145.18 313.65 141.06 338.9 145.82 313.76 170.67 170.93"/><polygon class="cls-2" points="170.67 170.93 145.18 313.65 141.06 338.9 145.82 313.76 170.67 170.93"/><polygon class="cls-1" points="170.68 170.93 157.72 315.31 155.82 340.83 158.38 315.37 170.68 170.93"/><polygon class="cls-2" points="170.68 170.93 157.72 315.31 155.82 340.83 158.38 315.37 170.68 170.93"/><polygon class="cls-1" points="170.7 170.93 170.37 315.9 170.7 341.49 171.03 315.9 170.7 170.93"/><polygon class="cls-2" points="170.7 170.93 170.37 315.9 170.7 341.49 171.03 315.9 170.7 170.93"/><polygon class="cls-1" points="170.72 170.93 183.02 315.37 185.58 340.83 183.68 315.31 170.72 170.93"/><polygon class="cls-2" points="170.72 170.93 183.02 315.37 185.58 340.83 183.68 315.31 170.72 170.93"/><polygon class="cls-1" points="170.73 170.93 195.58 313.76 200.34 338.9 196.22 313.65 170.73 170.93"/><polygon class="cls-2" points="170.73 170.93 195.58 313.76 200.34 338.9 196.22 313.65 170.73 170.93"/><polygon class="cls-1" points="170.75 170.93 207.95 311.07 214.89 335.7 208.58 310.9 170.75 170.93"/><polygon class="cls-2" points="170.75 170.93 207.95 311.07 214.89 335.7 208.58 310.9 170.75 170.93"/><polygon class="cls-1" points="170.76 170.92 220.03 307.29 229.09 331.23 220.65 307.07 170.76 170.92"/><polygon class="cls-2" points="170.76 170.92 220.03 307.29 229.09 331.23 220.65 307.07 170.76 170.92"/><polygon class="cls-1" points="170.78 170.91 231.74 302.46 242.85 325.51 232.34 302.18 170.78 170.91"/><polygon class="cls-2" points="170.78 170.91 231.74 302.46 242.85 325.51 232.34 302.18 170.78 170.91"/><polygon class="cls-1" points="170.79 170.91 242.98 296.63 256.05 318.62 243.54 296.3 170.79 170.91"/><polygon class="cls-2" points="170.79 170.91 242.98 296.63 256.05 318.62 243.54 296.3 170.79 170.91"/><polygon class="cls-1" points="170.81 170.9 253.66 289.84 268.6 310.61 254.2 289.46 170.81 170.9"/><polygon class="cls-2" points="170.81 170.9 253.66 289.84 268.6 310.61 254.2 289.46 170.81 170.9"/><polygon class="cls-1" points="170.82 170.89 263.72 282.15 280.41 301.54 264.23 281.73 170.82 170.89"/><polygon class="cls-2" points="170.82 170.89 263.72 282.15 280.41 301.54 264.23 281.73 170.82 170.89"/><polygon class="cls-1" points="170.83 170.88 273.08 273.62 291.4 291.48 273.54 273.16 170.83 170.88"/><polygon class="cls-2" points="170.83 170.88 273.08 273.62 291.4 291.48 273.54 273.16 170.83 170.88"/><polygon class="cls-1" points="170.84 170.87 281.65 264.3 301.45 280.49 282.07 263.8 170.84 170.87"/><polygon class="cls-2" points="170.84 170.87 281.65 264.3 301.45 280.49 282.07 263.8 170.84 170.87"/><polygon class="cls-1" points="170.85 170.85 289.38 254.28 310.52 268.68 289.76 253.74 170.85 170.85"/><polygon class="cls-2" points="170.85 170.85 289.38 254.28 310.52 268.68 289.76 253.74 170.85 170.85"/><polygon class="cls-1" points="170.86 170.84 296.21 243.62 318.53 256.12 296.54 243.04 170.86 170.84"/><polygon class="cls-2" points="170.86 170.84 296.21 243.62 318.53 256.12 296.54 243.04 170.86 170.84"/><polygon class="cls-1" points="170.87 170.83 302.1 232.4 325.42 242.91 302.38 231.8 170.87 170.83"/><polygon class="cls-2" points="170.87 170.83 302.1 232.4 325.42 242.91 302.38 231.8 170.87 170.83"/><polygon class="cls-1" points="170.87 170.81 306.98 220.71 331.13 229.16 307.21 220.09 170.87 170.81"/><polygon class="cls-2" points="170.87 170.81 306.98 220.71 331.13 229.16 307.21 220.09 170.87 170.81"/><polygon class="cls-1" points="170.88 170.79 310.81 208.64 335.61 214.95 310.98 208.01 170.88 170.79"/><polygon class="cls-2" points="170.88 170.79 310.81 208.64 335.61 214.95 310.98 208.01 170.88 170.79"/><polygon class="cls-1" points="170.88 170.78 313.56 196.28 338.81 200.4 313.68 195.63 170.88 170.78"/><polygon class="cls-2" points="170.88 170.78 313.56 196.28 338.81 200.4 313.68 195.63 170.88 170.78"/><polygon class="cls-1" points="170.88 170.76 315.23 183.73 340.73 185.63 315.28 183.07 170.88 170.76"/><polygon class="cls-2" points="170.88 170.76 315.23 183.73 340.73 185.63 315.28 183.07 170.88 170.76"/><polygon class="cls-1" points="170.88 170.75 315.82 171.08 341.39 170.75 315.82 170.42 170.88 170.75"/><polygon class="cls-2" points="170.88 170.75 315.82 171.08 341.39 170.75 315.82 170.42 170.88 170.75"/><polygon class="cls-1" points="170.88 170.73 315.28 158.43 340.73 155.87 315.23 157.77 170.88 170.73"/><polygon class="cls-2" points="170.88 170.73 315.28 158.43 340.73 155.87 315.23 157.77 170.88 170.73"/><polygon class="cls-1" points="170.88 170.72 313.68 145.86 338.81 141.1 313.56 145.22 170.88 170.72"/><polygon class="cls-2" points="170.88 170.72 313.68 145.86 338.81 141.1 313.56 145.22 170.88 170.72"/><polygon class="cls-1" points="170.88 170.7 310.98 133.49 335.61 126.55 310.81 132.85 170.88 170.7"/><polygon class="cls-2" points="170.88 170.7 310.98 133.49 335.61 126.55 310.81 132.85 170.88 170.7"/><polygon class="cls-1" points="170.87 170.68 307.21 121.4 331.13 112.34 306.98 120.78 170.87 170.68"/><polygon class="cls-2" points="170.87 170.68 307.21 121.4 331.13 112.34 306.98 120.78 170.87 170.68"/><polygon class="cls-1" points="170.87 170.67 302.38 109.69 325.42 98.58 302.1 109.09 170.87 170.67"/><polygon class="cls-2" points="170.87 170.67 302.38 109.69 325.42 98.58 302.1 109.09 170.87 170.67"/><polygon class="cls-1" points="170.86 170.66 296.54 98.45 318.53 85.37 296.21 97.88 170.86 170.66"/><polygon class="cls-2" points="170.86 170.66 296.54 98.45 318.53 85.37 296.21 97.88 170.86 170.66"/><polygon class="cls-1" points="170.85 170.64 289.76 87.76 310.52 72.82 289.38 87.22 170.85 170.64"/><polygon class="cls-2" points="170.85 170.64 289.76 87.76 310.52 72.82 289.38 87.22 170.85 170.64"/><polygon class="cls-1" points="170.84 170.63 282.07 77.7 301.45 61 281.65 77.19 170.84 170.63"/><polygon class="cls-2" points="170.84 170.63 282.07 77.7 301.45 61 281.65 77.19 170.84 170.63"/><polygon class="cls-1" points="170.83 170.62 273.54 68.34 291.4 50.02 273.08 67.87 170.83 170.62"/><polygon class="cls-2" points="170.83 170.62 273.54 68.34 291.4 50.02 273.08 67.87 170.83 170.62"/><polygon class="cls-1" points="170.82 170.61 264.23 59.77 280.41 39.96 263.72 59.34 170.82 170.61"/><polygon class="cls-2" points="170.82 170.61 264.23 59.77 280.41 39.96 263.72 59.34 170.82 170.61"/><polygon class="cls-1" points="170.81 170.6 254.2 52.03 268.6 30.89 253.66 51.65 170.81 170.6"/><polygon class="cls-2" points="170.81 170.6 254.2 52.03 268.6 30.89 253.66 51.65 170.81 170.6"/><polygon class="cls-1" points="170.79 170.59 243.54 45.2 256.05 22.87 242.98 44.87 170.79 170.59"/><polygon class="cls-2" points="170.79 170.59 243.54 45.2 256.05 22.87 242.98 44.87 170.79 170.59"/><polygon class="cls-1" points="170.78 170.58 232.34 39.31 242.85 15.98 231.74 39.03 170.78 170.58"/><polygon class="cls-2" points="170.78 170.58 232.34 39.31 242.85 15.98 231.74 39.03 170.78 170.58"/><polygon class="cls-1" points="170.76 170.57 220.65 34.43 229.09 10.27 220.03 34.2 170.76 170.57"/><polygon class="cls-2" points="170.76 170.57 220.65 34.43 229.09 10.27 220.03 34.2 170.76 170.57"/><polygon class="cls-1" points="170.75 170.57 208.58 30.59 214.89 5.79 207.95 30.42 170.75 170.57"/><polygon class="cls-2" points="170.75 170.57 208.58 30.59 214.89 5.79 207.95 30.42 170.75 170.57"/><polygon class="cls-1" points="170.73 170.56 196.22 27.84 200.34 2.59 195.58 27.73 170.73 170.56"/><polygon class="cls-2" points="170.73 170.56 196.22 27.84 200.34 2.59 195.58 27.73 170.73 170.56"/><polygon class="cls-1" points="170.72 170.56 183.68 26.18 185.58 0.67 183.02 26.12 170.72 170.56"/><polygon class="cls-2" points="170.72 170.56 183.68 26.18 185.58 0.67 183.02 26.12 170.72 170.56"/><polygon class="cls-1" points="170.7 170.56 171.03 25.59 170.7 0.01 170.37 25.59 170.7 170.56"/><polygon class="cls-2" points="170.7 170.56 171.03 25.59 170.7 0.01 170.37 25.59 170.7 170.56"/><polygon class="cls-1" points="170.68 170.56 158.38 26.12 155.82 0.67 157.72 26.18 170.68 170.56"/><polygon class="cls-2" points="170.68 170.56 158.38 26.12 155.82 0.67 157.72 26.18 170.68 170.56"/><polygon class="cls-1" points="170.67 170.56 145.82 27.73 141.06 2.59 145.18 27.84 170.67 170.56"/><polygon class="cls-2" points="170.67 170.56 145.82 27.73 141.06 2.59 145.18 27.84 170.67 170.56"/><polygon class="cls-1" points="170.65 170.57 133.45 30.42 126.51 5.79 132.82 30.59 170.65 170.57"/><polygon class="cls-2" points="170.65 170.57 133.45 30.42 126.51 5.79 132.82 30.59 170.65 170.57"/><polygon class="cls-1" points="170.64 170.57 121.36 34.2 112.31 10.27 120.75 34.43 170.64 170.57"/><polygon class="cls-2" points="170.64 170.57 121.36 34.2 112.31 10.27 120.75 34.43 170.64 170.57"/><polygon class="cls-1" points="170.62 170.58 109.66 39.03 98.55 15.98 109.06 39.31 170.62 170.58"/><polygon class="cls-2" points="170.62 170.58 109.66 39.03 98.55 15.98 109.06 39.31 170.62 170.58"/><polygon class="cls-1" points="170.61 170.59 98.42 44.87 85.35 22.87 97.85 45.2 170.61 170.59"/><polygon class="cls-2" points="170.61 170.59 98.42 44.87 85.35 22.87 97.85 45.2 170.61 170.59"/><polygon class="cls-1" points="170.59 170.6 87.73 51.65 72.8 30.89 87.2 52.03 170.59 170.6"/><polygon class="cls-2" points="170.59 170.6 87.73 51.65 72.8 30.89 87.2 52.03 170.59 170.6"/><polygon class="cls-1" points="170.58 170.61 77.68 59.34 60.99 39.96 77.17 59.77 170.58 170.61"/><polygon class="cls-2" points="170.58 170.61 77.68 59.34 60.99 39.96 77.17 59.77 170.58 170.61"/><polygon class="cls-1" points="170.57 170.62 68.32 67.87 50 50.02 67.86 68.34 170.57 170.62"/><polygon class="cls-2" points="170.57 170.62 68.32 67.87 50 50.02 67.86 68.34 170.57 170.62"/><polygon class="cls-1" points="170.56 170.63 59.75 77.19 39.95 61 59.33 77.7 170.56 170.63"/><polygon class="cls-2" points="170.56 170.63 59.75 77.19 39.95 61 59.33 77.7 170.56 170.63"/><polygon class="cls-1" points="170.55 170.64 52.02 87.22 30.88 72.82 51.64 87.76 170.55 170.64"/><polygon class="cls-2" points="170.55 170.64 52.02 87.22 30.88 72.82 51.64 87.76 170.55 170.64"/><polygon class="cls-1" points="170.54 170.66 45.18 97.88 22.87 85.37 44.85 98.45 170.54 170.66"/><polygon class="cls-2" points="170.54 170.66 45.18 97.88 22.87 85.37 44.85 98.45 170.54 170.66"/><polygon class="cls-1" points="170.53 170.67 39.3 109.09 15.98 98.58 39.02 109.69 170.53 170.67"/><polygon class="cls-2" points="170.53 170.67 39.3 109.09 15.98 98.58 39.02 109.69 170.53 170.67"/><polygon class="cls-1" points="170.53 170.68 34.42 120.78 10.27 112.34 34.19 121.4 170.53 170.68"/><polygon class="cls-2" points="170.53 170.68 34.42 120.78 10.27 112.34 34.19 121.4 170.53 170.68"/><polygon class="cls-1" points="170.52 170.7 30.59 132.85 5.79 126.55 30.41 133.49 170.52 170.7"/><polygon class="cls-2" points="170.52 170.7 30.59 132.85 5.79 126.55 30.41 133.49 170.52 170.7"/><polygon class="cls-1" points="170.52 170.72 27.84 145.22 2.59 141.1 27.72 145.86 170.52 170.72"/><polygon class="cls-2" points="170.52 170.72 27.84 145.22 2.59 141.1 27.72 145.86 170.52 170.72"/><polygon class="cls-1" points="170.51 170.73 26.17 157.77 0.67 155.87 26.11 158.43 170.51 170.73"/><polygon class="cls-2" points="170.51 170.73 26.17 157.77 0.67 155.87 26.11 158.43 170.51 170.73"/><polygon class="cls-1" points="170.51 170.75 25.58 170.42 0.01 170.75 25.58 171.08 170.51 170.75"/><polygon class="cls-2" points="170.51 170.75 25.58 170.42 0.01 170.75 25.58 171.08 170.51 170.75"/></g></g></svg>