<?xml version="1.0" encoding="UTF-8"?> <svg xmlns="http://www.w3.org/2000/svg" viewBox="0 0 932.06 195.45"> <defs> <style>.cls-1{fill:#9ba66d;}.cls-2{fill:#fff;}</style> </defs> <g id="Capa_2" data-name="Capa 2"> <g id="Capa_1-2" data-name="Capa 1"> <rect class="cls-1" y="22.3" width="932.06" height="30.53"></rect> <rect class="cls-1" x="244.46" y="164.93" width="443.14" height="30.53"></rect> <path class="cls-2" d="M893.16,39.46h7.37V31.87h-7.37Zm-14.9,0h7.36V31.87h-7.36Zm-14.91,0h7.37V31.87h-7.37Zm-29.42-6.1V20.56h8.65c5.15,0,8.09,2.16,8.09,6.15,0,4.38-2.94,6.65-8,6.65Zm-6.76,6.1H842.8c9,0,14.62-4.88,14.62-12.69s-5.87-12.14-14.57-12.14h-8.92V.67h-6.76Zm-42.1,0h6.81V23.11h18.51V39.46h6.81V.67h-6.81V16.79H791.88V.67h-6.81ZM762.46,0a20.09,20.09,0,0,0-15,5.87l3.66,4.44A14.64,14.64,0,0,1,762,6c4.32,0,7.31,2.16,7.31,5.43,0,3.65-3,5.65-8,5.65H757v5.65h4.38c5,0,8.86,1.66,8.86,5.65,0,3.66-3.49,5.82-7.59,5.82A17.85,17.85,0,0,1,749.78,29l-3.72,4.71c4.33,4.16,9.26,6.37,16.79,6.37,8.64,0,14.24-4.93,14.24-11.36,0-5-3.27-8-7.59-9.31,3.43-1.44,6.59-4,6.59-9C776.09,4.38,770.5,0,762.46,0Zm-55.9,39.46H713l19.55-28.27V39.46h6.71V.67h-6.37L713.26,29V.67h-6.7Zm-31.69,0V29.15L681,22.22l11.58,17.24h8.2L685.4,17.18,700,.67h-8.15l-17,20.17V.67h-6.76V20.84L651.16.67H643l14.52,16.51L642.24,39.46h8.2L662,22.22l6.09,6.93V39.46ZM602.9,34c-6.87,0-11.69-6.15-11.69-13.91s4.71-13.85,11.58-13.85,11.75,6.09,11.75,13.85S609.77,34,602.9,34Zm-.11,6.15c11.08,0,18.73-8.92,18.73-20.06S613.93,0,602.9,0c-10,0-17.23,7.32-18.5,16.9H578V.67h-6.82V39.46H578V23h6.37C585.56,32.81,592.71,40.12,602.79,40.12Zm-60.11-6.26c-7.7,0-13.19-6.26-13.19-13.8s5.38-13.8,13.08-13.8,13.18,6.26,13.18,13.8S550.38,33.86,542.68,33.86Zm-.11,6.26A19.87,19.87,0,0,0,562.9,20.06a20.28,20.28,0,0,0-40.56,0A19.72,19.72,0,0,0,542.57,40.12Zm-51.81-6.7V22.78h10.81c5.37,0,8,1.94,8,5.21,0,3.6-2.83,5.43-7.48,5.43Zm0-16.41V6.71h9.81c4.38,0,6.82,1.88,6.82,4.93,0,3.66-2.94,5.37-7.32,5.37Zm-6.7,22.45H502c8.64,0,14.35-3.71,14.35-10.64,0-5.38-3.16-8-7.7-9.53,2.88-1.5,5.54-4,5.54-8.65a8.81,8.81,0,0,0-2.6-6.54C509.38,1.88,505.89.67,501.46.67h-17.4Zm-22.88.66c7.26,0,11.69-2.66,15.73-6.87l-4.37-4.43c-3.33,3.1-6.38,5-11.14,5-7.42,0-12.8-6.21-12.8-13.8S454,6.26,461.4,6.26c4.43,0,7.76,1.94,10.86,4.82l4.38-5a20.22,20.22,0,0,0-15.18-6c-11.75,0-20,9-20,20.06C441.46,31.31,449.88,40.12,461.18,40.12Zm-65.27-6.76V20.56h8.65c5.15,0,8.09,2.16,8.09,6.15,0,4.38-2.94,6.65-8,6.65Zm-6.76,6.1h15.63c9,0,14.62-4.88,14.62-12.69s-5.87-12.14-14.57-12.14h-8.92V.67h-6.76Zm-26.37,0h6.87V7H382V.67H350.48V7h12.3Zm-52.24,0H317l19.56-28.27V39.46h6.7V.67h-6.37L317.24,29V.67h-6.7Zm-31.69,0V29.15l6.09-6.93,11.58,17.24h8.2L289.37,17.18,303.94.67H295.8L278.85,20.84V.67h-6.76V20.84L255.13.67H247L261.5,17.18,246.21,39.46h8.2L266,22.22l6.1,6.93V39.46ZM207,20.12c-4.88,0-8-2.61-8-6.65,0-4.21,3.05-6.65,8.15-6.65H217v13.3ZM190.75,39.46h8l9.64-13.41H217V39.46h6.75V.67H206.54c-9,0-14.46,4.82-14.46,12.35,0,6.43,3.83,10.37,9.26,11.86Zm-45.09,0h6.7V11.75l12.13,18.18h.22L177,11.64V39.46h6.81V.67h-7.25L164.71,19,152.91.67h-7.25Zm-37.12,0h29v-6.1H115.35V22.94H134.8V16.85H115.35V6.76h21.94V.67H108.54ZM78.34,20.84v-14h7.92c5.1,0,8.37,2.39,8.37,6.93,0,4.16-3.21,7-8.37,7ZM71.53,39.46h6.81V27H86c8.53,0,15.51-4.54,15.51-13.25,0-7.92-5.7-13.07-14.73-13.07H71.53Zm-33.3-6V22.78H49c5.38,0,8,1.94,8,5.21,0,3.6-2.83,5.43-7.48,5.43Zm0-16.41V6.71H48c4.38,0,6.82,1.88,6.82,4.93,0,3.66-2.94,5.37-7.31,5.37ZM31.52,39.46h18c8.64,0,14.34-3.71,14.34-10.64,0-5.38-3.15-8-7.7-9.53,2.88-1.5,5.54-4,5.54-8.65a8.77,8.77,0,0,0-2.6-6.54C56.84,1.88,53.35.67,48.92.67H31.52Z"></path> <path class="cls-2" d="M624.76,184.17a28.32,28.32,0,0,1-21.09-8.59,30.71,30.71,0,0,1,0-42.31q8.46-8.64,21.54-8.64a29.12,29.12,0,0,1,12.58,2.43,35.89,35.89,0,0,1,9.7,6.95L640,142.73a29.11,29.11,0,0,0-7-4.9,18.47,18.47,0,0,0-7.85-1.52,15.46,15.46,0,0,0-12,5.22,19.85,19.85,0,0,0,0,25.7,15.4,15.4,0,0,0,12,5.27,17.91,17.91,0,0,0,8-1.65,30.7,30.7,0,0,0,7.15-5.1l8.06,8.64a30.85,30.85,0,0,1-10.15,7.4,33.64,33.64,0,0,1-13.44,2.38M550.6,159.09h15.29l-7.65-18.67Zm-22.69,24.1,24.66-58h11.68l24.66,58H575.67l-5.26-12.91H546.08l-5.26,12.91Zm-21.54,0V161.72Q497.66,166,491.16,166q-9,0-14.14-4.85t-5.18-14.48v-21H484.5V143q0,11.19,9.29,11.19,7.81,0,12.58-3.7V125.62H519v57.57ZM443.88,118a13.23,13.23,0,0,1-9.29,3.29,13.4,13.4,0,0,1-9.33-3.29,14.58,14.58,0,0,1-4.48-9.21l7.32-1.31q1.72,5.51,6.49,5.51t6.5-5.51l7.32,1.31A14.48,14.48,0,0,1,443.88,118Zm15.3,7.65v57.57h-12.5V145.44l-25.16,37.75H409.6V125.62h12.5v37.75l25.32-37.75ZM354.52,183.19V125.62h43.41v11.27H367.1v11.68h27.13v11.26H367.1v12.09h31.24v11.27Zm-33.71,1a28.32,28.32,0,0,1-21.09-8.59,30.71,30.71,0,0,1,0-42.31q8.48-8.64,21.54-8.64a29.12,29.12,0,0,1,12.58,2.43,35.89,35.89,0,0,1,9.7,6.95L336,142.73a28.91,28.91,0,0,0-6.95-4.9,18.44,18.44,0,0,0-7.85-1.52,15.44,15.44,0,0,0-12,5.22,19.82,19.82,0,0,0,0,25.7,15.38,15.38,0,0,0,12,5.27,17.91,17.91,0,0,0,8-1.65,30.74,30.74,0,0,0,7.16-5.1l8,8.64a30.75,30.75,0,0,1-10.15,7.4A33.61,33.61,0,0,1,320.81,184.17Z"></path> </g> </g> </svg> 