<?xml version="1.0" encoding="UTF-8"?> <svg xmlns="http://www.w3.org/2000/svg" viewBox="0 0 95.54 94.6"> <defs> <style>.cls-1,.cls-2{fill:#010101;}.cls-2{fill-rule:evenodd;}.cls-3{fill:none;stroke:#010101;stroke-miterlimit:22.93;stroke-width:0.57px;}</style> </defs> <g id="Capa_2" data-name="Capa 2"> <g id="Capa_1-2" data-name="Capa 1"> <path class="cls-1" d="M60.18,90.51c.76-.22,1.39,0,1.57.63s-.2,1.13-1,1.36L59.18,93l-.57-2Zm2.1-4.21-1.75.51-.91,2.64-1.34.39-.63-2.2-1.5.43L58,94.6l3.28-.95c1.64-.47,2.32-1.6,2-2.87a2.06,2.06,0,0,0-2.09-1.51ZM69.08,83l-1.31.65-.9,5.49-2-4.06-1.35.66,3,6.1,1.31-.65c.3-1.84.59-3.67.88-5.51l2,4.09,1.36-.67Zm6.42-4.82-1.23,1,3.34,4.31-2.32,1.81L71.94,81l-1.23,1,4.17,5.37,4.78-3.71Zm4.19-.84a1.59,1.59,0,0,1,.09-2.3c.48-.55,1.13-.76,1.62-.34s.44,1.15-.2,1.89a4.27,4.27,0,0,1-1.22,1Zm-2.85-.47,3,2.63c1.38,1.19,2.81,1.14,4.12-.38a5.73,5.73,0,0,0,1.26-2.33l-1.22-.49a4.67,4.67,0,0,1-1,1.74,1.42,1.42,0,0,1-2.19.32l-.1-.08a5.71,5.71,0,0,0,1.45-1.24c1-1.2,1.25-2.56.11-3.54a2.18,2.18,0,0,0-3.19.45,2.76,2.76,0,0,0-.7,2.3l-.63-.55Zm7.53-8a2.2,2.2,0,1,1,.95,2.77A2,2,0,0,1,84.37,68.84Zm-1.12-4.66-.77,1.35,2.71,1.54A2.79,2.79,0,0,0,83,68.48,3.57,3.57,0,0,0,89.17,72a2.75,2.75,0,0,0,0-2.64l1,.56L91,68.55Zm7.68-4a1.83,1.83,0,0,1,1.13,2.24,1.75,1.75,0,0,1-2.24,1.06Zm-4.43.56a3.42,3.42,0,0,0,.32,3l1.06-.61a2.46,2.46,0,0,1-.19-2A1.9,1.9,0,0,1,90,59.88l-1.59,4.73a3.17,3.17,0,0,0,.41.17c1.85.62,3.81.13,4.5-1.92a3.55,3.55,0,0,0-6.77-2.1Zm1.92-7.59-.25,1.55,5.39.86-.35,2.16,1.33.21.93-5.88-1.32-.21L93.8,54Zm3.47-10.81c-.09-.79.24-1.37.89-1.44s1.08.39,1.16,1.21l.18,1.63L92.06,44Zm-3.79-2.8.2,1.82,2.45,1.35.15,1.38-2.28.25.17,1.55,6.75-.74-.36-3.39c-.19-1.7-1.19-2.56-2.49-2.42a2.05,2.05,0,0,0-1.85,1.79Zm1.55-3.39c-.81.26-1.6-.3-1.91-1.28-.22-.7,0-1.36.57-1.56s1.2.23,1.5,1.16A4.69,4.69,0,0,1,90,36.06Zm-1.89,2.18,3.84-1.21c1.73-.55,2.44-1.8,1.83-3.72a5.72,5.72,0,0,0-1.32-2.29l-1.06.78a4.63,4.63,0,0,1,1,1.72c.33,1,0,1.75-.88,2l-.12,0a5.71,5.71,0,0,0-.3-1.88c-.47-1.51-1.51-2.41-2.95-1.95a2.17,2.17,0,0,0-1.29,2.94,2.78,2.78,0,0,0,1.59,1.81l-.8.25Zm-5-12,.71,1.36,1.45-.75,1.55.43-1.53,3.13.86,1.63L88,27.75l3.75,1-.85-1.62L86.61,26l2.88-1.51-.72-1.37ZM80.21,23a3.43,3.43,0,0,0,2.71,1.42l.15-1.31a2.4,2.4,0,0,1-1.75-.87,2.07,2.07,0,0,1,.49-2.95l0,0a2,2,0,0,1,2.9.23,2.26,2.26,0,0,1,.41,1.91l1.42.12a3.4,3.4,0,0,0-.74-2.86,3.51,3.51,0,0,0-5-.61h0A3.47,3.47,0,0,0,80.21,23ZM76.1,13a1.83,1.83,0,0,1,2.5-.2,1.76,1.76,0,0,1,.14,2.48Zm-1.16,4.32a3.42,3.42,0,0,0,2.94.85L77.72,17a2.45,2.45,0,0,1-1.93-.59,1.89,1.89,0,0,1-.35-2.58l3.78,3.26c.06-.05.24-.24.3-.31,1.28-1.49,1.56-3.49-.07-4.9a3.38,3.38,0,0,0-4.83.51A3.41,3.41,0,0,0,74.94,17.34Zm-5.18-4.11,1.34.8,3.5-5.82L73.26,7.4,71.72,10a3.6,3.6,0,0,1-1.66-.47,1.13,1.13,0,0,1-.35-1.59L70.88,6l-1.34-.8L68.19,7.43a2.07,2.07,0,0,0,.88,3,4.93,4.93,0,0,0,2,.6Zm-11.07-5,1.46.53.94-2.58,2.81,1L63,9.75l1.46.53L66.75,3.9l-1.46-.53L64.35,6l-2.82-1,.94-2.59L61,1.81Zm-5.91-5a1.85,1.85,0,0,1,2-1.49,1.78,1.78,0,0,1,1.42,2ZM54.07,7.5a3.48,3.48,0,0,0,3-.82l-.78-.95a2.44,2.44,0,0,1-1.94.51,1.89,1.89,0,0,1-1.66-2L57.57,5c0-.08.07-.33.09-.43C58,2.66,57.15.81,55,.47a3.36,3.36,0,0,0-3.83,3A3.39,3.39,0,0,0,54.07,7.5Zm-9.8-1.89a7.74,7.74,0,0,0,.52-3.24l0-.9L47,1.39l.14,4.12ZM42.05,8.66l1.3,0L43.45,7l4.75-.17.06,1.63,1.3,0,.1-3-1,0L48.5,0,43.25.19l0,.83a10.79,10.79,0,0,1-.6,4.65l-.73,0Zm-6.62-4a1.85,1.85,0,0,1,1.31-2.15,1.76,1.76,0,0,1,2.08,1.35Zm2.81,3.47a3.41,3.41,0,0,0,2.42-1.87l-1.08-.58A2.48,2.48,0,0,1,38,6.89a1.9,1.9,0,0,1-2.3-1.23l4.86-1.15a4,4,0,0,0-.08-.43c-.45-1.9-1.9-3.31-4-2.81A3.36,3.36,0,0,0,34,5.47,3.39,3.39,0,0,0,38.24,8.13ZM27.93,7.48,27.26,6l1.47-.67c.63-.3,1-.12,1.22.28s0,.91-.57,1.19ZM29.08,10l-.71-1.55,1.53-.7c.76-.35,1.26-.22,1.47.23s0,1-.69,1.28Zm-.87,1.76,3.2-1.48c1.4-.64,2-1.68,1.51-2.72a1.67,1.67,0,0,0-2-1,1.63,1.63,0,0,0,.35-1.88c-.44-.94-1.52-1.17-2.75-.6L25.37,5.57Zm-5.07,1.87a2.11,2.11,0,0,1-3-.53,2,2,0,0,1,.36-3,2.09,2.09,0,0,1,3,.52A2.06,2.06,0,0,1,23.14,13.61Zm.78,1.11a3.55,3.55,0,0,0,.83-5,3.51,3.51,0,0,0-5-.72,3.55,3.55,0,1,0,4.18,5.73Zm-8.27,7.55,1-1.15-4-3.67,2-2.18,4,3.67,1-1.16-5-4.56-4.07,4.49ZM9.9,25.06,12,21.89,10.74,21,8.63,24.21Zm-.66,5.7a2.12,2.12,0,0,1-2.85,1A2,2,0,0,1,5.23,29a2.1,2.1,0,0,1,2.85-1A2.06,2.06,0,0,1,9.24,30.76Zm1.22.57a3.55,3.55,0,0,0-1.75-4.76A3.51,3.51,0,0,0,4,28.42a3.55,3.55,0,0,0,1.76,4.76A3.51,3.51,0,0,0,10.46,31.33ZM7.14,42.09l.32-1.53L4.78,40l.61-2.93,2.68.56.32-1.53L1.74,34.72l-.32,1.52,2.7.56-.61,2.94-2.7-.56L.49,40.7Zm-4.31,6-1.61,0,0-1.63c0-.69.35-1,.79-1s.83.38.82,1Zm2.75,0-1.7,0,0-1.68c0-.84.35-1.23.84-1.23s.87.41.86,1.17Zm1.21,1.54,0-3.52c0-1.55-.66-2.52-1.8-2.54A1.67,1.67,0,0,0,3.32,45a1.62,1.62,0,0,0-1.54-1.11c-1,0-1.71.86-1.73,2.21l0,3.49Zm1.09,8.09-.23-1.45-5-2.48,4.47-.71-.23-1.48L.2,52.7l.23,1.45,5,2.46-4.5.71.24,1.5Zm1.65,4.73L9,61l-5.11,1.9-.76-2.05-1.25.47,2.07,5.57,1.25-.47-.76-2ZM13.91,71l-.74-1.26-5.54-.48L11.53,67l-.77-1.29L4.91,69.14l.75,1.27,5.55.45L7.29,73.18l.77,1.3Zm5.14,6.23-1-1.18L16,77.86l-2-2.27,2.07-1.79-1-1.18L9.92,77.05l1,1.18L13,76.43l2,2.28L12.88,80.5l1,1.18Zm4.69,3.84-1.2-1-3.46,4.22-2.52-2.07-.85,1,3.72,3Zm3.88,3.77a2.1,2.1,0,0,1,.79,2.9,2,2,0,0,1-2.84,1,2.09,2.09,0,0,1-.8-2.91A2.06,2.06,0,0,1,27.62,84.87Zm.66-1.18a3.54,3.54,0,1,0,1.5,4.82A3.55,3.55,0,0,0,28.28,83.69Zm9.64,4-1.47-.46L36,88.77l-1.4.79-1.14-3.29-1.75-.54,1.56,4.6-3.36,2,1.74.54,3.79-2.23-1,3.11,1.47.46Z"></path> <path class="cls-1" d="M30.29,30.35a24.61,24.61,0,1,1-7.21,17.41,24.55,24.55,0,0,1,7.21-17.41M47.69,24a23.73,23.73,0,1,0,16.77,7A23.65,23.65,0,0,0,47.69,24Z"></path> <path class="cls-1" d="M28.88,38.55a19.82,19.82,0,1,1-5.8,14,19.78,19.78,0,0,1,5.8-14m14-4.91a18.91,18.91,0,1,0,13.38,5.54A18.86,18.86,0,0,0,42.89,33.64Z"></path> <path class="cls-1" d="M27.46,46.84a15,15,0,1,1-4.38,10.57,14.91,14.91,0,0,1,4.38-10.57M38,43.35A14.07,14.07,0,1,0,48,47.47,14,14,0,0,0,38,43.35Z"></path> <path class="cls-2" d="M47.57,90.54a1.54,1.54,0,1,1,0,3.07,1.54,1.54,0,0,1,0-3.07Z"></path> <path class="cls-3" d="M47.57,90.54a1.54,1.54,0,1,1,0,3.07,1.54,1.54,0,0,1,0-3.07Z"></path> </g> </g> </svg> 