<?xml version="1.0" encoding="UTF-8"?> <!-- Generator: Adobe Illustrator 24.0.1, SVG Export Plug-In . SVG Version: 6.00 Build 0) --> <svg xmlns="http://www.w3.org/2000/svg" xmlns:xlink="http://www.w3.org/1999/xlink" id="Layer_1" x="0px" y="0px" viewBox="0 0 315.6 154.4" style="enable-background:new 0 0 315.6 154.4;" xml:space="preserve"> <style type="text/css"> .st0{fill:#FFFFFF;} .st1{fill-rule:evenodd;clip-rule:evenodd;fill:#FFFFFF;} </style> <title>Asset 4@10x</title> <g id="Layer_2_1_"> <g id="Layer_1-2"> <path class="st0" d="M0,154.4V0h51.8v6.1H11.1v101.7h40.8v6.4H11.1v40.3H0z"></path> <path class="st0" d="M110.6,136.8c0-6.1,0.2-10.1-3.2-15.2c-4.2-4.4-8.4-7.5-14.5-7.5H79.2v40.3H68V0h25c8.7-0.1,17,4,22.1,11 c4,5.1,6.2,11.4,6,17.9v56.7c0,3.7-0.7,7.3-2,10.7c-1.1,3.3-3,6.2-5.4,8.7c-2.3,2.5-5,4.5-8,6c4.7,2.4,8.6,6.1,11.2,10.7 c2.9,4.4,4.4,9.5,4.3,14.7v18.1h-10.6V136.8z M79.2,6.3v101.4H93c6.1,0,9.4-3.6,13.6-7.8c3.3-5,3.8-8.2,3.8-14.3V28.8 c0-6.1-0.5-9.5-3.8-14.6c-4.3-4.6-7.5-7.9-13.6-7.9H79.2z"></path> <path class="st0" d="M138.5,154.4L136.8,0h52.4v6.1h-40.5v101.7h40.5v6.4h-40.5v34.3h40.5v6L138.5,154.4z"></path> <path class="st1" d="M315.6,154.4h-11.1l-6.6-40.3h-30.2l-5,40.3h-10.9L276.1,0H287L315.6,154.4z M297.1,108.3h-28.5L282,26 L297.1,108.3z"></path> <path class="st0" d="M232.4,154.4h-11.8v-47L203,0h7.6l15.9,94l16-94h7.4l-17.6,107.4V154.4z"></path> </g> </g> </svg> 