<?xml version="1.0" encoding="UTF-8"?> <svg xmlns="http://www.w3.org/2000/svg" viewBox="0 0 106.8 52.28"> <defs> <style>.cls-1,.cls-2{fill:#010101;}.cls-2{fill-rule:evenodd;}</style> </defs> <g id="Capa_2" data-name="Capa 2"> <g id="Capa_1-2" data-name="Capa 1"> <polygon class="cls-1" points="0 52.28 0 0 17.54 0 17.54 2.05 3.74 2.05 3.74 36.47 17.54 36.47 17.54 38.64 3.74 38.64 3.74 52.28 0 52.28"></polygon> <path class="cls-1" d="M37.44,46.32c0-2.08.05-3.41-1.08-5.16-1.43-1.5-2.84-2.54-4.9-2.54H26.8V52.26H23V0h8.45a9.07,9.07,0,0,1,7.48,3.71,9.33,9.33,0,0,1,2,6.05V29a9.94,9.94,0,0,1-.68,3.62,7.61,7.61,0,0,1-1.85,2.92,9.12,9.12,0,0,1-2.72,2,9.16,9.16,0,0,1,3.79,3.61,8.9,8.9,0,0,1,1.46,5v6.12H37.44ZM26.8,2.15V36.47h4.66c2.08,0,3.19-1.23,4.61-2.66A7.22,7.22,0,0,0,37.38,29V9.76a7.47,7.47,0,0,0-1.31-4.93c-1.42-1.56-2.53-2.68-4.61-2.68Z"></path> <polygon class="cls-1" points="46.87 52.28 46.3 0 64.03 0 64.03 2.05 50.33 2.05 50.33 36.47 64.03 36.47 64.03 38.64 50.33 38.64 50.33 50.25 64.03 50.25 64.03 52.28 46.87 52.28"></polygon> <path class="cls-2" d="M106.8,52.28h-3.74l-2.22-13.64H90.61l-1.7,13.64H85.22L93.45,0h3.7Zm-6.25-15.63H90.9L95.44,8.81Z"></path> <polygon class="cls-1" points="78.64 52.28 74.67 52.28 74.67 36.37 68.7 0 71.29 0 76.69 31.82 82.08 0 84.61 0 78.64 36.37 78.64 52.28"></polygon> </g> </g> </svg> 