<svg xmlns="http://www.w3.org/2000/svg" viewBox="0 0 78.22 92.51"><defs><style>.cls-1{fill:#516828;}</style></defs><g id="Layer_2" data-name="Layer 2"><g id="Слой_1" data-name="Слой 1"><path class="cls-1" d="M63.58,14.64A34.61,34.61,0,0,0,4.5,39.11c1.41,15.78,6.76,16.48,10,30.34C16,76.28,20.79,90.87,30.57,86.81c5.16-2.14,8.62-13.07,12.49-18.48C52.13,55.67,67.35,52,71.63,46c6-8.41-.72-22.7-6.58-29.64Zm-5,5A27.48,27.48,0,0,0,11.63,39.11c1.27,12,5.64,13.8,7.21,24.43,1.33,9.06,5.34,21.88,14.76,9.74C44.3,59.49,47.2,57.11,60.75,47.07c6.87-5.08,7.11-10.71,3.8-18.37A33.29,33.29,0,0,0,58.54,19.68ZM39.11,7.13A31.87,31.87,0,0,1,61.72,16.5C68.38,24.53,77,40,65.87,48.08c-9,6.53-15,7.77-22.68,17.55C39,71,33.1,84.76,26.26,84.12c-10.2-1-8.83-19.33-13.06-26.14l-.61-1C8.71,51.23,7.4,46,7.13,39.11a32,32,0,0,1,32-32ZM53.54,24.68A20.4,20.4,0,0,0,18.71,39.11c1.1,8.41,3.89,11.07,5.29,19.51C27,77,36.89,61,44.47,54c9.86-9.11,21.3-12.55,10.67-27.35ZM39.11,14.2a24.82,24.82,0,0,1,17.61,7.3c4.66,5.93,10.66,15.82,4.37,22.7-3.32,3.62-12,9.09-16.81,13.81-8.11,7.93-20.25,29.7-23.7,3.76-1.37-10.34-5.19-11.54-6.38-22.66A24.92,24.92,0,0,1,39.11,14.2ZM48.6,29.62a13.43,13.43,0,0,0-22.92,9.49c.42,3.35,3.33,17.5,8,17.09,3.69-.32,18-13.72,18.53-18.06C52.6,34.8,50.62,32,48.6,29.62Zm-9.49-8.44a17.87,17.87,0,0,1,12.67,5.25C63,41.44,51.64,45,41,55.31,29.72,66.14,28.41,67.18,25,52.43c-1.34-5.75-3-6.26-3.79-13.32A17.92,17.92,0,0,1,39.11,21.18Zm0,11.31a6.57,6.57,0,0,0-4.68,1.94c-2.54,4-2.94,7.71.78,11.29C40,50.33,53.05,34.54,39.11,32.49Zm0-4.51A11.09,11.09,0,0,1,47,31.24C52.53,39.55,48,43.64,41.31,49,31,57.13,31.5,50.36,28.54,42.63A11.76,11.76,0,0,1,28,39.11,11.11,11.11,0,0,1,39.11,28Zm-3.8,13.76c-3.59-10,11.82-8.06,7.18-.84C40.39,44.17,37.7,45.25,35.31,41.74ZM39.11,0A39.11,39.11,0,0,1,78.22,39.11c-1.61,15-8.64,13-20.22,19.91C46.86,65.63,43.77,71.57,39.36,83.3c-5.87,15.57-19.65,9.48-25.16-4.08-2.2-5.4-3.09-10.28-5.85-15.69C2.34,53.3.72,51.68,0,39.11A39.09,39.09,0,0,1,39.11,0Z"/></g></g></svg>