<?xml version="1.0" encoding="UTF-8"?> <svg xmlns="http://www.w3.org/2000/svg" viewBox="0 0 335.36 335.46"> <defs> <style>.cls-1,.cls-2{fill:#536929;}.cls-2{fill-rule:evenodd;}</style> </defs> <g id="Capa_2" data-name="Capa 2"> <g id="Capa_1-2" data-name="Capa 1"> <path class="cls-1" d="M333.16,2.21H2.21v331h331ZM1.1,0H335.36V335.46H0Q.06,167.73,0,0Z"></path> <path class="cls-1" d="M195,285.9V271.48h3.42l3.78,6.1,3.79-6.1h3.42V285.9h-3.15v-9.41l-4.06,6.15h-.08l-4-6.09v9.35Zm-9.86-7.42h3.21v-4.14h-3.15a2.81,2.81,0,0,0-1.83.54,1.9,1.9,0,0,0-.66,1.56,1.84,1.84,0,0,0,.65,1.49A2.63,2.63,0,0,0,185.1,278.48Zm6.38-7V285.9h-3.17v-4.62h-2.49l-3.09,4.62H179l3.52-5.15a4.87,4.87,0,0,1-1.63-8,5.82,5.82,0,0,1,4-1.27ZM173,274.34h-4.26v1.47a18.75,18.75,0,0,1-1.3,7.22H173ZM162.7,288.9V283h1.36a17.68,17.68,0,0,0,1.21-4.14,35.11,35.11,0,0,0,.37-5.72v-1.69h10.48V283h1.73l-.41,5.87h-2.66v-3h-9l-.21,3Zm-8.3-5.64a3.27,3.27,0,0,0,2.69-1.3,5.06,5.06,0,0,0,1-3.27,5,5,0,0,0-1.06-3.24,3.46,3.46,0,0,0-5.4,0,5.63,5.63,0,0,0,0,6.52A3.29,3.29,0,0,0,154.4,283.26Zm0,2.88a6.6,6.6,0,0,1-4.6-1.7,7.24,7.24,0,0,1-2.32-4.37h-2v5.83H142.3V271.48h3.17v5.75h2a7.27,7.27,0,0,1,2.36-4.31,6.7,6.7,0,0,1,4.58-1.69,6.56,6.56,0,0,1,5,2.15,8.11,8.11,0,0,1,0,10.61A6.57,6.57,0,0,1,154.36,286.14Zm-25.81-14.66h10.29V285.9h-3.17V274.34h-4.16v1.1A33.15,33.15,0,0,1,131,282a6.12,6.12,0,0,1-1.48,3.22,3.82,3.82,0,0,1-2.69.88,6.77,6.77,0,0,1-1.67-.18l.21-2.62a3.1,3.1,0,0,0,.49,0A2,2,0,0,0,127,283a2.71,2.71,0,0,0,.83-1.2,9.9,9.9,0,0,0,.54-2.71c.11-1.2.17-2.75.17-4.64Zm131.35-8.89V248.17h3.42l3.78,6.1,3.79-6.1h3.42v14.42h-3.15v-9.42l-4.06,6.16H267l-4-6.09v9.35Zm-3.46-14.42v14.42h-3.13v-9.46l-6.3,9.46h-3V248.17h3.13v9.45l6.34-9.45ZM234.89,251v11.56h-3.17V248.17h10.06V251Zm-12.19,4.76,3.48-7.62h3.44l-5.54,11.14A7.28,7.28,0,0,1,222,262a4.39,4.39,0,0,1-2.67.82,6.24,6.24,0,0,1-3.11-.84l1.24-2.33a3.19,3.19,0,0,0,1.71.47A2.13,2.13,0,0,0,221,259l-5.76-10.79h3.54ZM206,255.44h2.51a2.63,2.63,0,0,0,1.85-.62,2.1,2.1,0,0,0,.67-1.6,2,2,0,0,0-.68-1.62,2.89,2.89,0,0,0-1.9-.57H206Zm-3.17,7.15V248.17h5.89a5.71,5.71,0,0,1,4,1.38,4.77,4.77,0,0,1,1.48,3.65,4.51,4.51,0,0,1-1.65,3.73,6.42,6.42,0,0,1-4.18,1.33H206v4.33ZM195.73,251h-4.26v1.46a18.76,18.76,0,0,1-1.3,7.23h5.56Zm-10.25,14.56v-5.87h1.36a18.17,18.17,0,0,0,1.21-4.14,35.11,35.11,0,0,0,.37-5.72v-1.69H198.9v11.55h1.73l-.41,5.87h-2.66v-3h-9l-.21,3Zm-12.62-9.8h-2.8v3.93h2.82c1.58,0,2.37-.67,2.37-2S174.45,255.79,172.86,255.79Zm-6,6.8V248.17h3.17v4.9h3.07a5.56,5.56,0,0,1,3.87,1.27,4.37,4.37,0,0,1,1.4,3.41,4.46,4.46,0,0,1-1.48,3.53,5.81,5.81,0,0,1-4,1.31Zm-10,0v-11.5h-4.38v-2.92h11.94v2.92h-4.39v11.5Zm-15.17-6h3.83l-1.91-4.67Zm-5.68,6,6.18-14.52h2.92l6.17,14.52H148l-1.32-3.24H140.6l-1.32,3.24ZM129,247.92A6.11,6.11,0,0,1,132.7,249a3.35,3.35,0,0,1,1.46,2.78,3.43,3.43,0,0,1-2.33,3.32,3.38,3.38,0,0,1,2.7,3.4,3.83,3.83,0,0,1-1.5,3.11,6.1,6.1,0,0,1-4,1.21,10.21,10.21,0,0,1-3.7-.59,8.1,8.1,0,0,1-2.7-1.82l1.69-2.2a6.29,6.29,0,0,0,4.59,1.83,3,3,0,0,0,1.74-.46,1.45,1.45,0,0,0,.69-1.27,1.35,1.35,0,0,0-.78-1.27,4.38,4.38,0,0,0-2.09-.42h-1.66V254h1.62c1.72,0,2.58-.56,2.58-1.67a1.35,1.35,0,0,0-.64-1.17,3,3,0,0,0-1.69-.44,5.2,5.2,0,0,0-3.89,1.59l-1.67-2A7.69,7.69,0,0,1,129,247.92ZM112,256.55h3.83l-1.91-4.67Zm-5.68,6,6.18-14.52h2.92l6.18,14.52h-3.32L117,259.35h-6.1l-1.32,3.24Zm-13.79,0V248.17H95.7v6.3l5.85-6.3h3.83l-5.87,6.12,6.13,8.3h-3.81l-4.46-6.14-1.67,1.73v4.41Zm-10,0v-11.5H78.16v-2.92H90.1v2.92H85.72v11.5Zm-16.94-4a4.12,4.12,0,0,0,3.13,1.32,4.07,4.07,0,0,0,3.11-1.31,4.55,4.55,0,0,0,1.21-3.22,4.5,4.5,0,0,0-1.23-3.21,4.37,4.37,0,0,0-6.24,0,4.86,4.86,0,0,0,0,6.44Zm8.57,2.08a8,8,0,0,1-11,0,7.21,7.21,0,0,1-2.17-5.29,7.13,7.13,0,0,1,2.19-5.28,8,8,0,0,1,11,0,7.51,7.51,0,0,1,0,10.59Zm149.24-21.4V224.86h10.87v2.82h-7.72v2.92h6.79v2.83h-6.79v3h7.82v2.82Zm-10,0V227.78H209v-2.92H221v2.92h-4.39v11.49Zm-17.14,0V224.86h10.87v2.82h-7.72v2.92h6.79v2.83h-6.79v3h7.82v2.82Zm-11.68,0h-3.15v-3.83l-1.91-2.06-4.06,5.89h-3.79l5.71-8.17-5.5-6.24h3.77l5.78,6.73v-6.73h3.15v6.73l5.79-6.73h3.77l-5.5,6.24,5.7,8.17h-3.79l-4.07-5.89-1.9,2.06Zm-24.95-4a4.12,4.12,0,0,0,3.13,1.32,4.07,4.07,0,0,0,3.11-1.31,4.86,4.86,0,0,0,0-6.44,4.38,4.38,0,0,0-6.24,0,4.86,4.86,0,0,0,0,6.44Zm8.57,2.08a8,8,0,0,1-10.95,0,7.51,7.51,0,0,1,0-10.58,7.53,7.53,0,0,1,5.49-2.17,7.44,7.44,0,0,1,5.47,2.16,7.51,7.51,0,0,1,0,10.59Zm-30.35,1.91V224.86h3.42l3.79,6.09,3.78-6.09h3.42v14.41h-3.15v-9.41l-4,6.16H145l-4-6.09v9.34Zm-20,0V224.86h10.87v2.82h-7.72v2.92h6.8v2.83h-6.8v3h7.82v2.82Zm-15.64,0V224.86h3.17v5.7h5.84v-5.7h3.17v14.41h-3.17v-5.78h-5.84v5.78Z"></path> <path class="cls-2" d="M114.25,157.84l2.18-2.18,8.33,8.33,13-13,2.18,2.18-13,13-2.17,2.17-2.17-2.17Zm0-81.14,2.18-2.17,8.33,8.33,13-13L140,72,126.93,85l-2.17,2.17L122.59,85Zm0,40.57,2.18-2.17,8.33,8.33,13-13,2.18,2.17-13,13-2.17,2.18-2.17-2.18Zm40.57,40.57,2.17-2.18,8.34,8.33,13-13,2.17,2.18-13,13-2.17,2.17-2.18-2.17Zm40.57,0,2.17-2.18,8.33,8.33,13-13,2.18,2.18-13,13-2.18,2.17-2.17-2.17ZM154.82,76.7,157,74.53l8.34,8.33,13-13L180.54,72,167.5,85l-2.17,2.17L163.15,85Zm0,40.57L157,115.1l8.34,8.33,13-13,2.17,2.17-13,13-2.17,2.18-2.18-2.18Zm40.57,0,2.17-2.17,8.33,8.33,13-13,2.18,2.17-13,13-2.18,2.18-2.17-2.18Zm0-40.57,2.17-2.17,8.33,8.33,13-13L221.11,72,208.07,85l-2.18,2.17L203.72,85Zm12.86,62.67A20.28,20.28,0,1,1,188,159.65,20.28,20.28,0,0,1,208.25,139.37Zm-40.57,0a20.28,20.28,0,1,1-20.28,20.28A20.28,20.28,0,0,1,167.68,139.37Zm-40.57,0a20.28,20.28,0,1,1-20.28,20.28A20.28,20.28,0,0,1,127.11,139.37ZM208.25,98.8A20.29,20.29,0,1,1,188,119.08,20.28,20.28,0,0,1,208.25,98.8Zm-40.57,0a20.29,20.29,0,1,1-20.28,20.28A20.28,20.28,0,0,1,167.68,98.8Zm-40.57,0a20.29,20.29,0,1,1-20.28,20.28A20.28,20.28,0,0,1,127.11,98.8Zm40.57-40.57A20.29,20.29,0,1,1,147.4,78.52,20.28,20.28,0,0,1,167.68,58.23Zm-40.57,0a20.29,20.29,0,1,1-20.28,20.29A20.28,20.28,0,0,1,127.11,58.23Zm81.14,0A20.29,20.29,0,1,1,188,78.52,20.28,20.28,0,0,1,208.25,58.23Z"></path> </g> </g> </svg> 