<?xml version="1.0" encoding="UTF-8"?> <svg xmlns="http://www.w3.org/2000/svg" viewBox="0 0 183 69.91"> <defs> <style>.cls-1{fill:#28519e;}.cls-2{fill:#231f20;}</style> </defs> <g id="Capa_2" data-name="Capa 2"> <g id="Capa_1-2" data-name="Capa 1"> <g id="g6804"> <path id="path4764" class="cls-1" d="M34.93,0A34.75,34.75,0,0,0,13.22,7.58H56.64A34.75,34.75,0,0,0,34.93,0ZM11.25,9.26a35.5,35.5,0,0,0-5.11,5.9H63.71a35,35,0,0,0-5.11-5.9Zm-6.2,7.58a34.88,34.88,0,0,0-2.85,5.9h7C7,17,5.59,16.85,5.59,16.85H5.05Zm11.24,0a15.9,15.9,0,0,1,4.41,5.9h8.88v-5.9Zm23.69,0v5.9h8.78l2.66-5.9Zm24.27,0-2.66,5.9h6.07a34.88,34.88,0,0,0-2.85-5.9ZM1.62,24.42a35.25,35.25,0,0,0-1.31,5.9H11.8c-.34-.81-.65-1.64-.93-2.46l-.18-.5c-.31-1.09-.62-2.06-.91-2.94Zm19.83,0c.34.81.64,1.63.92,2.44l.18.5h0c.32,1.1.62,2.08.92,3h6.11V24.42Zm18.53,0v5.9h5.37L48,24.42Zm20.86,0-2.66,5.9H69.54a34.27,34.27,0,0,0-1.3-5.9ZM.13,32C.05,33,0,34,0,35s.05,2,.13,3H17A15.92,15.92,0,0,1,12.55,32Zm23.94,0c2.14,5.69,3.59,5.87,3.59,5.87l-.08,0h2V32ZM40,32v5.91h2L44.59,32Zm17.44,0-2.66,5.91h15c.09-1,.14-2,.14-3s0-2-.14-3ZM.31,39.59a35,35,0,0,0,1.31,5.9h28v-5.9Zm39.67,0v5.9H68.24a34.06,34.06,0,0,0,1.3-5.9ZM2.2,47.17a34.88,34.88,0,0,0,2.85,5.9H29.58v-5.9Zm37.78,0v5.9H64.81a34.88,34.88,0,0,0,2.85-5.9ZM6.14,54.75a35.5,35.5,0,0,0,5.11,5.9H29.58v-5.9Zm33.84,0v5.9H58.6a35,35,0,0,0,5.11-5.9ZM13.22,62.33a34.88,34.88,0,0,0,43.42,0Z"></path> <path id="path4872" class="cls-2" d="M124.34,18.84a3.87,3.87,0,1,0,0,7.74,3.48,3.48,0,0,0,3.32-2L126,23.79a1.8,1.8,0,0,1-1.66,1.08,2.16,2.16,0,0,1,0-4.32A1.8,1.8,0,0,1,126,21.63l1.66-.78A3.46,3.46,0,0,0,124.34,18.84ZM83.4,19l-2.81,7.47h2.09l.38-1.13h3.11l.38,1.13h2.09L85.82,19Zm6.86,0v7.47h1.93v-5l1.88,5h.85l1.9-5v5h1.92V19H96.07L94.5,23.2,92.94,19Zm10.67,0v7.47h5.48V24.82h-3.55V23.47h3.47V21.84h-3.47V20.59h3.55V19Zm7.44,0v7.47h1.93V23.91h1l1.25,2.53h2.21l-1.52-2.74a2.27,2.27,0,0,0,1.49-2.24,2.41,2.41,0,0,0-2.6-2.49Zm8.25,0v7.47h1.93V19Zm14.64,0-2.81,7.47h2.09l.38-1.13H134l.38,1.13h2.1L133.68,19Zm6.64,0v7.47h1.92V21.93L143,26.44h1.86V19h-1.94v4.3l-3-4.3Zm-27.6,1.62h1.52a.84.84,0,1,1,0,1.68H110.3Zm-25.69.06,1,3H83.57Zm47.86,0,1.05,3h-2.09Z"></path> <path id="path4926" class="cls-2" d="M108.36,32.29a3.87,3.87,0,1,0,0,7.74,3.49,3.49,0,0,0,3.32-2L110,37.24a1.82,1.82,0,0,1-1.66,1.08,2.16,2.16,0,0,1,0-4.32A1.82,1.82,0,0,1,110,35.08l1.66-.78A3.49,3.49,0,0,0,108.36,32.29Zm17.76,0a3.87,3.87,0,1,0,4,3.87A3.82,3.82,0,0,0,126.12,32.29Zm15.92,0a3.87,3.87,0,1,0,4,3.87A3.81,3.81,0,0,0,142,32.29Zm9.47,0a3.87,3.87,0,1,0,0,7.74,4.31,4.31,0,0,0,3.31-1.46V35.65h-3.61v1.6h1.72v.63a2.4,2.4,0,0,1-1.42.44,2.16,2.16,0,0,1,0-4.32,1.87,1.87,0,0,1,1.59.89l1.61-.86A3.53,3.53,0,0,0,151.51,32.29Zm13,0a3.87,3.87,0,1,0,0,7.74,3.48,3.48,0,0,0,3.31-2l-1.65-.78a1.82,1.82,0,0,1-1.66,1.08,2.16,2.16,0,0,1,0-4.32,1.82,1.82,0,0,1,1.66,1.08l1.65-.78A3.47,3.47,0,0,0,164.52,32.29Zm-72.41,0c-1.92,0-3,1.08-3,2.34,0,1.77,1.72,2.08,3,2.33.79.17,1.27.34,1.27.76s-.4.64-1.06.64a3.38,3.38,0,0,1-2.39-1l-1,1.45A4.57,4.57,0,0,0,92.21,40c2,0,3.12-1,3.12-2.5,0-1.69-1.71-2.05-2.94-2.31-.83-.16-1.29-.29-1.29-.68S91.35,34,92,34a3.45,3.45,0,0,1,2.11.78l1.06-1.38A4.59,4.59,0,0,0,92.11,32.31Zm-10.73.11v7.47h1.93V37.36h1.82a2.47,2.47,0,1,0,0-4.94Zm32,0v7.47h1.93v-3h3.1v3h1.93V32.42h-1.93v2.79h-3.1V32.42Zm18.57,0v7.47h4.93V38.21h-3V32.42Zm24.87,0v7.47h1.93V32.42Zm21.28,0v7.47H183V38.21h-3V32.42Zm-81.85,0,2.84,4.46v3H101v-3l2.83-4.46h-2.19L100,35.18,98.4,32.42Zm75.21,0-2.81,7.47h2.1l.38-1.13h3.1l.38,1.13h2.1l-2.83-7.47ZM126.12,34a2.16,2.16,0,1,1-2,2.16A2,2,0,0,1,126.12,34ZM142,34a2.16,2.16,0,1,1-2,2.16A2,2,0,0,1,142,34ZM83.31,34h1.56a.85.85,0,0,1,.9.86.83.83,0,0,1-.9.82H83.31Zm89.33.06,1.06,3h-2.1Z"></path> <path id="path5008" class="cls-2" d="M108.88,45.75a3.87,3.87,0,1,0,4,3.86A3.8,3.8,0,0,0,108.88,45.75Zm9.19,0a3.87,3.87,0,1,0,0,7.73,3.5,3.5,0,0,0,3.32-2l-1.66-.78a1.82,1.82,0,0,1-1.66,1.08,2.16,2.16,0,0,1,0-4.32,1.82,1.82,0,0,1,1.66,1.09l1.66-.79A3.49,3.49,0,0,0,118.07,45.75Zm32.46,0a3.87,3.87,0,1,0,4,3.86A3.8,3.8,0,0,0,150.53,45.75Zm-57.86,0c-1.92,0-3,1.08-3,2.34,0,1.77,1.72,2.09,3,2.33.79.17,1.27.34,1.27.76s-.4.64-1.06.64a3.38,3.38,0,0,1-2.39-1l-1,1.45a4.57,4.57,0,0,0,3.32,1.19c2,0,3.12-1,3.12-2.5,0-1.69-1.71-2-2.94-2.31-.83-.16-1.29-.29-1.29-.68s.25-.59.88-.59a3.45,3.45,0,0,1,2.11.78l1.06-1.38A4.59,4.59,0,0,0,92.67,45.76Zm7.63,0c-1.92,0-3,1.08-3,2.34,0,1.77,1.73,2.09,3,2.33.8.17,1.28.34,1.28.76s-.41.64-1.07.64a3.34,3.34,0,0,1-2.38-1l-1,1.45a4.59,4.59,0,0,0,3.32,1.19c2,0,3.12-1,3.12-2.5,0-1.69-1.71-2-2.94-2.31-.83-.16-1.29-.29-1.29-.68s.25-.59.89-.59a3.47,3.47,0,0,1,2.11.78l1-1.38A4.59,4.59,0,0,0,100.3,45.76Zm22.75.11v7.47H125V45.87Zm11.87,0v1.68H137v5.8H139v-5.8H141V45.87Zm7.87,0v7.47h1.93V45.87Zm13.54,0v7.48h1.93V48.83l3.16,4.52h1.86V45.87h-1.94v4.3l-3-4.3Zm-72.93,0-2.81,7.47h2.09l.38-1.13h3.11l.38,1.13h2.09l-2.82-7.47Zm46,0-2.81,7.47h2.09l.38-1.13h3.11l.38,1.13h2.1l-2.83-7.47Zm-20.53,1.58a2.16,2.16,0,1,1-2,2.16A2,2,0,0,1,108.88,47.45Zm41.65,0a2.16,2.16,0,1,1-2,2.16A2,2,0,0,1,150.53,47.45Zm-65.92.1,1,3H83.57Zm46,0,1,3h-2.09Z"></path> </g> </g> </g> </svg> 