<?xml version="1.0" encoding="UTF-8"?> <svg xmlns="http://www.w3.org/2000/svg" viewBox="0 0 367.91 88.73"> <defs> <style>.cls-1{fill:#cec4b8;}.cls-2{fill:#cc3;}.cls-2,.cls-3{fill-rule:evenodd;}.cls-3{fill:#c8cea9;}</style> </defs> <g id="Layer_2" data-name="Layer 2"> <g id="Слой_1" data-name="Слой 1"> <path class="cls-1" d="M181.32,41.57a3,3,0,0,0-.94-2.19,3.46,3.46,0,0,0-4.72,0,3,3,0,0,0-.94,2.19,8.53,8.53,0,0,0,2.63,6.14,9.34,9.34,0,0,0,12.87,0,8.52,8.52,0,0,0,2.62-6.14,14,14,0,0,0-4.31-10.09,15.22,15.22,0,0,0-21,0,14,14,0,0,0-4.31,10.09,19.48,19.48,0,0,0,6,14,21.12,21.12,0,0,0,29.16,0,19.48,19.48,0,0,0,6-14,25,25,0,0,0-7.68-18,27,27,0,0,0-37.32,0,25,25,0,0,0-7.68,18,30.46,30.46,0,0,0,9.37,21.94,32.89,32.89,0,0,0,45.46,0,30.46,30.46,0,0,0,9.38-21.94,35.94,35.94,0,0,0-11.07-25.89,38.78,38.78,0,0,0-53.6,0,35.93,35.93,0,0,0-11.06,25.89A41.45,41.45,0,0,0,152.9,71.41a44.68,44.68,0,0,0,61.76,0,41.42,41.42,0,0,0,12.75-29.84h4.93a46.37,46.37,0,0,1-14.25,33.37,49.56,49.56,0,0,1-68.61,0,46.33,46.33,0,0,1-14.25-33.37,40.83,40.83,0,0,1,12.56-29.41,43.66,43.66,0,0,1,60.46,0,40.83,40.83,0,0,1,12.56,29.41A35.37,35.37,0,0,1,209.94,67a37.77,37.77,0,0,1-52.31,0,35.38,35.38,0,0,1-10.88-25.47,29.85,29.85,0,0,1,9.19-21.51,31.86,31.86,0,0,1,44.16,0,29.85,29.85,0,0,1,9.19,21.51,24.39,24.39,0,0,1-7.5,17.56,26,26,0,0,1-36,0,24.39,24.39,0,0,1-7.5-17.56A18.86,18.86,0,0,1,164.09,28,20.1,20.1,0,0,1,192,28a18.86,18.86,0,0,1,5.82,13.61,13.4,13.4,0,0,1-4.13,9.66,14.2,14.2,0,0,1-19.72,0,13.39,13.39,0,0,1-4.12-9.66,8,8,0,0,1,2.43-5.71,8.33,8.33,0,0,1,11.58,0,8,8,0,0,1,2.44,5.71Z"></path> <path class="cls-2" d="M44.25,44.36A44.25,44.25,0,0,0,0,.12V88.61A44.25,44.25,0,0,0,44.25,44.37,44.24,44.24,0,0,0,88.5,88.61V.12A44.24,44.24,0,0,0,44.25,44.36Z"></path> <path class="cls-3" d="M323.54,27.92A16.44,16.44,0,1,1,307.1,44.36a16.45,16.45,0,0,1,16.44-16.44m0-27.92a44.37,44.37,0,1,1-44.36,44.36A44.36,44.36,0,0,1,323.54,0Z"></path> </g> </g> </svg> 