<svg xmlns="http://www.w3.org/2000/svg" viewBox="0 0 106.88 97.66"><defs><style>.cls-1{fill:#cec4b8;}</style></defs><g id="Layer_2" data-name="Layer 2"><g id="Слой_1" data-name="Слой 1"><path class="cls-1" d="M50.73,45.75a3.38,3.38,0,0,0-1-2.41,3.82,3.82,0,0,0-5.2,0,3.34,3.34,0,0,0-1,2.41,9.37,9.37,0,0,0,2.89,6.76,10.27,10.27,0,0,0,14.16,0,9.37,9.37,0,0,0,2.89-6.76,15.39,15.39,0,0,0-4.75-11.1,16.76,16.76,0,0,0-23.13,0,15.42,15.42,0,0,0-4.74,11.1,21.47,21.47,0,0,0,6.6,15.46,23.25,23.25,0,0,0,32.1,0,21.47,21.47,0,0,0,6.6-15.46A27.49,27.49,0,0,0,67.63,26a29.73,29.73,0,0,0-41.07,0,27.52,27.52,0,0,0-8.45,19.8A33.55,33.55,0,0,0,28.42,69.9a36.2,36.2,0,0,0,50,0A33.55,33.55,0,0,0,88.77,45.75,39.57,39.57,0,0,0,76.6,17.26a42.67,42.67,0,0,0-59,0A39.58,39.58,0,0,0,5.42,45.75a45.66,45.66,0,0,0,14,32.85,49.18,49.18,0,0,0,68,0,45.63,45.63,0,0,0,14-32.85h5.42A51,51,0,0,1,91.19,82.48a54.54,54.54,0,0,1-75.51,0A51,51,0,0,1,0,45.75,44.92,44.92,0,0,1,13.83,13.38a48.05,48.05,0,0,1,66.54,0A45,45,0,0,1,94.2,45.75a38.94,38.94,0,0,1-12,28,41.58,41.58,0,0,1-57.58,0,38.94,38.94,0,0,1-12-28A32.89,32.89,0,0,1,22.79,22.08a35.09,35.09,0,0,1,48.61,0A32.86,32.86,0,0,1,81.52,45.75a26.84,26.84,0,0,1-8.26,19.33,28.6,28.6,0,0,1-39.64,0,26.84,26.84,0,0,1-8.26-19.33,20.81,20.81,0,0,1,6.4-15,22.14,22.14,0,0,1,30.67,0,20.77,20.77,0,0,1,6.4,15,14.75,14.75,0,0,1-4.54,10.64,15.65,15.65,0,0,1-21.7,0,14.75,14.75,0,0,1-4.54-10.64,8.7,8.7,0,0,1,2.68-6.28,9.15,9.15,0,0,1,12.74,0,8.7,8.7,0,0,1,2.68,6.28Z"/></g></g></svg>