<svg xmlns="http://www.w3.org/2000/svg" viewBox="0 0 52.26 52.26"><defs><style>.cls-1,.cls-2{fill:#c8cea9;}.cls-2{fill-rule:evenodd;}</style></defs><g id="Layer_2" data-name="Layer 2"><g id="Слой_1" data-name="Слой 1"><path class="cls-1" d="M41.61,10.65A21.9,21.9,0,1,0,48,26.13a21.84,21.84,0,0,0-6.41-15.48M26.13,0A26.12,26.12,0,1,1,7.65,7.65,26,26,0,0,1,26.13,0Z"/><path class="cls-2" d="M40.71,15.13l-11,11,11,11a17.77,17.77,0,0,1-3.31,3.38L26.47,29.57l-.24.24-.1-.1-.1.1-.24-.24L14.86,40.51a21,21,0,0,1-1.65-1.46,17.86,17.86,0,0,1-1.66-1.92l11-11-11-11a17.86,17.86,0,0,1,1.66-1.92,17.57,17.57,0,0,1,1.65-1.46L25.79,22.68l.24-.23.1.1.1-.1.24.23L37.4,11.75a17.57,17.57,0,0,1,1.65,1.46,19.05,19.05,0,0,1,1.66,1.92"/></g></g></svg>