<svg xmlns="http://www.w3.org/2000/svg" viewBox="0 0 251.49 60.65"><defs><style>.cls-1{fill:#5d6541;}</style></defs><g id="Layer_2" data-name="Layer 2"><g id="Слой_1" data-name="Слой 1"><path class="cls-1" d="M214.19,9.72C191.56,4.33,160.29,1,125.74,1S59.93,4.33,37.3,9.72C14.87,15.06,1,22.35,1,30.32S14.87,45.58,37.3,50.93c22.63,5.38,53.9,8.72,88.44,8.72s65.82-3.34,88.45-8.72c22.43-5.35,36.3-12.63,36.3-20.61s-13.87-15.26-36.3-20.6M125.74,0c34.63,0,66,3.34,88.68,8.75,22.9,5.45,37.07,13.08,37.07,21.57S237.32,46.45,214.42,51.9c-22.7,5.4-54,8.75-88.68,8.75s-66-3.35-88.67-8.75C14.17,46.45,0,38.82,0,30.32S14.17,14.2,37.07,8.75C59.77,3.34,91.12,0,125.74,0Z"/></g></g></svg>