<svg xmlns="http://www.w3.org/2000/svg" viewBox="0 0 52.11 47.62"><defs><style>.cls-1{fill:#fff;}</style></defs><g id="Layer_2" data-name="Layer 2"><g id="Слой_1" data-name="Слой 1"><path class="cls-1" d="M24.73,22.31a1.66,1.66,0,0,0-.5-1.18,1.82,1.82,0,0,0-1.27-.5,1.79,1.79,0,0,0-1.26.5,1.66,1.66,0,0,0-.5,1.18,4.56,4.56,0,0,0,1.4,3.29,5,5,0,0,0,6.91,0,4.57,4.57,0,0,0,1.41-3.29,7.53,7.53,0,0,0-2.32-5.42,8.18,8.18,0,0,0-11.27,0A7.53,7.53,0,0,0,15,22.31a10.44,10.44,0,0,0,3.22,7.53,11.32,11.32,0,0,0,15.65,0,10.44,10.44,0,0,0,3.22-7.53A13.41,13.41,0,0,0,33,12.65a14.51,14.51,0,0,0-20,0,13.41,13.41,0,0,0-4.12,9.66,16.32,16.32,0,0,0,5,11.77,17.63,17.63,0,0,0,24.39,0,16.33,16.33,0,0,0,5-11.77,19.3,19.3,0,0,0-5.94-13.9,20.82,20.82,0,0,0-28.77,0,19.3,19.3,0,0,0-5.94,13.9,22.23,22.23,0,0,0,6.85,16,24,24,0,0,0,33.14,0,22.26,22.26,0,0,0,6.84-16h2.64a24.87,24.87,0,0,1-7.64,17.9,26.57,26.57,0,0,1-36.82,0A24.84,24.84,0,0,1,0,22.31,21.94,21.94,0,0,1,6.74,6.52a23.45,23.45,0,0,1,32.45,0,21.94,21.94,0,0,1,6.74,15.79A18.94,18.94,0,0,1,40.09,36,20.26,20.26,0,0,1,12,36,18.94,18.94,0,0,1,6.18,22.31a16.08,16.08,0,0,1,4.93-11.55,17.14,17.14,0,0,1,23.71,0,16.08,16.08,0,0,1,4.93,11.55,13.07,13.07,0,0,1-4,9.42,14,14,0,0,1-19.33,0,13.1,13.1,0,0,1-4-9.42A10.15,10.15,0,0,1,15.49,15a10.79,10.79,0,0,1,15,0,10.15,10.15,0,0,1,3.12,7.31,7.17,7.17,0,0,1-2.21,5.18,7.62,7.62,0,0,1-10.59,0,7.21,7.21,0,0,1-2.21-5.18,4.27,4.27,0,0,1,1.31-3.07,4.48,4.48,0,0,1,6.21,0,4.27,4.27,0,0,1,1.31,3.07Z"/></g></g></svg>