<svg xmlns="http://www.w3.org/2000/svg" viewBox="0 0 83.17 74.67"><defs><style>.cls-1{fill:none;stroke:#000;stroke-miterlimit:22.93;stroke-width:2px;}</style></defs><g id="Layer_2" data-name="Layer 2"><g id="Слой_1" data-name="Слой 1"><path class="cls-1" d="M41.58,2.57l12.28,22L41.58,70.66,29.31,24.55ZM66.35,2,54.41,23.42,42.46,2ZM40.71,2,28.76,23.42,16.81,2ZM2.15,24.43,15.91,2.52,28.28,24.67l12.2,45.87ZM41.58,73.18h.14l.06,0h0l.06,0v0h0L42,73v0h0L82.05,24.81a.53.53,0,0,0,0-.61l-14.42-23,0,0,0,0,0,0h0l0,0h0l0,0h0l0,0H15.8a.45.45,0,0,0-.22.13h0s0,0,0,0v0l0,0L1.08,24.2a.53.53,0,0,0,0,.61L41.19,73h0v0l.06,0h0l0,0,.05,0h0l.07,0h.13Zm1.1-2.64L54.89,24.67,67.26,2.52,81,24.43Z"/></g></g></svg>