<svg xmlns="http://www.w3.org/2000/svg" viewBox="0 0 465.9 38.41"><defs><style>.cls-1{fill-rule:evenodd;}.cls-2{fill:none;stroke:#000;stroke-miterlimit:22.93;stroke-width:0.57px;}</style></defs><g id="Layer_2" data-name="Layer 2"><g id="Слой_1" data-name="Слой 1"><polygon class="cls-1" points="446.7 0 449.38 16.53 465.9 19.21 449.38 21.88 446.7 38.41 444.02 21.88 427.5 19.21 444.02 16.53 446.7 0"/><path class="cls-1" d="M397.77,1.61Q399.24,9,400.63,16.5c5,.92,10,1.88,14.88,2.86-4.89,1-9.87,1.94-14.88,2.85q-1.38,7.53-2.86,14.89c-1-4.9-1.94-9.87-2.85-14.89-5-.91-10-1.87-14.89-2.85q7.35-1.47,14.89-2.86c.91-5,1.87-10,2.85-14.89"/><path class="cls-1" d="M348.84,3.22c1.07,4.29,2.1,8.72,3,13.25,4.52.94,9,2,13.24,3-4.28,1.06-8.72,2.09-13.24,3-.94,4.53-2,9-3,13.25-1.06-4.28-2.09-8.72-3-13.25-4.53-.94-9-2-13.25-3,4.29-1.07,8.72-2.1,13.25-3,.94-4.53,2-9,3-13.25"/><path class="cls-1" d="M299.91,4.83c1.16,3.68,2.26,7.58,3.22,11.62,4,1,7.93,2.06,11.6,3.21-3.67,1.15-7.57,2.25-11.6,3.21-1,4-2.06,7.94-3.22,11.61-1.15-3.67-2.25-7.57-3.21-11.61-4-1-7.93-2.06-11.61-3.21,3.68-1.15,7.57-2.25,11.61-3.21,1-4,2.06-7.94,3.21-11.62"/><path class="cls-1" d="M251,6.45a93.7,93.7,0,0,1,3.4,10,92.07,92.07,0,0,1,10,3.39,92.07,92.07,0,0,1-10,3.39,93.7,93.7,0,0,1-3.4,10,96,96,0,0,1-3.39-10,92.07,92.07,0,0,1-10-3.39,92.07,92.07,0,0,1,10-3.39,96,96,0,0,1,3.39-10"/><path class="cls-1" d="M202.06,8.06a52.16,52.16,0,0,1,3.57,8.33A51.65,51.65,0,0,1,214,20a50.77,50.77,0,0,1-8.33,3.57,52.16,52.16,0,0,1-3.57,8.33,50.4,50.4,0,0,1-3.57-8.33A50.4,50.4,0,0,1,190.16,20a51.26,51.26,0,0,1,8.33-3.57,50.4,50.4,0,0,1,3.57-8.33"/><path class="cls-1" d="M153.13,9.67a28.55,28.55,0,0,1,3.75,6.69,28.76,28.76,0,0,1,6.69,3.75,28.76,28.76,0,0,1-6.69,3.75,28.35,28.35,0,0,1-3.75,6.69,28,28,0,0,1-3.75-6.69,28.35,28.35,0,0,1-6.69-3.75,28.35,28.35,0,0,1,6.69-3.75,28.2,28.2,0,0,1,3.75-6.69"/><path class="cls-1" d="M104.2,11.28a15.94,15.94,0,0,1,3.93,5,15.94,15.94,0,0,1,5.05,3.93,15.8,15.8,0,0,1-5.05,3.93,15.72,15.72,0,0,1-3.93,5,15.58,15.58,0,0,1-3.93-5,15.69,15.69,0,0,1-5-3.93,15.83,15.83,0,0,1,5-3.93,15.8,15.8,0,0,1,3.93-5"/><path class="cls-1" d="M55.27,12.89a9,9,0,0,1,4.11,3.42,9,9,0,0,1,3.41,4.1,9,9,0,0,1-3.41,4.11,9,9,0,0,1-4.11,3.41,8.92,8.92,0,0,1-4.1-3.41,9,9,0,0,1-3.42-4.11,9,9,0,0,1,3.42-4.1,9,9,0,0,1,4.1-3.42"/><circle cx="6.34" cy="20.56" r="6.06" transform="translate(-14.23 26.88) rotate(-89.93)"/><circle class="cls-2" cx="6.34" cy="20.56" r="6.06" transform="translate(-14.23 26.88) rotate(-89.93)"/></g></g></svg>