<?xml version="1.0" encoding="UTF-8"?> <svg xmlns="http://www.w3.org/2000/svg" viewBox="0 0 120.07 150.14"> <defs> <style>.cls-1{fill:#c9cfa9;}.cls-1,.cls-2{fill-rule:evenodd;}.cls-2{fill:#5e6642;}</style> </defs> <g id="Capa_2" data-name="Capa 2"> <g id="Capa_1-2" data-name="Capa 1"> <path class="cls-1" d="M0,109.2V0H120.07V150.14H38.41C17.28,150.14,0,131.72,0,109.2"></path> <path class="cls-2" d="M29.46,92.26a30.6,30.6,0,0,0,9.87,20.79,32.45,32.45,0,0,0,4.34,3.33A30.66,30.66,0,0,0,84.42,71.86a21.51,21.51,0,0,0-1.77-2.11c-.73-.76-1.21-1.21-1.9-1.9l-.52-.47c-.21-.19-.29-.25-.55-.47a30.89,30.89,0,0,0-21.43-7A32.89,32.89,0,0,0,51.72,61a30.66,30.66,0,0,0-22.26,31.3M41,75.91a20.77,20.77,0,0,1,2.35-4.46,26.5,26.5,0,0,1,3-3.78,23.51,23.51,0,0,1,3.73-3,16.21,16.21,0,0,1,4.59-2.14c-.08.22-.78,1.14-1,1.53a37.66,37.66,0,0,0-4.53,13.84C48.12,78.08,41.86,76.41,41,75.91Zm29.08,2.17c-.24-.46-.74-3.54-.94-4.37A42,42,0,0,0,68,69.59a24,24,0,0,0-3-6.2,2.22,2.22,0,0,1-.52-.87c4.25.85,9.14,5.57,11.47,9.28a23.11,23.11,0,0,1,2.32,4.47A36.93,36.93,0,0,1,70.06,78.08Zm2.12-13.67c.63,0,5.61,3.39,6.29,4,1.44,1.23,4.3,4,5,5.52a14.84,14.84,0,0,1-3.37,1.65c-.56-.68-1.76-4.57-5.7-8.77-.37-.4-.75-.79-1.2-1.2-.21-.2-.41-.42-.63-.62l-.67-.42ZM36.67,73.9c.34-1,3.1-3.83,4-4.63a28.3,28.3,0,0,1,4.88-3.56l-.62.76a23.7,23.7,0,0,0-3,3.61c-1.37,2.06-2.17,4-2.84,5.06A6.31,6.31,0,0,1,36.67,73.9ZM31.34,89.48a28.64,28.64,0,0,1,1.31-7.69,31.26,31.26,0,0,1,2.82-6.24L38.36,77C37.11,81.31,36,84.56,36,89.46A40.74,40.74,0,0,1,31.34,89.48Zm53.31-13.9a28.78,28.78,0,0,1,4.13,13.93H83A40.41,40.41,0,0,0,82.32,83c-.47-2.57-1.22-4.26-1.49-5.61ZM51,78.18c0-2.3,1.83-8.07,2.61-10,1-2.42,3.09-6.61,6.1-6.43,5.17.31,8.48,14.89,8.27,16.64-3,.24-5.63.44-8.64.43C57.8,78.8,52.14,78.65,51,78.18ZM38,89.51a32.52,32.52,0,0,1,.67-6.31c.49-2.48,1.2-4.13,1.48-5.44a12.36,12.36,0,0,1,2.2.63,60.37,60.37,0,0,0,6.46,1.46c0,2.38-.75,5.61-.63,9.66ZM70.3,80.06c.48-.22,3.68-.71,4.53-.89L79,78.09a33.89,33.89,0,0,1,2.1,11.42H70.92c0-1.63-.11-3.2-.2-4.79S70.31,81.47,70.3,80.06ZM50.05,89.51a84.13,84.13,0,0,1,.61-9.38c3,.27,5.74.56,8.83.57,1.53,0,3,0,4.53-.09,1.19,0,3.31-.39,4.37-.3.24,3.11.58,5.92.61,9.2Zm-17.41,9.6c-.49-1.54-1.48-6-1.26-7.68l4.59,0c.17,1,.16,2.38.28,3.49A54.62,54.62,0,0,0,38.34,104l-2.91,1.41A43.64,43.64,0,0,1,32.64,99.11Zm37.7,1.83a45.31,45.31,0,0,1,.39-4.78c.06-1.27,0-3.59.23-4.74l10.09,0c.3,2.44-1.15,9.48-2.06,11.38l-6.42-1.52C71.94,101.2,70.91,101.1,70.34,100.94Zm10.52,2.64a23.34,23.34,0,0,1,.81-2.85,56.66,56.66,0,0,0,1.38-9.31l5.69,0c.43,2.87-1.48,8.85-2.91,11.81a.59.59,0,0,0,0,.08l-1.14,2ZM38.6,97.68c-.24-1.26-.84-5.05-.59-6.26l10.09,0c.17,1.57.08,3.42.23,5,.09.94.48,4,.4,4.63-1.55.23-3,.54-4.5.91-1.1.28-3.23,1.08-4.11,1.17C39.66,101.41,39,99.75,38.6,97.68Zm12.08,3.14c-.25-1.87-.9-7.71-.59-9.4l18.88,0a52.9,52.9,0,0,1-.6,9.18c-.94.08-3.14-.24-4.24-.3A81.51,81.51,0,0,0,50.68,100.82Zm17.38,1.76c-.28,3.87-3,12.93-5.93,15.47-6.11,5.22-9.81-8.53-10.67-12.61-.64-3-.7-2.75.36-2.83A84.72,84.72,0,0,1,68.06,102.58Zm-3.67,15.86c.3-.54.67-1,1.06-1.61,2.47-3.77,3.74-9.59,4.54-14a40.21,40.21,0,0,1,8.22,1.85,25.88,25.88,0,0,1-2.52,4.86,1.88,1.88,0,0,1-.18.24,25.62,25.62,0,0,1-4.52,5A18.54,18.54,0,0,1,64.39,118.44ZM40.93,105c1.31-.52,6.7-2.08,8.12-2a20.66,20.66,0,0,1,.44,2.24,41,41,0,0,0,3.16,9.88l2,3.25c-3.14-.76-6.66-3.45-8.35-5.27S41.52,107.24,40.93,105Zm-4.29,2.08a5.6,5.6,0,0,1,2.48-1.28c.48.74.93,1.83,1.33,2.6A31.35,31.35,0,0,0,45,114.65l.42.52C42.94,114.1,38.23,109.67,36.64,107.1Zm37.7,7.18a21.58,21.58,0,0,0,2.21-2.69c.67-1,1.3-1.88,1.92-3l1.65-3.19A16.06,16.06,0,0,1,83.49,107c-.35,1.25-4,4.67-5.06,5.59-1.43,1.23-5.11,3.73-6.6,4.07Z"></path> </g> </g> </svg> 