<svg xmlns="http://www.w3.org/2000/svg" viewBox="0 0 52.26 52.26"><defs><style>.cls-1,.cls-2{fill:#5d6541;}.cls-2{fill-rule:evenodd;}</style></defs><g id="Layer_2" data-name="Layer 2"><g id="Слой_1" data-name="Слой 1"><path class="cls-1" d="M41.61,10.65A21.9,21.9,0,1,0,48,26.13a21.84,21.84,0,0,0-6.41-15.48M26.13,0A26.12,26.12,0,1,1,7.65,7.65,26.06,26.06,0,0,1,26.13,0Z"/><polygon class="cls-2" points="42.81 20.71 29.47 34.05 29.57 34.15 26.23 37.5 26.13 37.4 26.03 37.5 22.68 34.15 22.78 34.05 9.27 20.53 12.61 17.19 26.13 30.71 39.65 17.19 42.99 20.53 42.81 20.71"/></g></g></svg>