<?xml version="1.0" encoding="UTF-8"?> <svg xmlns="http://www.w3.org/2000/svg" viewBox="0 0 315.56 154.43"> <defs> <style>.cls-1,.cls-2{fill:#656b4e;}.cls-2{fill-rule:evenodd;}</style> </defs> <title>Asset 4@10x</title> <g id="Layer_2" data-name="Layer 2"> <g id="Layer_1-2" data-name="Layer 1"> <path class="cls-1" d="M0,154.43V0H51.83V6.06H11.06V107.73H51.83v6.41H11.06v40.29Z"></path> <path class="cls-1" d="M110.61,136.8c0-6.14.17-10.07-3.18-15.22-4.22-4.43-8.4-7.5-14.47-7.5H79.18v40.28H68V0H93a26.86,26.86,0,0,1,22.1,11,27.7,27.7,0,0,1,6,17.87V85.61a29.09,29.09,0,0,1-2,10.67,22.64,22.64,0,0,1-5.45,8.65,27.37,27.37,0,0,1-8,6,27.1,27.1,0,0,1,11.19,10.68,26.24,26.24,0,0,1,4.32,14.68v18.1H110.61ZM79.18,6.35V107.73H93c6.12,0,9.41-3.62,13.63-7.85,3.35-5,3.84-8.18,3.84-14.34V28.82c0-6.14-.49-9.51-3.84-14.55C102.37,9.66,99.08,6.35,93,6.35Z"></path> <path class="cls-1" d="M138.48,154.43,136.8,0h52.39V6.06H148.7V107.73h40.49v6.41H148.7v34.3h40.49v6Z"></path> <path class="cls-2" d="M315.56,154.43H304.5l-6.56-40.29H267.72l-5,40.29H251.78L276.12,0H287ZM297.1,108.27H268.56L282,26Z"></path> <path class="cls-1" d="M232.37,154.43H220.62v-47L203,0h7.64l15.94,94,16-94H250L232.37,107.43Z"></path> </g> </g> </svg> 