<?xml version="1.0" encoding="UTF-8"?> <svg xmlns="http://www.w3.org/2000/svg" viewBox="0 0 307.62 334.93"> <defs> <style>.cls-1{fill:#fff;}.cls-2,.cls-3{fill:#b6be84;}.cls-3{fill-rule:evenodd;}</style> </defs> <g id="Capa_2" data-name="Capa 2"> <g id="Capa_1-2" data-name="Capa 1"> <polygon class="cls-1" points="1.1 0 307.62 0 307.62 334.93 0 334.93 0 0 1.1 0"></polygon> <path class="cls-2" d="M202.83,280.12V265.71H213.7v2.82H206v2.92h6.79v2.83H206v3h7.82v2.82Zm-13.75-14.41h10.29v14.41H196.2V268.57H192v1.09a33.19,33.19,0,0,1-.5,6.55,6.08,6.08,0,0,1-1.48,3.21,3.83,3.83,0,0,1-2.69.89,6.29,6.29,0,0,1-1.67-.19l.21-2.61a3.1,3.1,0,0,0,.49,0,2,2,0,0,0,1.14-.3,2.71,2.71,0,0,0,.83-1.2,9.9,9.9,0,0,0,.54-2.71c.11-1.2.17-2.75.17-4.65Zm-13.73,8.38h3.82l-1.91-4.67Zm-5.69,6,6.18-14.51h2.92l6.18,14.51h-3.32l-1.31-3.23h-6.1l-1.31,3.23Zm-13.79,0V265.71H159V272l5.85-6.3h3.83l-5.87,6.12,6.13,8.29h-3.8L160.71,274,159,275.72v4.4ZM145.29,273h2.51a2.61,2.61,0,0,0,1.84-.62,2.08,2.08,0,0,0,.67-1.61,2,2,0,0,0-.68-1.61,2.84,2.84,0,0,0-1.89-.57h-2.45Zm-3.17,7.14V265.71H148a5.68,5.68,0,0,1,4,1.38,4.73,4.73,0,0,1,1.48,3.64,4.54,4.54,0,0,1-1.64,3.74,6.42,6.42,0,0,1-4.18,1.33h-2.41v4.32Zm-13.79,0V265.71H139.2v2.82h-7.72v2.92h6.79v2.83h-6.79v3h7.82v2.82ZM120,265.46a6.09,6.09,0,0,1,3.75,1.09,3.35,3.35,0,0,1,1.46,2.78,3.43,3.43,0,0,1-2.33,3.32,3.38,3.38,0,0,1,2.7,3.4,3.83,3.83,0,0,1-1.5,3.11,6.1,6.1,0,0,1-4,1.21,9.9,9.9,0,0,1-3.69-.6,7.87,7.87,0,0,1-2.71-1.81l1.69-2.2a6.32,6.32,0,0,0,4.59,1.83,3,3,0,0,0,1.74-.46,1.45,1.45,0,0,0,.69-1.27,1.36,1.36,0,0,0-.78-1.28,4.51,4.51,0,0,0-2.09-.41h-1.66v-2.63h1.62c1.72,0,2.58-.56,2.58-1.67a1.37,1.37,0,0,0-.64-1.18,3,3,0,0,0-1.69-.43,5.2,5.2,0,0,0-3.89,1.59l-1.67-2A7.69,7.69,0,0,1,120,265.46ZM96.91,277.34h3.77c1.49,0,2.24-.53,2.24-1.6s-.78-1.57-2.35-1.57H96.91Zm0-5.8h2.92c1.53,0,2.29-.53,2.29-1.57a1.26,1.26,0,0,0-.54-1.1,2.65,2.65,0,0,0-1.54-.38H96.91Zm-3.09,8.58V265.71h6.69a5.08,5.08,0,0,1,3.77,1.28,3.55,3.55,0,0,1-.91,5.6,4.6,4.6,0,0,1,2,1.35,3.43,3.43,0,0,1,.68,2.23,3.36,3.36,0,0,1-1.44,2.94,6.74,6.74,0,0,1-3.95,1Zm119.11-23.31V242.4H223.8v2.82h-7.72v2.92h6.79V251h-6.79v3h7.82v2.82Zm-3.46-14.41v14.41h-3.13v-9.45l-6.3,9.45h-3V242.4h3.13v9.45l6.34-9.45Zm-28.06,14.41V242.4h3.17v5.7h5.84v-5.7h3.18v14.41h-3.18V251h-5.84v5.78Zm-13.8,0V242.4h10.87v2.82h-7.72v2.92h6.8V251h-6.8v3h7.83v2.82Zm-11.67,0h-3.15V253l-1.91-2.06-4.06,5.89H143l5.71-8.17-5.5-6.24H147l5.78,6.73V242.4h3.15v6.73l5.79-6.73h3.76L160,248.64l5.7,8.17h-3.79l-4.07-5.89-1.9,2.06Zm-23.18-6h3.83l-1.91-4.68Zm-5.68,6,6.18-14.51h2.92l6.18,14.51H139l-1.32-3.23h-6.09l-1.32,3.23Zm-9.35-7.14h2.52a2.63,2.63,0,0,0,1.84-.62,2.11,2.11,0,0,0,.67-1.61,2,2,0,0,0-.68-1.61,2.89,2.89,0,0,0-1.9-.57h-2.45Zm-3.17,7.14V242.4h5.89a5.71,5.71,0,0,1,4,1.38,4.76,4.76,0,0,1,1.48,3.64,4.53,4.53,0,0,1-1.65,3.74,6.42,6.42,0,0,1-4.18,1.33h-2.41v4.32Zm-10,0V245.32h-4.39V242.4h11.94v2.92h-4.38v11.49Zm-16.94-4a4.35,4.35,0,0,0,6.23,0,4.56,4.56,0,0,0,1.22-3.22,4.51,4.51,0,0,0-1.24-3.22,4.35,4.35,0,0,0-6.23,0,4.57,4.57,0,0,0-1.22,3.23A4.5,4.5,0,0,0,87.64,252.82Zm8.56,2.08a8,8,0,0,1-10.94,0,7.51,7.51,0,0,1,0-10.58,8,8,0,0,1,11,0,7.51,7.51,0,0,1,0,10.59Zm120.7-21.4V219.09h10.87v2.82h-7.72v2.92h6.79v2.82h-6.79v3h7.82v2.82Zm-10,0V222h-4.39v-2.92h11.94V222h-4.38V233.5Zm-6.82-14.41V233.5H197v-9.45l-6.3,9.45h-3V219.09h3.13v9.45l6.34-9.45ZM180.56,222H176.3v1.46a19,19,0,0,1-1.29,7.23h5.55Zm-10.25,14.56v-5.87h1.36a18.19,18.19,0,0,0,1.22-4.14,36.37,36.37,0,0,0,.37-5.72v-1.69h10.47v11.55h1.73l-.41,5.87H182.4v-3h-9l-.21,3Zm-1.93-17.42V233.5h-3.13v-9.45L159,233.5h-3V219.09h3.13v9.45l6.34-9.45Zm-24.19,11.63H148c1.5,0,2.25-.53,2.25-1.6s-.78-1.57-2.35-1.57h-3.66Zm0-5.81h2.92c1.52,0,2.29-.52,2.29-1.56a1.26,1.26,0,0,0-.54-1.1,2.6,2.6,0,0,0-1.54-.38h-3.13Zm-3.09,8.59V219.09h6.69a5.12,5.12,0,0,1,3.77,1.27,3.56,3.56,0,0,1-.91,5.61,4.73,4.73,0,0,1,2,1.34,3.46,3.46,0,0,1,.68,2.24,3.36,3.36,0,0,1-1.44,2.94,6.75,6.75,0,0,1-4,1Zm-11.82-6h3.83l-1.91-4.68Zm-5.68,6L129.78,219h2.92l6.18,14.52h-3.32l-1.32-3.23h-6.09l-1.32,3.23Zm-14.41,0V219.09h3.17v5.7h5.85v-5.7h3.17V233.5h-3.17v-5.78h-5.85v5.78Zm-13.79,0V219.09h10.87v2.82H98.55v2.92h6.79v2.82H98.55v3h7.82v2.82Zm-15.65,0V219.09h3.17v5.7h5.85v-5.7h3.17V233.5H88.77v-5.78H82.92v5.78Z"></path> <path class="cls-3" d="M146,116.6c-.49-.95-.93-2.24-1.38-3.28a9.84,9.84,0,0,1-1.16-3.48c0-1.17-.12-8.93.06-9.32.13-.15.07-.1.62,0l2.2.28c1,.09,1.93.26,2.9.35,1.89.2,3.91.45,5.81.72,1.53.21,11.08,1.26,11.63,1.49-.38.42-10.59,8.47-11.76,9.45a6.69,6.69,0,0,1-2.59,1.64c-1.07.36-2.06.74-3.12,1.1A28.2,28.2,0,0,1,146,116.6m-35.42-10.08c.39.09,5.47,3.48,6.28,4l9.51,6.09c3.73,2.32,2.22,1.42,4.93,5.45.37.54.65,1,1,1.57s.73,1.1,1,1.64c0,.19-2.88,5.49-3.22,6.14-.68,1.29-.78,1.29-2.31,2.36-2.53,1.77-5.43,4.13-8,6-.91.66-1.77,1.32-2.69,2a20.27,20.27,0,0,1-2.73,1.94l-.49-4.6c-.18-1.56-.33-3.1-.48-4.65l-1.9-18.54C111.38,114.6,110.52,107.1,110.61,106.52Zm30-16c.09,1,0,13.53,0,15v3.7c0,1.89-.14,1.61-.78,3-.39.87-.82,1.71-1.22,2.57s-.82,1.77-1.24,2.55L131.53,116a3,3,0,0,1-1.32-.43c-3.94-2.49-8-5.26-12-7.67.12-.34.34-.39.63-.62l.69-.55,18.17-14.17c.46-.37.89-.73,1.38-1.09S140.29,90.48,140.6,90.49Zm11.14,38.63c-1.26.1-5.78-.1-6.48.31-1.1.64-1.11,4.13-1.71,5.16-.4-.17-3-3.9-3.58-4.52-1.08-1.07-4.16.7-6.27,1a45.32,45.32,0,0,1,2.22-4.35c1.08-2,.59-1.7-1.07-4.54a24,24,0,0,1-1.67-2.78c2.35.07,5.07,1.82,6.19.38.31-.42,1.51-3.09,1.91-3.91.2-.41.38-1,.68-1.24a20.24,20.24,0,0,1,1.23,2.73c.37.92.69,2.2,1.56,2.5s2.38-.5,3.11-.75a30.45,30.45,0,0,1,3-1c0,.46-3,5.27-3.1,6-.21,1.06.93,1.86,1.79,2.73A19.42,19.42,0,0,1,151.74,129.12Zm-.76-5c.07-.34,2.85-5.38,3.4-6.35a4.69,4.69,0,0,1,1.4-2l6.42-5.12.45-.35c.2-.17.26-.27.54-.31l.71,22.42c-.38,0-6.78-2.71-7.55-3.08-.37-.18-3.42-3.23-4-3.9S151.47,124.7,151,124.12Zm-3.82,8c1.05-.13,2.68-.08,3.79-.09s2.66-.09,3.88,0c.65,0,9.67,4,11.08,4.56l2.73,1.14a23.81,23.81,0,0,1,2.74,1.21c-.16.36-10.9,8.19-11.21,8.42-.61.46-10.9,8.2-11.33,8.38a53.33,53.33,0,0,1-1.07-5.87c-.23-1.66-2.07-11.23-2-12Zm51.9,15.24a57.45,57.45,0,0,0,2.17-67.8L174.7,100.72c-.94.78-2,1.52-2.9,2.31l-5.75,4.63.17,6.76c0,2.17.09,4.55.23,6.72.23,3.37.13,6.82.31,10.18.14,2.63-.21,2.43.76,2.74l19.76,8.36c3.35,1.35,6.59,2.78,9.92,4.17Zm-48,22c.91,0,1.82.06,2.74.06a57.31,57.31,0,0,0,43.33-19.73c-8.73-3.7-22.31-9.47-22.57-9.41a18.55,18.55,0,0,0-1.55,1.13c-.52.37-1,.74-1.52,1.12-1.05.78-2,1.48-3,2.26l-9.06,6.72c-1,.75-2,1.46-3,2.22l-4.56,3.37c-.86.65-1.66,1.32-2.51,2l.51,3.12.92,5.47Zm-40.25-19.29a57.27,57.27,0,0,0,37.31,19.07l-1.21-7h0c-.34-1.84-.65-3.63-.95-5.47h0c-.21-1.31-.51-2.93-.67-3.88l-.28-1.56c-.05-.14,0-.1-.1-.17-.32-.27-5.13-1.83-6-2.11l-18.32-6.19ZM98,98.21a57.52,57.52,0,0,0,10.9,49.65l1.12-.83a15.46,15.46,0,0,0,1.58-1.24l-4.22-41.4C106.86,104.05,101.81,100.74,98,98.21Zm42.59-42.12A57.54,57.54,0,0,0,98.86,95.22l14.67,9.66c2.45,1.58,1.79,1.48,3,.62,1.92-1.42,4-3.21,6-4.71s4.45-3.58,6.43-5a1.91,1.91,0,0,0,.21-.15.64.64,0,0,0,.22-.27,26.07,26.07,0,0,0,2.84-2.14c.54-.42,8.32-6.42,8.4-6.63V84.33h0Zm13.18-1.53a57.69,57.69,0,0,0-10.33.93l0,29.16h0c0,2.52-.15,12.06.13,12.79l.26.1.39,0c.25,0,.51.07.79.09l4.78.6c2.11.31,4.22.52,6.36.79,4.26.53,8.53,1,12.77,1.57,1.18.16,1,.25,2.34-.92,3.62-3.07,23.27-18.44,27.07-21.57.18-.15.7-.53,1.16-.91A57.35,57.35,0,0,0,153.81,54.56Zm-30.2,86,6.42-4.88c1.76-1.24,1.47-1.07,3.94-1.7a38.79,38.79,0,0,1,4.47-1.18c.45.51,4.38,5.64,4.48,5.92a19.34,19.34,0,0,1,.38,2.18l1.12,6.79c-.73-.08-17.31-5.89-20.22-6.83C123.53,140.69,123.74,140.77,123.61,140.6Z"></path> </g> </g> </svg> 