<?xml version="1.0" encoding="UTF-8"?> <svg xmlns="http://www.w3.org/2000/svg" viewBox="0 0 335.36 335.46"> <defs> <style>.cls-1{fill:#536929;}</style> </defs> <g id="Capa_2" data-name="Capa 2"> <g id="Capa_1-2" data-name="Capa 1"> <path class="cls-1" d="M333.16,2.21H2.21v331h331ZM1.1,0H335.36V335.46H0V0Z"></path> <path class="cls-1" d="M218.57,272.86v14.42h-3.13v-9.46l-6.3,9.46h-3V272.86h3.13v9.45l6.34-9.45Zm-28.06,14.42V272.86h3.17v5.71h5.85v-5.71h3.17v14.42h-3.17v-5.79h-5.85v5.79Zm-8.34-14.67a6.14,6.14,0,0,1,3.76,1.09,3.35,3.35,0,0,1,1.45,2.79,3.42,3.42,0,0,1-2.32,3.31,3.38,3.38,0,0,1,2.69,3.4,3.82,3.82,0,0,1-1.49,3.11,6.1,6.1,0,0,1-4,1.21,10.21,10.21,0,0,1-3.7-.59,8.14,8.14,0,0,1-2.71-1.82l1.69-2.2a6.32,6.32,0,0,0,4.59,1.83,3,3,0,0,0,1.74-.46,1.45,1.45,0,0,0,.69-1.27,1.34,1.34,0,0,0-.77-1.27,4.38,4.38,0,0,0-2.09-.42h-1.67v-2.63h1.63c1.72,0,2.57-.56,2.57-1.67a1.33,1.33,0,0,0-.64-1.17,2.91,2.91,0,0,0-1.68-.44A5.19,5.19,0,0,0,178,277l-1.67-2A7.67,7.67,0,0,1,182.17,272.61Zm-8.58.25v14.42h-3.13v-9.46l-6.3,9.46h-3V272.86h3.12v9.45l6.35-9.45ZM149.5,287.28h-3.15v-3.83l-1.91-2.06-4.06,5.89H136.6l5.7-8.18-5.5-6.24h3.77l5.78,6.73v-6.73h3.15v6.73l5.79-6.73h3.76l-5.49,6.24,5.7,8.18h-3.79l-4.07-5.89-1.9,2.06Zm-29.31-2.78H124c1.5,0,2.25-.54,2.25-1.61s-.78-1.57-2.35-1.57h-3.66Zm0-5.81h2.92c1.52,0,2.29-.52,2.29-1.57a1.27,1.27,0,0,0-.54-1.1,2.67,2.67,0,0,0-1.54-.38h-3.13Zm-3.09,8.59V272.86h6.69a5.12,5.12,0,0,1,3.77,1.28,3.55,3.55,0,0,1-.91,5.6,4.66,4.66,0,0,1,2,1.35,3.43,3.43,0,0,1,.68,2.23,3.39,3.39,0,0,1-1.44,2.95,6.82,6.82,0,0,1-4,1Zm145.38-30.73h3.21v-4.14h-3.15a2.81,2.81,0,0,0-1.83.54,2.1,2.1,0,0,0,0,3.05A2.65,2.65,0,0,0,262.48,256.55Zm6.38-7V264h-3.17v-4.61H263.2L260.11,264h-3.7l3.52-5.14a4.87,4.87,0,0,1-1.64-8,5.84,5.84,0,0,1,4-1.27ZM249,264.21a7.1,7.1,0,0,1-5.28-2.15,7.47,7.47,0,0,1,5.4-12.76,7.37,7.37,0,0,1,3.15.61,9,9,0,0,1,2.43,1.74l-1.89,2.18a7.23,7.23,0,0,0-1.74-1.22,4.53,4.53,0,0,0-2-.38,3.85,3.85,0,0,0-3,1.3,5,5,0,0,0,0,6.44,3.84,3.84,0,0,0,3,1.32,4.57,4.57,0,0,0,2-.41,7.93,7.93,0,0,0,1.79-1.28l2,2.16a7.58,7.58,0,0,1-2.55,1.85A8.35,8.35,0,0,1,249,264.21Zm-14.72-7h-2.8v3.93h2.82c1.58,0,2.37-.67,2.37-2S235.89,257.17,234.3,257.17Zm-6,6.79V249.55h3.17v4.9h3.07a5.56,5.56,0,0,1,3.87,1.27,4.37,4.37,0,0,1,1.4,3.41,4.49,4.49,0,0,1-1.47,3.53,5.85,5.85,0,0,1-4,1.3Zm-10,0V252.47H214v-2.92H225.9v2.92h-4.38V264Zm-15.17-6H207l-1.91-4.67Zm-5.68,6,6.18-14.51h2.92L212.77,264h-3.32l-1.32-3.23H202L200.72,264Zm-16.63,0V249.55h3.41l3.79,6.1,3.79-6.1h3.42V264h-3.15v-9.41l-4.06,6.16H188l-4-6.09V264Zm-3.46-14.41V264h-3.13v-9.45L168,264h-3V249.55h3.13V259l6.34-9.45ZM149.34,264V249.55h3.17v5.7h5.85v-5.7h3.17V264h-3.17v-5.78h-5.85V264Zm-11.82-6h3.83l-1.91-4.67Zm-5.68,6L138,249.45h2.92L147.11,264H143.8l-1.32-3.23h-6.09L135.07,264Zm-7.1-14.66a6.11,6.11,0,0,1,3.75,1.09,3.35,3.35,0,0,1,1.46,2.78,3.43,3.43,0,0,1-2.33,3.32,3.38,3.38,0,0,1,2.7,3.4,3.83,3.83,0,0,1-1.5,3.11,6.1,6.1,0,0,1-4,1.21,10,10,0,0,1-3.7-.6,7.92,7.92,0,0,1-2.7-1.81l1.69-2.2a6.29,6.29,0,0,0,4.59,1.83,3,3,0,0,0,1.74-.46,1.45,1.45,0,0,0,.69-1.27,1.35,1.35,0,0,0-.78-1.27,4.38,4.38,0,0,0-2.09-.42h-1.66v-2.63h1.62c1.72,0,2.58-.56,2.58-1.67a1.35,1.35,0,0,0-.64-1.17,3,3,0,0,0-1.69-.44,5.2,5.2,0,0,0-3.89,1.59l-1.67-2A7.69,7.69,0,0,1,124.74,249.3ZM95.57,264V249.55H99l3.79,6.1,3.79-6.1H110V264h-3.15v-9.41l-4.06,6.16h-.08l-4-6.09V264Zm-13.8,0V249.55H92.64v2.82H84.92v2.93h6.8v2.82h-6.8v3h7.83V264Zm-6.63,0v-5.37a8.92,8.92,0,0,1-3.8,1.07,5,5,0,0,1-3.55-1.21,4.76,4.76,0,0,1-1.29-3.63v-5.27h3.17v4.34c0,1.87.77,2.81,2.32,2.81a5,5,0,0,0,3.15-.93v-6.22h3.17V264Zm151.51-20-.27-1.3c1.35-.15,2-.75,2-1.81v-.23h-1.28v-3.29h3.34v2.78a3.83,3.83,0,0,1-1,2.89A4.13,4.13,0,0,1,226.65,244Zm-12.87-3.34V226.24h10.87v2.82h-7.72V232h6.8v2.83h-6.8v3h7.83v2.82Zm-10,0V229.16h-4.38v-2.92h11.93v2.92H207v11.49Zm-17.15,0V226.24h10.87v2.82H189.8V232h6.8v2.83h-6.8v3h7.82v2.82Zm-11.82-6h3.83L176.75,230Zm-5.68,6,6.18-14.51h2.92l6.18,14.51h-3.32l-1.31-3.23h-6.1l-1.32,3.23Zm-14.41,0V226.24h3.17v5.7h5.85v-5.7h3.17v14.41h-3.17v-5.78h-5.85v5.78ZM146.4,226a6.14,6.14,0,0,1,3.76,1.09,3.34,3.34,0,0,1,1.45,2.78,3.42,3.42,0,0,1-2.32,3.32,3.38,3.38,0,0,1,2.69,3.4,3.82,3.82,0,0,1-1.49,3.11,6.1,6.1,0,0,1-4,1.21,10,10,0,0,1-3.7-.6,8,8,0,0,1-2.71-1.81l1.69-2.2a6.32,6.32,0,0,0,4.59,1.83,3,3,0,0,0,1.74-.46,1.45,1.45,0,0,0,.69-1.27,1.35,1.35,0,0,0-.77-1.28,4.51,4.51,0,0,0-2.09-.41h-1.67v-2.63h1.63c1.72,0,2.57-.56,2.57-1.67a1.36,1.36,0,0,0-.63-1.18,3,3,0,0,0-1.69-.43,5.19,5.19,0,0,0-3.89,1.59l-1.67-2A7.67,7.67,0,0,1,146.4,226Zm-25.09,14.66V226.24h10.87v2.82h-7.72V232h6.79v2.83h-6.79v3h7.82v2.82Zm-15.65,0V226.24h3.17v5.7h5.85v-5.7h3.17v14.41h-3.17v-5.78h-5.85v5.78Z"></path> <path class="cls-1" d="M206.05,69.51a54.27,54.27,0,0,0-92.64,38.37c2.21,24.75,10.6,25.84,15.6,47.58,2.47,10.7,9.94,33.58,25.28,27.22,8.1-3.35,13.52-20.5,19.59-29,14.21-19.86,38.08-25.55,44.8-35,9.37-13.17-1.13-35.59-10.32-46.47Zm-7.9,7.9a43.09,43.09,0,0,0-73.56,30.47c2,18.8,8.85,21.65,11.3,38.31,2.1,14.2,8.39,34.31,23.16,15.27,16.78-21.62,21.32-25.36,42.57-41.09,10.77-8,11.15-16.79,5.95-28.81C205.08,85.81,202.16,82.1,198.15,77.41ZM167.68,57.73a50,50,0,0,1,35.46,14.69c10.44,12.61,24,36.84,6.5,49.52-14.14,10.24-23.46,12.19-35.56,27.52-6.61,8.38-15.82,30-26.54,29-16-1.49-13.85-30.31-20.48-41l-1-1.54c-6.09-9-8.14-17.31-8.57-28a50.15,50.15,0,0,1,50.15-50.15ZM190.3,85.26a32,32,0,0,0-54.61,22.62c1.74,13.19,6.1,17.36,8.3,30.59,4.77,28.77,20.21,3.7,32.09-7.26,15.47-14.29,33.41-19.69,16.74-42.9ZM167.68,68.83a38.9,38.9,0,0,1,27.61,11.44c7.31,9.3,16.73,24.81,6.86,35.59-5.2,5.69-18.8,14.26-26.36,21.66C163.08,150,144,184.08,138.63,143.41c-2.15-16.21-8.15-18.1-10-35.53a39.06,39.06,0,0,1,39.05-39ZM182.57,93a21.06,21.06,0,0,0-35.94,14.89c.65,5.25,5.22,27.44,12.51,26.8,5.78-.5,28.2-21.51,29.05-28.31C188.84,101.12,185.73,96.76,182.57,93ZM167.68,79.77A28.07,28.07,0,0,1,187.56,88c17.58,23.54-.22,29.14-17,45.28-17.62,17-19.67,18.62-25.06-4.51-2.1-9-4.68-9.82-6-20.89a28.12,28.12,0,0,1,28.11-28.11Zm0,17.73a10.34,10.34,0,0,0-7.34,3c-4,6.25-4.61,12.09,1.23,17.7C169.11,125.48,189.54,100.71,167.68,97.5Zm0-7.06A17.35,17.35,0,0,1,180,95.55c8.72,13,1.67,19.44-8.87,27.77-16.2,12.81-15.4,2.2-20-9.92a18.51,18.51,0,0,1-.87-5.52,17.45,17.45,0,0,1,17.44-17.44Zm-6,21.57c-5.63-15.7,18.52-12.65,11.25-1.31C169.7,115.81,165.48,117.52,161.73,112Zm6-65.46A61.35,61.35,0,0,1,229,107.88c-2.52,23.59-13.54,20.46-31.71,31.22-17.46,10.36-22.3,19.68-29.23,38.07-9.19,24.42-30.81,14.87-39.45-6.39-3.45-8.48-4.84-16.12-9.17-24.6-9.43-16.05-12-18.59-13.09-38.3a61.34,61.34,0,0,1,61.32-61.33Z"></path> </g> </g> </svg> 