<?xml version="1.0" encoding="UTF-8"?> <svg xmlns="http://www.w3.org/2000/svg" viewBox="0 0 307.62 334.93"> <defs> <style>.cls-1{fill:#fff;}.cls-2,.cls-3{fill:#b6be84;}.cls-3{fill-rule:evenodd;}</style> </defs> <g id="Capa_2" data-name="Capa 2"> <g id="Capa_1-2" data-name="Capa 1"> <polygon class="cls-1" points="1.1 0 307.62 0 307.62 334.93 0 334.93 0 0 1.1 0"></polygon> <path class="cls-2" d="M230.6,281.27l5-7.33-4.81-7.08h3.7l3,4.67,3-4.67h3.61l-4.82,7,5,7.37h-3.7l-3.23-4.94-3.26,4.94Zm-8.77-7.41H225v-4.14h-3.15a2.87,2.87,0,0,0-1.83.53,1.91,1.91,0,0,0-.66,1.57,1.85,1.85,0,0,0,.65,1.48A2.65,2.65,0,0,0,221.83,273.86Zm6.38-7v14.41H225v-4.61h-2.49l-3.09,4.61h-3.7l3.52-5.15a4.87,4.87,0,0,1-1.64-8,5.88,5.88,0,0,1,4-1.26Zm-14.86,0v14.41h-3.13v-9.45l-6.3,9.45h-3V266.86h3.13v9.45l6.34-9.45Zm-28.06,14.41V266.86h3.17v5.7h5.85v-5.7h3.17v14.41h-3.17v-5.79h-5.85v5.79Zm-13.79,0V266.86h10.87v2.82h-7.72v2.92h6.79v2.82h-6.79v3h7.82v2.82ZM168,266.86v14.41H148.25V266.86h3.17v11.55h5.13V266.86h3.17v11.55h5.15V266.86Zm-33.37,10.42a4.11,4.11,0,0,0,3.13,1.31,4,4,0,0,0,3.1-1.3,4.59,4.59,0,0,0,1.22-3.23,4.5,4.5,0,0,0-1.24-3.21,4.35,4.35,0,0,0-6.23,0,4.56,4.56,0,0,0-1.22,3.22A4.51,4.51,0,0,0,134.67,277.28Zm8.56,2.08a8,8,0,0,1-10.94,0,7.51,7.51,0,0,1,0-10.58,8,8,0,0,1,10.95,0,7.51,7.51,0,0,1,0,10.59Zm-28.12,1.91V266.86h3.17v5.7h5.85v-5.7h3.17v14.41h-3.17v-5.79h-5.85v5.79Zm-10,0V269.78h-4.39v-2.92h11.94v2.92H108.3v11.49Zm-16.95-4a4.14,4.14,0,0,0,3.13,1.31,4.06,4.06,0,0,0,3.11-1.3,4.86,4.86,0,0,0,0-6.44,4.36,4.36,0,0,0-6.24,0,4.86,4.86,0,0,0,0,6.44Zm8.57,2.08a8,8,0,0,1-11,0,7.24,7.24,0,0,1-2.17-5.3,7.16,7.16,0,0,1,2.19-5.28,8,8,0,0,1,11,0,7.51,7.51,0,0,1,0,10.59Zm-30.43-.87h3.77c1.49,0,2.24-.54,2.24-1.61s-.78-1.56-2.35-1.56H66.32Zm0-5.81h2.92c1.52,0,2.29-.52,2.29-1.56A1.26,1.26,0,0,0,71,270a2.6,2.6,0,0,0-1.54-.38H66.32Zm-3.09,8.59V266.86h6.69a5.12,5.12,0,0,1,3.77,1.27,3.55,3.55,0,0,1-.91,5.6,4.77,4.77,0,0,1,2,1.35,3.46,3.46,0,0,1,.68,2.24A3.36,3.36,0,0,1,74,280.26a6.81,6.81,0,0,1-4,1ZM226,243.54V258h-3.13v-9.45l-6.3,9.45h-3V243.54h3.13V253l6.34-9.46ZM203.61,258V246.47h-4.38v-2.93h11.94v2.93h-4.39V258Zm-11.8.25a7.09,7.09,0,0,1-5.28-2.16,7.46,7.46,0,0,1,5.41-12.75,7.38,7.38,0,0,1,3.15.6,9.27,9.27,0,0,1,2.43,1.74l-1.9,2.19a7.19,7.19,0,0,0-1.74-1.23,4.63,4.63,0,0,0-2-.38,3.88,3.88,0,0,0-3,1.31,5,5,0,0,0,0,6.43,3.86,3.86,0,0,0,3,1.32,4.39,4.39,0,0,0,2-.41,7.66,7.66,0,0,0,1.8-1.28l2,2.17a7.83,7.83,0,0,1-2.54,1.85A8.36,8.36,0,0,1,191.81,258.21ZM171.47,254a4.12,4.12,0,0,0,3.13,1.32,4,4,0,0,0,3.11-1.3,4.59,4.59,0,0,0,1.22-3.23,4.5,4.5,0,0,0-1.24-3.21,4.36,4.36,0,0,0-6.24,0,4.55,4.55,0,0,0-1.21,3.22A4.5,4.5,0,0,0,171.47,254ZM180,256a8,8,0,0,1-10.94,0,7.5,7.5,0,0,1,0-10.57,8,8,0,0,1,10.95,0A7.5,7.5,0,0,1,180,256ZM151.92,258V243.54h3.17v5.71h5.84v-5.71h3.17V258h-3.17v-5.79h-5.84V258Zm-11.67,0H137.1v-3.83l-1.92-2.06L131.13,258h-3.79l5.7-8.18-5.5-6.24h3.77l5.79,6.74v-6.74h3.15v6.74l5.78-6.74h3.77l-5.5,6.24L150,258h-3.78l-4.08-5.89-1.89,2.06Zm-25-4a4.12,4.12,0,0,0,3.13,1.32,4,4,0,0,0,3.11-1.3,4.83,4.83,0,0,0,0-6.44,4.36,4.36,0,0,0-6.24,0,4.55,4.55,0,0,0-1.21,3.22A4.5,4.5,0,0,0,115.29,254Zm8.57,2.08a8,8,0,0,1-10.94,0,7.47,7.47,0,0,1,0-10.57,8,8,0,0,1,11,0,7.5,7.5,0,0,1,0,10.58Zm-26.23-12.5h10.29V258h-3.17V246.41h-4.16v1.09a32.51,32.51,0,0,1-.5,6.55,6.16,6.16,0,0,1-1.47,3.21,3.87,3.87,0,0,1-2.7.89,6.8,6.8,0,0,1-1.67-.19l.21-2.62a3.38,3.38,0,0,0,.49,0,2,2,0,0,0,1.15-.3,2.69,2.69,0,0,0,.82-1.21,9.67,9.67,0,0,0,.55-2.71c.11-1.2.16-2.75.16-4.64ZM87.28,258.21A7.06,7.06,0,0,1,82,256.05a7.46,7.46,0,0,1,5.4-12.75,7.38,7.38,0,0,1,3.15.6A9.27,9.27,0,0,1,93,245.64l-1.9,2.19a7.19,7.19,0,0,0-1.74-1.23,4.63,4.63,0,0,0-2-.38,3.88,3.88,0,0,0-3,1.31,5,5,0,0,0,0,6.43,3.86,3.86,0,0,0,3,1.32,4.39,4.39,0,0,0,2-.41,7.46,7.46,0,0,0,1.8-1.28l2,2.17a7.83,7.83,0,0,1-2.54,1.85A8.35,8.35,0,0,1,87.28,258.21Zm137.81-23.56V220.23H236v2.82h-7.72V226H235v2.82h-6.8v3h7.83v2.82Zm-10,0V223.16h-4.39v-2.93h11.94v2.93h-4.38v11.49Zm-17.15,0V220.23h10.87v2.82h-7.72V226h6.79v2.82h-6.79v3h7.82v2.82Zm-11.82-6H190l-1.91-4.68Zm-5.68,6,6.18-14.52h2.92l6.18,14.52h-3.32l-1.32-3.23H185l-1.32,3.23Zm-10.54-2.78h3.77c1.49,0,2.24-.54,2.24-1.61s-.78-1.56-2.34-1.56h-3.67Zm0-5.81h2.92c1.53,0,2.29-.52,2.29-1.56a1.29,1.29,0,0,0-.54-1.11,2.65,2.65,0,0,0-1.54-.38h-3.13Zm-3.09,8.59V220.23h6.69a5.12,5.12,0,0,1,3.77,1.28,3.55,3.55,0,0,1-.9,5.6,4.71,4.71,0,0,1,2,1.35,3.84,3.84,0,0,1-.76,5.18,6.81,6.81,0,0,1-3.95,1Zm-3.46-14.42v14.42h-3.12V225.2l-6.3,9.45h-3V220.23h3.13v9.46l6.34-9.46Zm-24.08,14.42h-3.15v-3.83l-1.92-2.06-4.05,5.89h-3.79l5.7-8.18-5.49-6.24h3.76l5.79,6.74v-6.74h3.15V227l5.78-6.74h3.77l-5.5,6.24,5.71,8.18h-3.79l-4.08-5.89-1.89,2.06Zm-25.16,0V220.23H125v2.82h-7.72V226h6.79v2.82h-6.79v3h7.82v2.82Zm-10.58-7.15h2.51a2.56,2.56,0,0,0,1.84-.62,2.06,2.06,0,0,0,.67-1.6,2,2,0,0,0-.68-1.62,2.84,2.84,0,0,0-1.89-.56h-2.45Zm-3.17,7.15V220.23h5.89a5.68,5.68,0,0,1,4,1.38,4.75,4.75,0,0,1,1.48,3.65,4.54,4.54,0,0,1-1.64,3.74,6.47,6.47,0,0,1-4.18,1.32h-2.41v4.33Zm-13.79,0V220.23H97.46v2.82H89.74V226h6.79v2.82H89.74v3h7.82v2.82Zm-15.48,0V220.23h12v14.42H80V223.1H74.28v11.55Z"></path> <path class="cls-3" d="M152.83,91.1l-.08.08c-.54.59-3.13,4.84-3.49,5.44l-.85,1.43a.73.73,0,0,1,0,.09l-.06.09-.11.18-.22.36c-.12.22-.23.39-.37.63-.54.94-1,1.81-1.62,2.83a94.45,94.45,0,0,0-5.89,12c-2,5.28-2,9.59,1,13.95a14.2,14.2,0,0,0,23.45-.09c4.53-6.74,1.69-13.29-1.85-20.21-.87-1.71-8.52-15.62-9.9-16.83m1-37.69,24.4,11.75,24.4,11.75,6,26.41,6,26.4-16.88,21.17-16.89,21.17H126.73l-16.88-21.17L93,129.72l6-26.4,6-26.41,24.4-11.75Z"></path> </g> </g> </svg> 