<svg xmlns="http://www.w3.org/2000/svg" viewBox="0 0 108.86 104.72"><defs><style>.cls-1{fill:#fc9;fill-rule:evenodd;}</style></defs><g id="Layer_2" data-name="Layer 2"><g id="Слой_1" data-name="Слой 1"><polygon class="cls-1" points="87.67 0 98.26 10.6 108.86 21.19 98.26 31.79 87.67 42.38 77.07 31.79 66.48 21.19 77.07 10.6 87.67 0"/><polygon class="cls-1" points="21.28 66.16 10.64 84.58 0 103.01 21.28 103.01 42.55 103.01 31.91 84.58 21.28 66.16"/><polygon class="cls-1" points="87.67 64.44 79.39 68.43 71.1 72.42 69.06 81.39 67.01 90.35 72.74 97.54 78.47 104.72 87.67 104.72 96.86 104.72 102.59 97.54 108.33 90.35 106.28 81.39 104.24 72.42 95.95 68.43 87.67 64.44"/><polygon class="cls-1" points="21.28 0 31.87 8.09 42.47 16.19 38.42 29.28 34.37 42.38 21.28 42.38 8.18 42.38 4.13 29.28 0.09 16.19 10.68 8.09 21.28 0"/></g></g></svg>