<?xml version="1.0" standalone="no"?>
<!DOCTYPE svg PUBLIC "-//W3C//DTD SVG 20010904//EN"
 "http://www.w3.org/TR/2001/REC-SVG-20010904/DTD/svg10.dtd">
<svg version="1.0" xmlns="http://www.w3.org/2000/svg"
 width="2096.000000pt" height="2096.000000pt" viewBox="0 0 2096.000000 2096.000000"
 preserveAspectRatio="xMidYMid meet">
<metadata>
Created by potrace 1.14, written by Peter Selinger 2001-2017
</metadata>
<g transform="translate(0.000000,2096.000000) scale(0.100000,-0.100000)"
fill="#000000" stroke="none">
<path d="M9975 20953 c-2324 -112 -4549 -997 -6315 -2512 -916 -787 -1684
-1716 -2290 -2772 -146 -254 -412 -789 -527 -1059 -498 -1169 -768 -2340 -834
-3620 -15 -287 -6 -1014 15 -1280 72 -902 226 -1681 492 -2493 809 -2470 2501
-4541 4775 -5847 254 -146 789 -412 1059 -527 1169 -498 2340 -768 3620 -834
287 -15 1014 -6 1280 15 1566 126 2981 547 4310 1284 1543 855 2862 2104 3800
3596 952 1516 1491 3219 1590 5026 13 241 13 876 0 1111 -108 1904 -694 3670
-1741 5244 -830 1248 -1923 2309 -3189 3097 -1513 942 -3195 1470 -4994 1568
-165 9 -882 11 -1051 3z m-3335 -7388 l0 -125 -735 0 -735 0 0 -2115 0 -2115
735 0 735 0 0 -130 0 -130 -735 0 -735 0 0 -835 0 -835 -200 0 -200 0 0 3205
0 3205 935 0 935 0 0 -125z m1725 97 c231 -64 427 -210 570 -426 71 -108 109
-187 150 -310 68 -202 66 -152 62 -1646 l-3 -1345 -22 -90 c-48 -196 -102
-326 -184 -448 -55 -82 -207 -233 -286 -283 l-62 -41 57 -38 c78 -51 218 -194
275 -280 59 -90 139 -251 166 -335 56 -171 55 -163 59 -672 l4 -478 -186 0
-186 0 2 498 c2 529 0 553 -48 707 -37 118 -75 186 -145 261 -80 86 -188 157
-292 191 -79 26 -88 27 -373 31 l-293 4 0 -841 0 -841 -195 0 -195 0 0 3206 0
3205 523 -3 c503 -4 525 -5 602 -26z m3255 -97 l0 -125 -735 0 -735 0 2 -2112
3 -2113 733 -3 732 -2 0 -129 0 -129 -32 0 c-18 0 -349 0 -736 -1 l-702 -1 2
-712 3 -713 733 -3 732 -2 0 -120 0 -120 -915 0 c-503 0 -915 1 -915 3 -2 8
-59 6038 -60 6205 l0 202 945 0 945 0 0 -125z m1046 -1715 c343 -2309 306
-2071 316 -2035 5 17 134 885 288 1930 154 1045 282 1910 285 1923 5 21 9 22
136 22 l130 0 -6 -32 c-3 -18 -147 -1025 -320 -2238 l-315 -2205 0 -967 0
-968 -210 0 -210 0 0 988 0 987 -315 2205 c-173 1213 -315 2211 -315 2218 0
10 29 12 132 10 l132 -3 272 -1835z m2499 1818 c9 -39 1025 -6352 1025 -6370
0 -17 -16 -18 -195 -18 -179 0 -195 1 -196 18 0 9 -53 386 -117 837 l-117 820
-548 3 c-433 2 -549 0 -552 -10 -3 -7 -45 -384 -95 -837 -49 -453 -91 -826
-93 -828 -2 -2 -89 -2 -193 -1 l-190 3 357 2600 c197 1430 395 2871 440 3203
l83 602 193 0 c192 0 193 0 198 -22z"/>
<path d="M7632 11323 l3 -2108 250 -3 c402 -4 441 8 631 203 104 106 127 136
163 210 23 47 54 130 69 183 l27 97 0 1415 0 1415 -27 96 c-36 131 -87 239
-153 320 -121 150 -216 226 -324 259 -57 18 -92 20 -352 20 l-289 0 2 -2107z"/>
<path d="M14977 12600 c-3 -8 -112 -766 -242 -1685 -130 -918 -239 -1680 -242
-1692 l-5 -23 521 0 c325 0 521 4 521 10 0 14 -540 3383 -544 3395 -2 6 -6 3
-9 -5z"/>
</g>
</svg>
