<svg width="98" height="87" viewBox="0 0 98 87" fill="none" xmlns="http://www.w3.org/2000/svg">
<path d="M40.3741 28.2983L40.2135 28.795L39.7242 28.6132L11.3019 18.05L28.7463 41.0352L29.1055 41.5084L28.5779 41.7815L1.84425 55.6204L32.5364 57.4379L33.0963 57.471L32.9993 58.0235L28.1694 85.5113L48.6442 64.8111L48.9997 64.4517L49.3552 64.8111L69.8302 85.5112L64.9997 58.0235L64.9026 57.471L65.4626 57.4379L96.1557 55.6203L69.4216 41.7815L68.8941 41.5084L69.2532 41.0352L86.6982 18.05L58.2754 28.6132L57.7861 28.795L57.6254 28.2983L48.9997 1.625L40.3741 28.2983Z" fill="#E6A99F" stroke="black"/>
</svg>
