<svg xmlns="http://www.w3.org/2000/svg" viewBox="0 0 224.71 224.77"><defs><style>.cls-1{fill:#fff;fill-rule:evenodd;}.cls-2{fill:none;stroke:#fff;stroke-miterlimit:22.93;}</style></defs><g id="Layer_2" data-name="Layer 2"><g id="Слой_1" data-name="Слой 1"><polygon class="cls-1" points="112.23 112.39 17.19 120.5 0.44 122.18 17.23 120.93 112.23 112.39"/><polygon class="cls-2" points="112.23 112.39 17.19 120.5 0.44 122.18 17.23 120.93 112.23 112.39"/><polygon class="cls-1" points="112.23 112.41 18.25 128.76 1.71 131.9 18.32 129.19 112.23 112.41"/><polygon class="cls-2" points="112.23 112.41 18.25 128.76 1.71 131.9 18.32 129.19 112.23 112.41"/><polygon class="cls-1" points="112.24 112.42 20.02 136.91 3.81 141.48 20.13 137.33 112.24 112.42"/><polygon class="cls-2" points="112.24 112.42 20.02 136.91 3.81 141.48 20.13 137.33 112.24 112.42"/><polygon class="cls-1" points="112.24 112.43 22.51 144.87 6.76 150.83 22.65 145.27 112.24 112.43"/><polygon class="cls-2" points="112.24 112.43 22.51 144.87 6.76 150.83 22.65 145.27 112.24 112.43"/><polygon class="cls-1" points="112.24 112.44 25.69 152.57 10.52 159.88 25.87 152.96 112.24 112.44"/><polygon class="cls-2" points="112.24 112.44 25.69 152.57 10.52 159.88 25.87 152.96 112.24 112.44"/><polygon class="cls-1" points="112.25 112.45 29.52 159.97 15.05 168.58 29.74 160.34 112.25 112.45"/><polygon class="cls-2" points="112.25 112.45 29.52 159.97 15.05 168.58 29.74 160.34 112.25 112.45"/><polygon class="cls-1" points="112.25 112.45 33.99 167.01 20.33 176.84 34.24 167.36 112.25 112.45"/><polygon class="cls-2" points="112.25 112.45 33.99 167.01 20.33 176.84 34.24 167.36 112.25 112.45"/><polygon class="cls-1" points="112.26 112.46 39.05 173.63 26.3 184.62 39.33 173.96 112.26 112.46"/><polygon class="cls-2" points="112.26 112.46 39.05 173.63 26.3 184.62 39.33 173.96 112.26 112.46"/><polygon class="cls-1" points="112.27 112.47 44.66 179.79 32.91 191.85 44.97 180.1 112.27 112.47"/><polygon class="cls-2" points="112.27 112.47 44.66 179.79 32.91 191.85 44.97 180.1 112.27 112.47"/><polygon class="cls-1" points="112.28 112.48 50.8 185.43 40.14 198.47 51.13 185.71 112.28 112.48"/><polygon class="cls-2" points="112.28 112.48 50.8 185.43 40.14 198.47 51.13 185.71 112.28 112.48"/><polygon class="cls-1" points="112.28 112.48 57.39 190.52 47.91 204.44 57.75 190.77 112.28 112.48"/><polygon class="cls-2" points="112.28 112.48 57.39 190.52 47.91 204.44 57.75 190.77 112.28 112.48"/><polygon class="cls-1" points="112.29 112.49 64.41 195.02 56.18 209.71 64.78 195.24 112.29 112.49"/><polygon class="cls-2" points="112.29 112.49 64.41 195.02 56.18 209.71 64.78 195.24 112.29 112.49"/><polygon class="cls-1" points="112.3 112.5 71.79 198.89 64.87 214.25 72.18 199.08 112.3 112.5"/><polygon class="cls-2" points="112.3 112.5 71.79 198.89 64.87 214.25 72.18 199.08 112.3 112.5"/><polygon class="cls-1" points="112.31 112.5 79.48 202.11 73.92 218.01 79.88 202.26 112.31 112.5"/><polygon class="cls-2" points="112.31 112.5 79.48 202.11 73.92 218.01 79.88 202.26 112.31 112.5"/><polygon class="cls-1" points="112.32 112.5 87.42 204.63 83.27 220.96 87.84 204.74 112.32 112.5"/><polygon class="cls-2" points="112.32 112.5 87.42 204.63 83.27 220.96 87.84 204.74 112.32 112.5"/><polygon class="cls-1" points="112.33 112.5 95.55 206.44 92.84 223.06 95.98 206.52 112.33 112.5"/><polygon class="cls-2" points="112.33 112.5 95.55 206.44 92.84 223.06 95.98 206.52 112.33 112.5"/><polygon class="cls-1" points="112.34 112.51 103.81 207.54 102.56 224.33 104.25 207.57 112.34 112.51"/><polygon class="cls-2" points="112.34 112.51 103.81 207.54 102.56 224.33 104.25 207.57 112.34 112.51"/><polygon class="cls-1" points="112.35 112.51 112.14 207.93 112.35 224.76 112.57 207.93 112.35 112.51"/><polygon class="cls-2" points="112.35 112.51 112.14 207.93 112.35 224.76 112.57 207.93 112.35 112.51"/><polygon class="cls-1" points="112.36 112.51 120.46 207.57 122.14 224.33 120.89 207.54 112.36 112.51"/><polygon class="cls-2" points="112.36 112.51 120.46 207.57 122.14 224.33 120.89 207.54 112.36 112.51"/><polygon class="cls-1" points="112.38 112.5 128.73 206.52 131.86 223.06 129.15 206.44 112.38 112.5"/><polygon class="cls-2" points="112.38 112.5 128.73 206.52 131.86 223.06 129.15 206.44 112.38 112.5"/><polygon class="cls-1" points="112.39 112.5 136.87 204.74 141.44 220.96 137.29 204.63 112.39 112.5"/><polygon class="cls-2" points="112.39 112.5 136.87 204.74 141.44 220.96 137.29 204.63 112.39 112.5"/><polygon class="cls-1" points="112.39 112.5 144.82 202.26 150.79 218.01 145.23 202.11 112.39 112.5"/><polygon class="cls-2" points="112.39 112.5 144.82 202.26 150.79 218.01 145.23 202.11 112.39 112.5"/><polygon class="cls-1" points="112.41 112.5 152.53 199.08 159.84 214.25 152.92 198.89 112.41 112.5"/><polygon class="cls-2" points="112.41 112.5 152.53 199.08 159.84 214.25 152.92 198.89 112.41 112.5"/><polygon class="cls-1" points="112.41 112.49 159.92 195.24 168.53 209.71 160.3 195.02 112.41 112.49"/><polygon class="cls-2" points="112.41 112.49 159.92 195.24 168.53 209.71 160.3 195.02 112.41 112.49"/><polygon class="cls-1" points="112.42 112.48 166.96 190.77 176.79 204.44 167.31 190.52 112.42 112.48"/><polygon class="cls-2" points="112.42 112.48 166.96 190.77 176.79 204.44 167.31 190.52 112.42 112.48"/><polygon class="cls-1" points="112.43 112.48 173.58 185.71 184.57 198.47 173.91 185.43 112.43 112.48"/><polygon class="cls-2" points="112.43 112.48 173.58 185.71 184.57 198.47 173.91 185.43 112.43 112.48"/><polygon class="cls-1" points="112.44 112.47 179.74 180.1 191.79 191.85 180.04 179.79 112.44 112.47"/><polygon class="cls-2" points="112.44 112.47 179.74 180.1 191.79 191.85 180.04 179.79 112.44 112.47"/><polygon class="cls-1" points="112.45 112.46 185.38 173.96 198.41 184.62 185.66 173.63 112.45 112.46"/><polygon class="cls-2" points="112.45 112.46 185.38 173.96 198.41 184.62 185.66 173.63 112.45 112.46"/><polygon class="cls-1" points="112.45 112.45 190.47 167.36 204.38 176.84 190.72 167.01 112.45 112.45"/><polygon class="cls-2" points="112.45 112.45 190.47 167.36 204.38 176.84 190.72 167.01 112.45 112.45"/><polygon class="cls-1" points="112.46 112.45 194.97 160.34 209.65 168.58 195.18 159.97 112.46 112.45"/><polygon class="cls-2" points="112.46 112.45 194.97 160.34 209.65 168.58 195.18 159.97 112.46 112.45"/><polygon class="cls-1" points="112.46 112.44 198.84 152.96 214.19 159.88 199.02 152.57 112.46 112.44"/><polygon class="cls-2" points="112.46 112.44 198.84 152.96 214.19 159.88 199.02 152.57 112.46 112.44"/><polygon class="cls-1" points="112.47 112.43 202.05 145.27 217.95 150.83 202.2 144.87 112.47 112.43"/><polygon class="cls-2" points="112.47 112.43 202.05 145.27 217.95 150.83 202.2 144.87 112.47 112.43"/><polygon class="cls-1" points="112.47 112.42 204.57 137.33 220.89 141.48 204.69 136.91 112.47 112.42"/><polygon class="cls-2" points="112.47 112.42 204.57 137.33 220.89 141.48 204.69 136.91 112.47 112.42"/><polygon class="cls-1" points="112.47 112.41 206.38 129.19 223 131.9 206.46 128.76 112.47 112.41"/><polygon class="cls-2" points="112.47 112.41 206.38 129.19 223 131.9 206.46 128.76 112.47 112.41"/><polygon class="cls-1" points="112.47 112.39 207.48 120.93 224.27 122.18 207.52 120.5 112.47 112.39"/><polygon class="cls-2" points="112.47 112.39 207.48 120.93 224.27 122.18 207.52 120.5 112.47 112.39"/><polygon class="cls-1" points="112.47 112.39 207.87 112.6 224.7 112.39 207.87 112.17 112.47 112.39"/><polygon class="cls-2" points="112.47 112.39 207.87 112.6 224.7 112.39 207.87 112.17 112.47 112.39"/><polygon class="cls-1" points="112.47 112.38 207.52 104.27 224.27 102.59 207.48 103.84 112.47 112.38"/><polygon class="cls-2" points="112.47 112.38 207.52 104.27 224.27 102.59 207.48 103.84 112.47 112.38"/><polygon class="cls-1" points="112.47 112.36 206.46 96.01 223 92.87 206.38 95.58 112.47 112.36"/><polygon class="cls-2" points="112.47 112.36 206.46 96.01 223 92.87 206.38 95.58 112.47 112.36"/><polygon class="cls-1" points="112.47 112.35 204.69 87.86 220.89 83.29 204.57 87.44 112.47 112.35"/><polygon class="cls-2" points="112.47 112.35 204.69 87.86 220.89 83.29 204.57 87.44 112.47 112.35"/><polygon class="cls-1" points="112.47 112.34 202.2 79.91 217.95 73.94 202.05 79.5 112.47 112.34"/><polygon class="cls-2" points="112.47 112.34 202.2 79.91 217.95 73.94 202.05 79.5 112.47 112.34"/><polygon class="cls-1" points="112.46 112.33 199.02 72.2 214.19 64.89 198.84 71.81 112.46 112.33"/><polygon class="cls-2" points="112.46 112.33 199.02 72.2 214.19 64.89 198.84 71.81 112.46 112.33"/><polygon class="cls-1" points="112.46 112.32 195.18 64.8 209.65 56.19 194.97 64.42 112.46 112.32"/><polygon class="cls-2" points="112.46 112.32 195.18 64.8 209.65 56.19 194.97 64.42 112.46 112.32"/><polygon class="cls-1" points="112.45 112.31 190.72 57.76 204.38 47.93 190.47 57.41 112.45 112.31"/><polygon class="cls-2" points="112.45 112.31 190.72 57.76 204.38 47.93 190.47 57.41 112.45 112.31"/><polygon class="cls-1" points="112.45 112.31 185.66 51.14 198.41 40.15 185.38 50.81 112.45 112.31"/><polygon class="cls-2" points="112.45 112.31 185.66 51.14 198.41 40.15 185.38 50.81 112.45 112.31"/><polygon class="cls-1" points="112.44 112.3 180.04 44.98 191.79 32.92 179.74 44.67 112.44 112.3"/><polygon class="cls-2" points="112.44 112.3 180.04 44.98 191.79 32.92 179.74 44.67 112.44 112.3"/><polygon class="cls-1" points="112.43 112.29 173.91 39.34 184.57 26.3 173.58 39.06 112.43 112.29"/><polygon class="cls-2" points="112.43 112.29 173.91 39.34 184.57 26.3 173.58 39.06 112.43 112.29"/><polygon class="cls-1" points="112.42 112.28 167.31 34.25 176.79 20.33 166.96 34 112.42 112.28"/><polygon class="cls-2" points="112.42 112.28 167.31 34.25 176.79 20.33 166.96 34 112.42 112.28"/><polygon class="cls-1" points="112.41 112.28 160.3 29.75 168.53 15.06 159.92 29.53 112.41 112.28"/><polygon class="cls-2" points="112.41 112.28 160.3 29.75 168.53 15.06 159.92 29.53 112.41 112.28"/><polygon class="cls-1" points="112.41 112.28 152.92 25.88 159.84 10.52 152.53 25.69 112.41 112.28"/><polygon class="cls-2" points="112.41 112.28 152.92 25.88 159.84 10.52 152.53 25.69 112.41 112.28"/><polygon class="cls-1" points="112.39 112.27 145.23 22.66 150.79 6.76 144.82 22.51 112.39 112.27"/><polygon class="cls-2" points="112.39 112.27 145.23 22.66 150.79 6.76 144.82 22.51 112.39 112.27"/><polygon class="cls-1" points="112.39 112.27 137.29 20.14 141.44 3.81 136.87 20.03 112.39 112.27"/><polygon class="cls-2" points="112.39 112.27 137.29 20.14 141.44 3.81 136.87 20.03 112.39 112.27"/><polygon class="cls-1" points="112.38 112.27 129.15 18.33 131.86 1.71 128.73 18.25 112.38 112.27"/><polygon class="cls-2" points="112.38 112.27 129.15 18.33 131.86 1.71 128.73 18.25 112.38 112.27"/><polygon class="cls-1" points="112.36 112.26 120.89 17.23 122.14 0.44 120.46 17.2 112.36 112.26"/><polygon class="cls-2" points="112.36 112.26 120.89 17.23 122.14 0.44 120.46 17.2 112.36 112.26"/><polygon class="cls-1" points="112.35 112.26 112.57 16.84 112.35 0.01 112.14 16.84 112.35 112.26"/><polygon class="cls-2" points="112.35 112.26 112.57 16.84 112.35 0.01 112.14 16.84 112.35 112.26"/><polygon class="cls-1" points="112.34 112.26 104.25 17.2 102.56 0.44 103.81 17.23 112.34 112.26"/><polygon class="cls-2" points="112.34 112.26 104.25 17.2 102.56 0.44 103.81 17.23 112.34 112.26"/><polygon class="cls-1" points="112.33 112.27 95.98 18.25 92.84 1.71 95.55 18.33 112.33 112.27"/><polygon class="cls-2" points="112.33 112.27 95.98 18.25 92.84 1.71 95.55 18.33 112.33 112.27"/><polygon class="cls-1" points="112.32 112.27 87.84 20.03 83.27 3.81 87.42 20.14 112.32 112.27"/><polygon class="cls-2" points="112.32 112.27 87.84 20.03 83.27 3.81 87.42 20.14 112.32 112.27"/><polygon class="cls-1" points="112.31 112.27 79.88 22.51 73.92 6.76 79.48 22.66 112.31 112.27"/><polygon class="cls-2" points="112.31 112.27 79.88 22.51 73.92 6.76 79.48 22.66 112.31 112.27"/><polygon class="cls-1" points="112.3 112.28 72.18 25.69 64.87 10.52 71.79 25.88 112.3 112.28"/><polygon class="cls-2" points="112.3 112.28 72.18 25.69 64.87 10.52 71.79 25.88 112.3 112.28"/><polygon class="cls-1" points="112.29 112.28 64.78 29.53 56.18 15.06 64.41 29.75 112.29 112.28"/><polygon class="cls-2" points="112.29 112.28 64.78 29.53 56.18 15.06 64.41 29.75 112.29 112.28"/><polygon class="cls-1" points="112.28 112.28 57.75 34 47.91 20.33 57.39 34.25 112.28 112.28"/><polygon class="cls-2" points="112.28 112.28 57.75 34 47.91 20.33 57.39 34.25 112.28 112.28"/><polygon class="cls-1" points="112.28 112.29 51.13 39.06 40.14 26.3 50.8 39.34 112.28 112.29"/><polygon class="cls-2" points="112.28 112.29 51.13 39.06 40.14 26.3 50.8 39.34 112.28 112.29"/><polygon class="cls-1" points="112.27 112.3 44.97 44.67 32.91 32.92 44.66 44.98 112.27 112.3"/><polygon class="cls-2" points="112.27 112.3 44.97 44.67 32.91 32.92 44.66 44.98 112.27 112.3"/><polygon class="cls-1" points="112.26 112.31 39.33 50.81 26.3 40.15 39.05 51.14 112.26 112.31"/><polygon class="cls-2" points="112.26 112.31 39.33 50.81 26.3 40.15 39.05 51.14 112.26 112.31"/><polygon class="cls-1" points="112.25 112.31 34.24 57.41 20.33 47.93 33.99 57.76 112.25 112.31"/><polygon class="cls-2" points="112.25 112.31 34.24 57.41 20.33 47.93 33.99 57.76 112.25 112.31"/><polygon class="cls-1" points="112.25 112.32 29.74 64.42 15.05 56.19 29.52 64.8 112.25 112.32"/><polygon class="cls-2" points="112.25 112.32 29.74 64.42 15.05 56.19 29.52 64.8 112.25 112.32"/><polygon class="cls-1" points="112.24 112.33 25.87 71.81 10.52 64.89 25.69 72.2 112.24 112.33"/><polygon class="cls-2" points="112.24 112.33 25.87 71.81 10.52 64.89 25.69 72.2 112.24 112.33"/><polygon class="cls-1" points="112.24 112.34 22.65 79.5 6.76 73.94 22.51 79.91 112.24 112.34"/><polygon class="cls-2" points="112.24 112.34 22.65 79.5 6.76 73.94 22.51 79.91 112.24 112.34"/><polygon class="cls-1" points="112.24 112.35 20.13 87.44 3.81 83.29 20.02 87.86 112.24 112.35"/><polygon class="cls-2" points="112.24 112.35 20.13 87.44 3.81 83.29 20.02 87.86 112.24 112.35"/><polygon class="cls-1" points="112.23 112.36 18.32 95.58 1.71 92.87 18.25 96.01 112.23 112.36"/><polygon class="cls-2" points="112.23 112.36 18.32 95.58 1.71 92.87 18.25 96.01 112.23 112.36"/><polygon class="cls-1" points="112.23 112.38 17.23 103.84 0.44 102.59 17.19 104.27 112.23 112.38"/><polygon class="cls-2" points="112.23 112.38 17.23 103.84 0.44 102.59 17.19 104.27 112.23 112.38"/><polygon class="cls-1" points="112.23 112.39 16.84 112.17 0.01 112.39 16.84 112.6 112.23 112.39"/><polygon class="cls-2" points="112.23 112.39 16.84 112.17 0.01 112.39 16.84 112.6 112.23 112.39"/></g></g></svg>