<svg width="1084" height="544" viewBox="0 0 1084 544" fill="none" xmlns="http://www.w3.org/2000/svg">
<path d="M541.41 2.05241L83.7432 41.047L3.08398 49.1506L83.9248 43.1266L541.41 2.05241Z" stroke="#F2F2F2" stroke-width="1.82793" stroke-miterlimit="22.9256"/>
<path d="M541.419 2.10338L88.8428 80.8461L9.19287 95.9497L89.2073 82.9002L541.419 2.10338Z" stroke="#F2F2F2" stroke-width="1.82793" stroke-miterlimit="22.9256"/>
<path d="M541.432 2.15274L97.3732 120.06L19.3276 142.05L97.9138 122.076L541.432 2.15274Z" stroke="#F2F2F2" stroke-width="1.82793" stroke-miterlimit="22.9256"/>
<path d="M541.446 2.20037L109.344 158.362L33.5117 187.073L110.056 160.321L541.446 2.20037Z" stroke="#F2F2F2" stroke-width="1.82793" stroke-miterlimit="22.9256"/>
<path d="M541.466 2.24926L124.656 195.46L51.6201 230.667L125.539 197.351L541.466 2.24926Z" stroke="#F2F2F2" stroke-width="1.82793" stroke-miterlimit="22.9256"/>
<path d="M541.494 2.29431L143.145 231.076L73.4585 272.514L144.187 232.885L541.494 2.29431Z" stroke="#F2F2F2" stroke-width="1.82793" stroke-miterlimit="22.9256"/>
<path d="M541.518 2.33557L164.648 264.949L98.8486 312.298L165.848 266.661L541.518 2.33557Z" stroke="#F2F2F2" stroke-width="1.82793" stroke-miterlimit="22.9256"/>
<path d="M541.551 2.37705L189.011 296.83L127.589 349.732L190.352 298.429L541.551 2.37705Z" stroke="#F2F2F2" stroke-width="1.82793" stroke-miterlimit="22.9256"/>
<path d="M541.583 2.41521L216.038 326.489L159.456 384.547L217.51 327.965L541.583 2.41521Z" stroke="#F2F2F2" stroke-width="1.82793" stroke-miterlimit="22.9256"/>
<path d="M541.618 2.45036L245.567 353.65L194.264 416.416L247.166 354.991L541.618 2.45036Z" stroke="#F2F2F2" stroke-width="1.82793" stroke-miterlimit="22.9256"/>
<path d="M541.656 2.48286L277.335 378.157L231.695 445.157L279.043 379.354L541.656 2.48286Z" stroke="#F2F2F2" stroke-width="1.82793" stroke-miterlimit="22.9256"/>
<path d="M541.701 2.50814L311.111 399.812L271.482 470.541L312.921 400.858L541.701 2.50814Z" stroke="#F2F2F2" stroke-width="1.82793" stroke-miterlimit="22.9256"/>
<path d="M541.746 2.53222L346.645 418.463L313.329 492.38L348.539 419.343L541.746 2.53222Z" stroke="#F2F2F2" stroke-width="1.82793" stroke-miterlimit="22.9256"/>
<path d="M541.795 2.55376L383.675 433.941L356.923 510.485L385.634 434.653L541.795 2.55376Z" stroke="#F2F2F2" stroke-width="1.82793" stroke-miterlimit="22.9256"/>
<path d="M541.847 2.56591L421.927 446.085L401.949 524.672L423.944 446.626L541.847 2.56591Z" stroke="#F2F2F2" stroke-width="1.82793" stroke-miterlimit="22.9256"/>
<path d="M541.895 2.57815L461.099 454.792L448.049 534.81L463.153 455.156L541.895 2.57815Z" stroke="#F2F2F2" stroke-width="1.82793" stroke-miterlimit="22.9256"/>
<path d="M541.946 2.58583L500.872 460.072L494.848 540.913L502.952 460.254L541.946 2.58583Z" stroke="#F2F2F2" stroke-width="1.82793" stroke-miterlimit="22.9256"/>
<path d="M541.997 2.58741L540.955 461.938L541.997 543L543.04 461.938L541.997 2.58741Z" stroke="#F2F2F2" stroke-width="1.82793" stroke-miterlimit="22.9256"/>
<path d="M542.05 2.58583L581.041 460.254L589.148 540.913L583.12 460.072L542.05 2.58583Z" stroke="#F2F2F2" stroke-width="1.82793" stroke-miterlimit="22.9256"/>
<path d="M542.1 2.57815L620.842 455.156L635.946 534.81L622.897 454.792L542.1 2.57815Z" stroke="#F2F2F2" stroke-width="1.82793" stroke-miterlimit="22.9256"/>
<path d="M542.147 2.56591L660.05 446.626L682.045 524.672L662.067 446.085L542.147 2.56591Z" stroke="#F2F2F2" stroke-width="1.82793" stroke-miterlimit="22.9256"/>
<path d="M542.198 2.55376L698.359 434.653L727.07 510.485L700.321 433.941L542.198 2.55376Z" stroke="#F2F2F2" stroke-width="1.82793" stroke-miterlimit="22.9256"/>
<path d="M542.245 2.53222L735.456 419.343L770.663 492.38L737.346 418.463L542.245 2.53222Z" stroke="#F2F2F2" stroke-width="1.82793" stroke-miterlimit="22.9256"/>
<path d="M542.295 2.50814L771.077 400.858L812.513 470.541L772.883 399.812L542.295 2.50814Z" stroke="#F2F2F2" stroke-width="1.82793" stroke-miterlimit="22.9256"/>
<path d="M542.334 2.48286L804.947 379.354L852.296 445.157L806.656 378.157L542.334 2.48286Z" stroke="#F2F2F2" stroke-width="1.82793" stroke-miterlimit="22.9256"/>
<path d="M542.375 2.45036L836.828 354.991L889.733 416.416L838.431 353.65L542.375 2.45036Z" stroke="#F2F2F2" stroke-width="1.82793" stroke-miterlimit="22.9256"/>
<path d="M542.417 2.41521L866.486 327.965L924.544 384.547L867.962 326.489L542.417 2.41521Z" stroke="#F2F2F2" stroke-width="1.82793" stroke-miterlimit="22.9256"/>
<path d="M542.44 2.37705L893.639 298.429L956.405 349.732L894.98 296.83L542.44 2.37705Z" stroke="#F2F2F2" stroke-width="1.82793" stroke-miterlimit="22.9256"/>
<path d="M542.482 2.33557L918.152 266.661L985.151 312.298L919.349 264.949L542.482 2.33557Z" stroke="#F2F2F2" stroke-width="1.82793" stroke-miterlimit="22.9256"/>
<path d="M542.506 2.29431L939.812 232.885L1010.54 272.514L940.855 231.076L542.506 2.29431Z" stroke="#F2F2F2" stroke-width="1.82793" stroke-miterlimit="22.9256"/>
<path d="M542.529 2.24926L958.457 197.351L1032.38 230.667L959.336 195.46L542.529 2.24926Z" stroke="#F2F2F2" stroke-width="1.82793" stroke-miterlimit="22.9256"/>
<path d="M542.547 2.20037L973.933 160.321L1050.48 187.073L974.645 158.362L542.547 2.20037Z" stroke="#F2F2F2" stroke-width="1.82793" stroke-miterlimit="22.9256"/>
<path d="M542.562 2.15274L986.077 122.076L1064.66 142.05L986.618 120.06L542.562 2.15274Z" stroke="#F2F2F2" stroke-width="1.82793" stroke-miterlimit="22.9256"/>
<path d="M542.571 2.10338L994.785 82.9002L1074.8 95.9497L995.146 80.8461L542.571 2.10338Z" stroke="#F2F2F2" stroke-width="1.82793" stroke-miterlimit="22.9256"/>
<path d="M542.58 2.05241L1000.06 43.1266L1080.91 49.1506L1000.25 41.047L542.58 2.05241Z" stroke="#F2F2F2" stroke-width="1.82793" stroke-miterlimit="22.9256"/>
<path d="M542.585 2.00135L1001.94 3.04395L1083 2.00135L1001.94 0.958746L542.585 2.00135Z" stroke="#F2F2F2" stroke-width="1.82793" stroke-miterlimit="22.9256"/>
<path d="M541.411 2.00135L82.0602 0.958746L1 2.00135L82.0602 3.04395L541.411 2.00135Z" stroke="#F2F2F2" stroke-width="1.82793" stroke-miterlimit="22.9256"/>
</svg>
