<svg width="676" height="126" viewBox="0 0 676 126" fill="none" xmlns="http://www.w3.org/2000/svg">
<path d="M100.106 5H152.046V17.46H117.256V54H100.106V5ZM150.931 19.07H162.271L165.981 32.86H166.611C166.985 28.3333 168.735 24.74 171.861 22.08C174.988 19.3733 179.188 18.02 184.461 18.02C191.135 18.02 196.268 19.63 199.861 22.85C203.455 26.07 205.251 30.6433 205.251 36.57C205.251 42.4967 203.525 47.07 200.071 50.29C196.665 53.51 191.788 55.12 185.441 55.12C179.935 55.12 175.548 53.8367 172.281 51.27C169.015 48.6567 167.125 44.9467 166.611 40.14H166.051L166.541 51.62V65.2H150.931V19.07ZM167.101 36.57C167.101 39.23 168.151 41.2833 170.251 42.73C172.398 44.13 175.408 44.83 179.281 44.83C182.595 44.83 185.138 44.13 186.911 42.73C188.731 41.2833 189.641 39.23 189.641 36.57C189.641 33.91 188.731 31.8567 186.911 30.41C185.091 28.9633 182.525 28.24 179.211 28.24C175.338 28.24 172.351 28.9633 170.251 30.41C168.151 31.8567 167.101 33.91 167.101 36.57ZM225.995 68.98C223.101 68.98 220.231 68.8633 217.385 68.63C214.585 68.4433 212.625 68.1867 211.505 67.86L212.135 57.85C214.188 58.0367 217.898 58.13 223.265 58.13C227.138 58.13 229.495 57.08 230.335 54.98L231.035 53.44H215.985L202.825 19H218.855L230.895 52.67H231.385L243.425 19H259.525L246.295 53.44H246.225L244.825 56.59C243.518 59.7167 242.095 62.1433 240.555 63.87C239.015 65.6433 237.078 66.9267 234.745 67.72C232.458 68.56 229.541 68.98 225.995 68.98ZM261.473 19.07H309.213V54H293.673V29.29H277.013V54H261.473V19.07ZM315.376 19.07H363.116V54H347.576V29.29H330.916V54H315.376V19.07ZM394.548 55.05C388.855 55.05 383.978 54.3267 379.918 52.88C375.858 51.3867 372.755 49.2633 370.608 46.51C368.462 43.7567 367.388 40.4433 367.388 36.57C367.388 30.69 369.768 26.14 374.528 22.92C379.288 19.6533 385.962 18.02 394.548 18.02C400.242 18.02 405.118 18.7667 409.178 20.26C413.285 21.7067 416.412 23.83 418.558 26.63C420.705 29.43 421.778 32.7667 421.778 36.64C421.778 40.4667 420.705 43.7567 418.558 46.51C416.412 49.2633 413.285 51.3867 409.178 52.88C405.118 54.3267 400.242 55.05 394.548 55.05ZM383.068 36.57C383.068 39.09 384.072 41.05 386.078 42.45C388.085 43.85 390.908 44.55 394.548 44.55C398.142 44.55 400.942 43.85 402.948 42.45C405.002 41.05 406.028 39.09 406.028 36.57C406.028 34.0033 405.025 32.02 403.018 30.62C401.012 29.1733 398.188 28.45 394.548 28.45C390.908 28.45 388.085 29.1733 386.078 30.62C384.072 32.02 383.068 34.0033 383.068 36.57ZM424.615 19.07H453.315C459.662 19.07 464.445 19.6767 467.665 20.89C470.885 22.1033 472.495 24.11 472.495 26.91C472.495 29.1967 471.608 30.9467 469.835 32.16C468.108 33.3267 466.055 34.12 463.675 34.54C461.295 34.9133 458.448 35.17 455.135 35.31V35.59C461.482 35.73 466.498 36.5233 470.185 37.97C473.918 39.37 475.785 41.6567 475.785 44.83C475.785 48.19 473.965 50.57 470.325 51.97C466.732 53.3233 461.295 54 454.015 54H424.615V19.07ZM452.615 46.02C455.368 46.02 457.398 45.7167 458.705 45.11C460.012 44.4567 460.665 43.43 460.665 42.03C460.665 40.5833 460.012 39.5567 458.705 38.95C457.398 38.2967 455.345 37.97 452.545 37.97H440.155V46.02H452.615ZM451.215 34.68C455.368 34.68 457.445 33.42 457.445 30.9C457.445 28.38 455.415 27.12 451.355 27.12H440.155V34.68H451.215ZM509.86 41.75H509.3C509.253 43.99 508.6 46.1367 507.34 48.19C506.126 50.1967 504.236 51.8533 501.67 53.16C499.15 54.4667 496 55.12 492.22 55.12C487.133 55.12 483.33 54.1867 480.81 52.32C478.29 50.4067 477.03 47.84 477.03 44.62C477.03 41.0267 478.686 38.32 482 36.5C485.313 34.6333 489.746 33.7 495.3 33.7C500.526 33.7 505.053 33.98 508.88 34.54V34.33C508.74 32.37 507.83 30.8767 506.15 29.85C504.47 28.7767 502.02 28.24 498.8 28.24C493.573 28.24 488.276 29.22 482.91 31.18L481.58 20.89C484.286 20.0033 487.273 19.3033 490.54 18.79C493.853 18.2767 497.213 18.02 500.62 18.02C508.786 18.02 514.783 19.3733 518.61 22.08C522.483 24.74 524.42 28.45 524.42 33.21V54H513.15L509.86 41.75ZM492.78 41.75C492.78 43.01 493.363 43.99 494.53 44.69C495.696 45.39 497.166 45.74 498.94 45.74C501.74 45.74 504.166 45.11 506.22 43.85C508.273 42.5433 509.276 40.56 509.23 37.9V37.97V37.48C506.056 37.2933 503.77 37.2 502.37 37.2C499.243 37.2 496.863 37.5967 495.23 38.39C493.596 39.1367 492.78 40.2567 492.78 41.75ZM561.876 54V37.48L543.956 54H528.066L540.176 42.8C536.396 42.0067 533.503 40.6067 531.496 38.6C529.489 36.5933 528.486 34.0967 528.486 31.11C528.486 27.2367 530.049 24.2733 533.176 22.22C536.349 20.12 540.993 19.07 547.106 19.07H577.416V54H561.876ZM544.166 32.02C544.166 33.28 544.609 34.26 545.496 34.96C546.383 35.66 547.573 36.01 549.066 36.01H561.876V28.24H549.066C547.573 28.24 546.383 28.59 545.496 29.29C544.609 29.9433 544.166 30.8533 544.166 32.02ZM89.4937 89.29H73.3237V114H57.8537V89.29H41.6837V79.07H89.4937V89.29ZM117.568 115.12C112.014 115.12 107.184 114.397 103.078 112.95C98.9709 111.457 95.7975 109.333 93.5575 106.58C91.3642 103.78 90.2675 100.443 90.2675 96.57C90.2675 92.6967 91.3175 89.3833 93.4175 86.63C95.5175 83.83 98.4809 81.7067 102.308 80.26C106.181 78.7667 110.731 78.02 115.958 78.02C123.658 78.02 129.678 79.4433 134.018 82.29C138.404 85.1367 140.598 89.1033 140.598 94.19C140.598 96.15 140.341 97.5967 139.828 98.53H106.158C106.624 100.537 107.978 102.1 110.218 103.22C112.458 104.34 115.234 104.9 118.548 104.9C120.461 104.9 122.631 104.69 125.058 104.27C127.484 103.803 129.678 103.197 131.638 102.45L132.338 112.88C130.378 113.58 128.044 114.117 125.338 114.49C122.631 114.91 120.041 115.12 117.568 115.12ZM125.828 94.4C125.641 92.3 124.708 90.6667 123.028 89.5C121.348 88.3333 119.154 87.75 116.448 87.75C113.601 87.75 111.244 88.4267 109.378 89.78C107.511 91.1333 106.414 93 106.088 95.38L125.828 94.4ZM143.051 79.07H154.391L158.101 92.86H158.731C159.104 88.3333 160.854 84.74 163.981 82.08C167.107 79.3733 171.307 78.02 176.581 78.02C183.254 78.02 188.387 79.63 191.981 82.85C195.574 86.07 197.371 90.6433 197.371 96.57C197.371 102.497 195.644 107.07 192.191 110.29C188.784 113.51 183.907 115.12 177.561 115.12C172.054 115.12 167.667 113.837 164.401 111.27C161.134 108.657 159.244 104.947 158.731 100.14H158.171L158.661 111.62V125.2H143.051V79.07ZM159.221 96.57C159.221 99.23 160.271 101.283 162.371 102.73C164.517 104.13 167.527 104.83 171.401 104.83C174.714 104.83 177.257 104.13 179.031 102.73C180.851 101.283 181.761 99.23 181.761 96.57C181.761 93.91 180.851 91.8567 179.031 90.41C177.211 88.9633 174.644 88.24 171.331 88.24C167.457 88.24 164.471 88.9633 162.371 90.41C160.271 91.8567 159.221 93.91 159.221 96.57ZM231.577 101.75H231.017C230.97 103.99 230.317 106.137 229.057 108.19C227.843 110.197 225.953 111.853 223.387 113.16C220.867 114.467 217.717 115.12 213.937 115.12C208.85 115.12 205.047 114.187 202.527 112.32C200.007 110.407 198.747 107.84 198.747 104.62C198.747 101.027 200.403 98.32 203.717 96.5C207.03 94.6333 211.463 93.7 217.017 93.7C222.243 93.7 226.77 93.98 230.597 94.54V94.33C230.457 92.37 229.547 90.8767 227.867 89.85C226.187 88.7767 223.737 88.24 220.517 88.24C215.29 88.24 209.993 89.22 204.627 91.18L203.297 80.89C206.003 80.0033 208.99 79.3033 212.257 78.79C215.57 78.2767 218.93 78.02 222.337 78.02C230.503 78.02 236.5 79.3733 240.327 82.08C244.2 84.74 246.137 88.45 246.137 93.21V114H234.867L231.577 101.75ZM214.497 101.75C214.497 103.01 215.08 103.99 216.247 104.69C217.413 105.39 218.883 105.74 220.657 105.74C223.457 105.74 225.883 105.11 227.937 103.85C229.99 102.543 230.993 100.56 230.947 97.9V97.97V97.48C227.773 97.2933 225.487 97.2 224.087 97.2C220.96 97.2 218.58 97.5967 216.947 98.39C215.313 99.1367 214.497 100.257 214.497 101.75ZM251.883 79.07H299.623V114H284.083V89.29H267.423V114H251.883V79.07ZM352.966 114H337.916V79.63H337.566L327.626 114H305.716V79.07H320.696V113.23H321.116L330.916 79.07H352.966V114ZM390.784 114V97.48L372.864 114H356.974L369.084 102.8C365.304 102.007 362.41 100.607 360.404 98.6C358.397 96.5933 357.394 94.0967 357.394 91.11C357.394 87.2367 358.957 84.2733 362.084 82.22C365.257 80.12 369.9 79.07 376.014 79.07H406.324V114H390.784ZM373.074 92.02C373.074 93.28 373.517 94.26 374.404 94.96C375.29 95.66 376.48 96.01 377.974 96.01H390.784V88.24H377.974C376.48 88.24 375.29 88.59 374.404 89.29C373.517 89.9433 373.074 90.8533 373.074 92.02ZM449.615 102.03C449.615 101.19 448.891 100.63 447.445 100.35C446.045 100.07 443.478 99.93 439.745 99.93H429.105V93H439.955C443.361 93 445.671 92.86 446.885 92.58C448.145 92.2533 448.775 91.74 448.775 91.04C448.775 90.2933 448.145 89.7567 446.885 89.43C445.625 89.1033 443.315 88.94 439.955 88.94C434.401 88.94 429.105 89.4767 424.065 90.55L422.945 79.77C425.511 79.1633 428.125 78.72 430.785 78.44C433.491 78.16 436.665 78.02 440.305 78.02C447.445 78.02 452.811 78.6967 456.405 80.05C459.998 81.4033 461.795 83.5967 461.795 86.63C461.795 89.15 460.418 91.0167 457.665 92.23C454.958 93.3967 451.411 93.98 447.025 93.98V94.19C452.065 94.19 456.031 94.9133 458.925 96.36C461.865 97.76 463.335 100.303 463.335 103.99C463.335 108.05 461.328 110.92 457.315 112.6C453.301 114.28 447.281 115.12 439.255 115.12C433.001 115.12 427.448 114.63 422.595 113.65L423.015 102.52C428.008 103.64 433.561 104.2 439.675 104.2C443.221 104.2 445.765 104.06 447.305 103.78C448.845 103.453 449.615 102.87 449.615 102.03ZM497.503 101.75H496.943C496.896 103.99 496.243 106.137 494.983 108.19C493.77 110.197 491.88 111.853 489.313 113.16C486.793 114.467 483.643 115.12 479.863 115.12C474.776 115.12 470.973 114.187 468.453 112.32C465.933 110.407 464.673 107.84 464.673 104.62C464.673 101.027 466.33 98.32 469.643 96.5C472.956 94.6333 477.39 93.7 482.943 93.7C488.17 93.7 492.696 93.98 496.523 94.54V94.33C496.383 92.37 495.473 90.8767 493.793 89.85C492.113 88.7767 489.663 88.24 486.443 88.24C481.216 88.24 475.92 89.22 470.553 91.18L469.223 80.89C471.93 80.0033 474.916 79.3033 478.183 78.79C481.496 78.2767 484.856 78.02 488.263 78.02C496.43 78.02 502.426 79.3733 506.253 82.08C510.126 84.74 512.063 88.45 512.063 93.21V114H500.793L497.503 101.75ZM480.423 101.75C480.423 103.01 481.006 103.99 482.173 104.69C483.34 105.39 484.81 105.74 486.583 105.74C489.383 105.74 491.81 105.11 493.863 103.85C495.916 102.543 496.92 100.56 496.873 97.9V97.97V97.48C493.7 97.2933 491.413 97.2 490.013 97.2C486.886 97.2 484.506 97.5967 482.873 98.39C481.24 99.1367 480.423 100.257 480.423 101.75ZM639.944 97.34C639.058 100.98 637.074 104.177 633.994 106.93C630.914 109.637 626.878 111.737 621.884 113.23C616.891 114.677 611.198 115.4 604.804 115.4C597.851 115.4 591.738 114.56 586.464 112.88C581.238 111.2 577.038 108.773 573.864 105.6C570.691 102.38 568.708 98.53 567.914 94.05H562.804V92.16H567.704C567.611 91.1333 567.564 90.3167 567.564 89.71C567.564 89.1033 567.611 88.2867 567.704 87.26H562.804V85.37H567.914C568.708 80.89 570.691 77.0633 573.864 73.89C577.038 70.67 581.238 68.22 586.464 66.54C591.738 64.8133 597.851 63.95 604.804 63.95C614.418 63.95 622.258 65.5133 628.324 68.64C634.438 71.7667 638.241 76.27 639.734 82.15H621.604C620.718 79.5833 618.804 77.67 615.864 76.41C612.924 75.15 609.238 74.52 604.804 74.52C599.531 74.52 595.191 75.4767 591.784 77.39C588.378 79.2567 586.161 81.9167 585.134 85.37L608.374 85.44V87.26H584.784C584.644 88.0067 584.574 88.8233 584.574 89.71C584.574 90.55 584.644 91.3667 584.784 92.16L608.374 92.23V94.05H585.204C586.184 97.5033 588.378 100.187 591.784 102.1C595.191 103.967 599.531 104.9 604.804 104.9C614.278 104.9 619.994 102.38 621.954 97.34H639.944Z" fill="black"/>
<g clip-path="url(#clip0_5907_6269)">
<path d="M540.405 114V66.4444C539.555 69.109 538.948 71.8552 536.838 73.8979C534.727 75.9406 532.068 76.7359 529.079 77.3782C528.716 74.1732 528.37 71.0973 528 67.8073C532.725 66.8964 537.273 65.6661 541.899 65.2242C546.525 64.7824 551.261 65.1291 556 65.1291V114H540.405Z" fill="black"/>
</g>
<defs>
<clipPath id="clip0_5907_6269">
<rect width="28" height="49" fill="white" transform="translate(528 65)"/>
</clipPath>
</defs>
</svg>
