<svg width="689" height="351" viewBox="0 0 689 351" fill="none" xmlns="http://www.w3.org/2000/svg">
<path d="M0 350.985V1.01562H117.77V14.7547H25.1373V245.158H117.77V259.691H25.1373V350.985H0Z" fill="black"/>
<path d="M251.327 311.066C251.327 297.143 251.71 288.246 244.084 276.562C234.513 266.519 225.019 259.561 211.213 259.561H179.935V350.825H154.461V1.00021H211.213C220.963 0.833017 230.612 2.99787 239.351 7.31353C248.089 11.6292 255.665 17.9701 261.442 25.8055C270.616 37.2976 275.46 51.6339 275.133 66.3202V194.982C275.126 203.262 273.568 211.468 270.538 219.176C267.953 226.561 263.713 233.261 258.142 238.766C252.951 244.416 246.757 249.061 239.873 252.467C250.537 257.909 259.383 266.329 265.332 276.699C271.834 286.579 275.245 298.164 275.133 309.981V350.993H251.327V311.066ZM179.935 15.3961V245.158H211.252C225.172 245.158 232.645 236.94 242.216 227.356C249.873 215.946 250.952 208.828 250.952 194.868V66.3355C250.952 52.4131 249.842 44.7607 242.216 33.3509C232.645 22.8881 225.172 15.3961 211.252 15.3961H179.935Z" fill="black"/>
<path d="M314.642 350.985L310.829 1.01562H429.854V14.7547H337.865V245.158H429.854V259.691H337.865V337.406H429.854V350.985H314.642Z" fill="black"/>
<path fill-rule="evenodd" clip-rule="evenodd" d="M717 350.985H691.87L676.955 259.691H608.304L596.865 350.985H572.072L627.377 1H652.162L717 350.985ZM675.048 246.357H610.249L640.723 60.0118L675.048 246.357Z" fill="black"/>
<path d="M527.968 350.985H501.269V244.471L461.224 1.01562H478.574L514.806 214.045L551.038 1.01562H568.014L527.968 244.471V350.985Z" fill="black"/>
</svg>
