<svg width="42" height="40" viewBox="0 0 42 40" fill="none" xmlns="http://www.w3.org/2000/svg">
<path fillRule="evenodd" clipRule="evenodd" d="M19.7301 1.80395C20.0283 0.44112 21.9718 0.441124 22.27 1.80396L25.2308 15.3354C25.342 15.8437 25.7456 16.2367 26.2567 16.3344L40.3184 19.0218C41.7264 19.2908 41.7264 21.3065 40.3184 21.5755L26.2567 24.2627C25.7456 24.3604 25.342 24.7534 25.2308 25.2617L22.27 38.7933C21.9718 40.1561 20.0283 40.1561 19.7301 38.7933L16.7692 25.2618C16.658 24.7535 16.2544 24.3605 15.7433 24.2628L1.68168 21.5756C0.273709 21.3065 0.273715 19.2909 1.68169 19.0218L15.7433 16.3346C16.2544 16.2369 16.658 15.8439 16.7692 15.3356L19.7301 1.80395Z" fill="#343434"/>
</svg>
