<svg width="66" height="33" viewBox="0 0 66 33" fill="none" xmlns="http://www.w3.org/2000/svg">
<path fill-rule="evenodd" clip-rule="evenodd" d="M61.8491 22.8355H55.9363L58.7187 5.7924L61.8491 22.8355ZM65.675 32.4004H63.383L62.023 24.0529H55.7622L54.7189 32.4004H52.4582L57.5014 0.401239H59.7624L65.675 32.4004ZM48.4355 32.4004H46.0008V22.6615L42.3488 0.401312H43.9312L47.2356 19.879L50.5397 0.401312H52.0877L48.4355 22.6615V32.4004ZM28.9806 32.4004L28.6328 0.401312H39.4882V1.65704H31.0988V22.7243H39.4882V24.0529H31.0988V31.1588H39.4882V32.4004H28.9806ZM16.6922 1.71611V22.7243H19.5479C20.8173 22.7243 21.499 21.9729 22.372 21.0964C23.0676 20.053 23.1686 19.4026 23.1686 18.1262V6.37343C23.1686 5.10039 23.0676 4.40119 22.372 3.35783C21.499 2.40129 20.8173 1.71611 19.5479 1.71611H16.6922ZM23.2067 28.7484C23.2067 27.4754 23.2416 26.6615 22.5461 25.5935C21.6729 24.6754 20.8069 24.0391 19.5479 24.0391H16.6922V32.3866H14.3722V0.401239H19.5479C21.3522 0.36977 23.0596 1.21523 24.1286 2.6691C24.9653 3.71964 25.4073 5.03048 25.3773 6.37343V18.14C25.3775 18.897 25.236 19.6473 24.9598 20.3521C24.7239 21.0274 24.3375 21.6399 23.8293 22.1434C23.3561 22.66 22.7913 23.0846 22.1633 23.3956C23.1348 23.8923 23.9409 24.6609 24.4834 25.6077C25.0768 26.5108 25.3878 27.5704 25.3773 28.6511V32.4004H23.2067V28.7484ZM0.285767 32.4004V0.401312H11.0264V1.65704H2.57798V22.7243H11.0264V24.0529H2.57798V32.4004H0.285767Z" fill="#343434"/>
</svg>
