<svg width="28" height="29" viewBox="0 0 28 29" fill="none" xmlns="http://www.w3.org/2000/svg">
<path d="M0.485083 1.70214C5.13233 0.395662 10.001 0.0676251 14.7821 0.738857C17.2838 1.04124 19.7215 1.73823 22.004 2.80379C27.5191 5.50736 28.2125 11.3961 23.6841 15.5766C20.3372 18.6633 16.2169 20.3105 11.9259 21.5399C8.79237 22.4366 5.58145 23.0513 2.67724 23.7272C6.60019 23.642 10.8165 23.5143 15.0328 23.4611C19.2491 23.4079 23.4521 23.4611 27.7271 23.4611V28.3999H0.0157125C0.0157125 26.6649 -0.0429416 24.9885 0.0663998 23.3227C0.0877347 22.9901 0.70378 22.5936 1.13314 22.4073C4.1707 21.0609 7.30425 19.9113 10.2511 18.3972C12.2379 17.3754 13.9848 15.8906 15.8009 14.5494C16.2734 14.1434 16.6674 13.6546 16.9636 13.1072C18.9184 9.98049 17.937 7.33014 14.3634 6.39879C10.1765 5.30512 6.00017 5.80805 1.86386 6.82987C1.69052 6.87245 1.51982 6.92035 1.34647 6.94696C1.20084 6.94812 1.05538 6.93654 0.911775 6.91237C0.770431 5.23594 0.626427 3.55153 0.485083 1.70214Z" fill="#F4B8A9"/>
</svg>
