<svg width="27" height="28" viewBox="0 0 27 28" fill="none" xmlns="http://www.w3.org/2000/svg">
<path d="M0.327129 21.7321C1.52266 21.9807 2.6448 22.2579 3.78062 22.4555C6.57103 22.9428 9.38632 23.077 12.1879 22.6295C13.3972 22.4393 14.589 22.0428 15.7385 21.6078C16.1291 21.4595 16.4814 21.2255 16.7695 20.923C17.0576 20.6206 17.2741 20.2574 17.403 19.8602C17.8608 18.5265 17.2263 17.1257 15.6812 16.5328C14.6281 16.1126 13.5158 15.8589 12.3845 15.7808C10.2149 15.6652 8.03031 15.7472 5.80594 15.7472V11.5373C7.18435 11.5373 8.54286 11.5684 9.91131 11.5273C10.9812 11.495 12.0685 11.4727 13.1123 11.2651C14.263 11.0376 15.206 10.395 15.6899 9.24401C16.2473 7.91528 15.843 6.65989 14.5815 5.95513C13.371 5.27895 12.0225 5.15091 10.6739 5.10368C7.97814 5.00837 5.28656 5.38702 2.72193 6.22235C2.43207 6.31557 2.12105 6.43739 2.08498 5.96258C1.96057 4.39892 1.86105 2.83279 1.74038 1.11501C3.33401 0.81545 4.88285 0.425168 6.45409 0.254882C8.24511 0.0584138 10.0468 -0.0246166 11.8483 0.00628851C14.9883 0.0684369 18.0847 0.466184 20.9523 1.88441C22.0981 2.44996 23.1033 3.19449 23.79 4.31565C24.7765 5.9315 24.5016 7.86433 23.0647 9.07995C21.5606 10.3515 19.7331 10.8773 17.8571 11.2638C17.2102 11.3968 16.5471 11.4416 15.8927 11.5373C15.7701 11.5698 15.6512 11.6152 15.5382 11.6728C15.5382 11.7312 15.5382 11.7896 15.5319 11.848C15.8156 11.9027 16.0967 11.9723 16.3816 12.0084C19.0588 12.3576 21.5507 13.1942 23.6394 14.9542C25.2119 16.2792 26.2296 17.9249 25.9857 20.0926C25.7568 22.1448 24.7417 23.747 23.0634 24.9402C20.9137 26.4616 18.4517 27.134 15.8989 27.5504C13.0239 28.024 10.1241 28.0762 7.22665 27.9233C4.9351 27.799 2.64729 27.5778 0.431629 26.9004C0.0758295 26.791 -0.0212069 26.6132 0.00367415 26.2789C0.118127 24.7712 0.217652 23.2672 0.327129 21.7321Z" fill="#F4B8A9"/>
</svg>
