<svg width="115" height="56" viewBox="0 0 115 56" fill="none" xmlns="http://www.w3.org/2000/svg">
<path fillRule="evenodd" clipRule="evenodd" d="M107.736 39.2614H97.3885L102.258 9.43602L107.736 39.2614ZM114.431 56H110.42L108.04 41.3919H97.0838L95.2579 56H91.3018L100.127 0.00148773H104.084L114.431 56ZM84.2621 56H80.0012V38.9569L73.6103 0.00161362H76.3796L82.1622 34.0875L87.9445 0.00161362H90.6534L84.2621 38.9569V56ZM50.216 56L49.6072 0.00161362H68.6042V2.19913H53.9228V39.0668H68.6042V41.3919H53.9228V53.8272H68.6042V56H50.216ZM28.7113 2.30251V39.0668H33.7087C35.9302 39.0668 37.1232 37.7519 38.651 36.218C39.8682 34.3921 40.0449 33.254 40.0449 31.0201V10.4528C40.0449 8.22499 39.8682 7.00141 38.651 5.17552C37.1232 3.50157 35.9302 2.30251 33.7087 2.30251H28.7113ZM40.1116 49.609C40.1116 47.3813 40.1727 45.957 38.9556 44.088C37.4275 42.4812 35.912 41.3677 33.7087 41.3677H28.7113V55.9758H24.6513V0.00148773H33.7087C36.8663 -0.0535812 39.8543 1.42598 41.7249 3.97024C43.1893 5.80869 43.9627 8.10266 43.9101 10.4528V31.0444C43.9105 32.3691 43.6629 33.6821 43.1795 34.9155C42.7668 36.0973 42.0905 37.1692 41.2012 38.0502C40.3731 38.9544 39.3846 39.6974 38.2857 40.2416C39.9858 41.1109 41.3965 42.4559 42.3458 44.1128C43.3843 45.6933 43.9286 47.5475 43.9101 49.4387V56H40.1116V49.609ZM0 56V0.00161362H18.7961V2.19913H4.01137V39.0668H18.7961V41.3919H4.01137V56H0Z" fill="white"/>
</svg>
